<?xml version="1.0" standalone="no"?>
<!DOCTYPE svg PUBLIC "-//W3C//DTD SVG 1.1//EN" "http://www.w3.org/Graphics/SVG/1.1/DTD/svg11.dtd" >
<svg xmlns="http://www.w3.org/2000/svg" xmlns:xlink="http://www.w3.org/1999/xlink" version="1.1">
<metadata>
Created by FontForge 20171206 at Fri Dec 14 11:59:44 2018
 By fw_worker
Copyright (c) 2008 by Matej Sychra. All rights reserved.
</metadata>
<defs>
<font id="Flatform-Light" horiz-adv-x="580" >
  <font-face 
    font-family="Flatform"
    font-weight="300"
    font-stretch="normal"
    units-per-em="1000"
    panose-1="2 0 0 0 0 0 0 0 0 0"
    ascent="750"
    descent="-250"
    x-height="417"
    cap-height="697"
    bbox="-68 -518 822 953"
    underline-thickness="50"
    underline-position="-100"
    unicode-range="U+0020-FB04"
  />
<missing-glyph horiz-adv-x="271" 
 />
    <glyph glyph-name=".notdef" horiz-adv-x="271" 
 />
    <glyph glyph-name="space" unicode=" " horiz-adv-x="271" 
 />
    <glyph glyph-name="exclam" unicode="!" horiz-adv-x="143" 
d="M73 55v-32c0 -12 -10 -21 -21 -21h-32c-11 0 -20 9 -20 21v32c0 11 9 20 20 20h32c11 0 21 -9 21 -20zM24 129c-7 0 -14 7 -14 14v541c0 8 7 14 14 14h22c8 0 14 -6 14 -14v-541c0 -7 -6 -14 -14 -14h-22z" />
    <glyph glyph-name="quotedbl" unicode="&#x22;" horiz-adv-x="199" 
d="M79 680c0 8 7 14 15 14h21c8 0 14 -6 14 -14v-29v-28v-22c0 -8 -6 -14 -14 -14h-21c-8 0 -15 6 -15 14v79zM0 680c0 8 6 14 14 14h22c8 0 14 -6 14 -14v-29v-28v-22c0 -8 -7 -14 -15 -14h-21c-8 0 -14 6 -14 14v79z" />
    <glyph glyph-name="numbersign" unicode="#" horiz-adv-x="665" 
d="M60 393v22c0 7 7 14 14 14h118l35 123c0 8 7 14 14 14h22c8 0 14 -6 14 -14l-35 -123h190l35 123c0 8 7 14 14 14h22c8 0 14 -6 14 -14l-35 -123h99c8 0 14 -7 14 -14v-22c0 -8 -6 -14 -14 -14h-113l-53 -190h106c8 0 14 -7 14 -14v-22c0 -8 -6 -14 -14 -14h-120
l-34 -124c0 -7 -6 -14 -14 -14h-22c-7 0 -14 7 -14 14l34 124h-190l-34 -124c0 -7 -6 -14 -14 -14h-22c-7 0 -14 7 -14 14l34 124h-97c-7 0 -14 6 -14 14v22c0 7 7 14 14 14h111l53 190h-104c-7 0 -14 6 -14 14zM228 379l-53 -190h190l53 190h-190z" />
    <glyph glyph-name="dollar" unicode="$" horiz-adv-x="536" 
d="M225 -126c-7 0 -14 7 -14 14v102c-55 8 -103 34 -135 73l-5 5c-5 5 -15 5 -21 0l-8 -8c-6 -7 -15 -7 -21 0l-16 15c-6 5 -6 15 0 21l75 75c5 5 15 5 21 0l16 -17c5 -5 5 -14 0 -21l-9 -8c-4 -3 -5 -8 -4 -12c3 -6 6 -11 10 -15l19 -19c21 -18 48 -31 78 -37v286
c-51 4 -98 24 -134 56c-40 34 -64 84 -64 139s24 104 64 140c36 30 82 51 134 55v82c0 8 7 14 14 14h22c8 0 14 -6 14 -14v-83c41 -6 78 -22 108 -45l3 -3c10 -7 18 -16 26 -25c6 -3 13 -2 18 3l8 9c6 5 15 5 21 0l16 -16c6 -6 6 -16 0 -21l-75 -75c-5 -6 -15 -6 -21 0
l-16 16c-5 6 -5 15 0 21l9 8c6 6 6 16 0 21l-20 21c-22 15 -48 28 -77 33v-285c54 -3 102 -25 138 -56c39 -36 65 -86 65 -140c0 -55 -26 -105 -65 -139c-37 -33 -85 -53 -138 -56v-100c0 -7 -6 -14 -14 -14h-22zM364 283c-26 24 -63 40 -103 43v-286c40 3 77 19 103 43
c30 26 48 61 48 100s-18 74 -48 100zM111 423c26 -23 60 -39 100 -42v285c-40 -4 -74 -20 -100 -43c-29 -26 -46 -61 -46 -100s17 -74 46 -100z" />
    <glyph glyph-name="percent" unicode="%" horiz-adv-x="579" 
d="M6 14c-5 4 -7 13 -3 19l461 660c5 7 14 8 20 4l18 -13c6 -4 8 -13 4 -19l-462 -660c-4 -6 -13 -8 -19 -4zM265 123c0 68 55 123 123 123v0c69 0 124 -55 124 -123v0c0 -68 -55 -124 -124 -124v0c-68 0 -123 56 -123 124zM333 179c-14 -15 -23 -34 -23 -56v0
c0 -21 9 -41 23 -55v0c14 -14 33 -24 55 -24v0c22 0 42 10 55 24v0c15 14 24 34 24 55v0c0 22 -9 41 -24 56v0c-13 13 -33 22 -55 22v0c-22 0 -41 -9 -55 -22zM0 571c0 68 55 123 123 123v0c69 0 124 -55 124 -123v0c0 -68 -55 -124 -124 -124v0c-68 0 -123 56 -123 124z
M68 627c-14 -15 -23 -34 -23 -56v0c0 -21 9 -41 23 -55v0c14 -14 33 -24 55 -24v0c22 0 42 10 55 24v0c15 14 24 34 24 55v0c0 22 -9 41 -24 56v0c-13 13 -33 22 -55 22v0c-22 0 -41 -9 -55 -22z" />
    <glyph glyph-name="quoteright" unicode="&#x2019;" horiz-adv-x="130" 
d="M60 682v-79c0 -8 -7 -14 -14 -14h-22c-8 0 -14 6 -14 14v29c0 8 -2 20 -3 28l-6 22c-1 8 3 14 11 14h34c7 0 14 -6 14 -14z" />
    <glyph glyph-name="parenleft" unicode="(" horiz-adv-x="207" 
d="M57 351c0 -136 79 -348 79 -348c1 -3 0 -6 -3 -6h-1c-3 0 -7 3 -9 5c0 0 -123 207 -123 349c0 138 116 340 116 340c1 3 5 5 8 5h4c3 0 5 -2 4 -5c0 0 -75 -208 -75 -340z" />
    <glyph glyph-name="parenright" unicode=")" horiz-adv-x="207" 
d="M80 351c0 132 -75 340 -75 340c-1 3 1 5 4 5h4c3 0 7 -2 8 -5c0 0 116 -202 116 -340c0 -142 -123 -349 -123 -349c-2 -2 -6 -5 -9 -5h-1c-3 0 -4 3 -3 6c0 0 79 212 79 348z" />
    <glyph glyph-name="asterisk" unicode="*" horiz-adv-x="387" 
d="M303 528c8 0 14 -6 14 -14v-22c0 -8 -6 -14 -14 -14h-84l59 -59c6 -6 6 -15 0 -20l-15 -16c-6 -5 -15 -5 -20 0l-59 60v-98h-50v98l-70 -70l-35 36l69 69h-84c-8 0 -14 6 -14 14v22c0 8 6 14 14 14h84l-59 59c-6 6 -6 15 0 20l15 16c6 5 15 5 20 0l60 -60v98h50v-98
l69 70l35 -36l-69 -69h84z" />
    <glyph glyph-name="plus" unicode="+" horiz-adv-x="387" 
d="M302 299c8 0 15 -6 15 -14v-22c0 -7 -7 -14 -15 -14h-119v-119c0 -8 -6 -14 -14 -14h-22c-7 0 -14 6 -14 14v119h-119c-8 0 -14 7 -14 14v22c0 8 6 14 14 14h119v119c0 8 7 15 14 15h22c8 0 14 -7 14 -15v-119h119z" />
    <glyph glyph-name="comma" unicode="," horiz-adv-x="143" 
d="M73 52v-95c0 -7 -6 -14 -14 -14h-22c-8 0 -15 7 -15 14v29c0 7 0 13 -2 14c-11 0 -20 9 -20 21v31c0 12 9 21 20 21h32c11 0 21 -9 21 -21z" />
    <glyph glyph-name="hyphen" unicode="-" horiz-adv-x="387" 
d="M0 285c0 7 7 14 14 14h289c8 0 14 -7 14 -14v-22c0 -8 -6 -14 -14 -14h-289c-7 0 -14 6 -14 14v22z" />
    <glyph glyph-name="period" unicode="." horiz-adv-x="143" 
d="M73 55v-32c0 -12 -10 -21 -21 -21h-32c-11 0 -20 9 -20 21v32c0 11 9 20 20 20h32c11 0 21 -9 21 -20z" />
    <glyph glyph-name="slash" unicode="/" horiz-adv-x="579" 
d="M6 14c-5 4 -7 13 -3 19l461 660c5 7 14 8 20 4l18 -13c6 -4 8 -13 4 -19l-462 -660c-4 -6 -13 -8 -19 -4z" />
    <glyph glyph-name="zero" unicode="0" horiz-adv-x="568" 
d="M123 133l217 457l45 -21l-217 -458l-45 22v0zM73 76c-45 46 -73 110 -73 180v191c1 70 29 133 75 180c46 45 109 73 180 73c70 0 133 -29 180 -74c45 -47 73 -111 73 -180l-1 -192c0 -70 -29 -133 -74 -180c-46 -45 -111 -73 -180 -73c-70 0 -133 29 -180 75zM48 447
l-1 -191c0 -58 23 -109 61 -146c36 -38 88 -61 145 -62c57 0 109 23 147 61c37 37 60 88 60 146v190c1 58 -22 109 -60 146c-37 39 -89 61 -146 62c-57 0 -108 -23 -146 -61c-37 -36 -60 -88 -60 -145z" />
    <glyph glyph-name="one" unicode="1" horiz-adv-x="191" 
d="M105 50h12c8 0 14 -6 14 -14v-22c0 -8 -6 -14 -14 -14h-103c-7 0 -14 6 -14 14v22c0 8 7 14 14 14h12c8 0 14 6 14 14v570c0 8 -6 14 -14 14h-12c-7 0 -14 7 -14 14v22c0 8 7 14 14 14h62h15v-1v-14v-619c0 -8 7 -14 14 -14z" />
    <glyph glyph-name="two" unicode="2" horiz-adv-x="546" 
d="M486 97v-97h-2v0h-458c-10 0 -19 6 -23 15s-2 20 5 27l349 372v0c28 25 45 60 44 98c0 38 -16 73 -45 98c-30 27 -70 43 -116 43c-41 0 -78 -15 -107 -36l-19 -20c-6 -5 -6 -15 0 -21l8 -8c5 -6 5 -15 1 -20l-16 -16c-6 -6 -16 -6 -21 0l-74 73c-5 5 -6 15 0 21l16 16
c6 4 15 4 21 0l8 -9c4 -5 11 -6 17 -3c8 9 16 18 26 25l3 2c36 29 85 47 137 47c58 0 110 -21 149 -54c40 -36 63 -84 63 -138c1 -54 -23 -103 -62 -136v0l-306 -326h350v47h52z" />
    <glyph glyph-name="three" unicode="3" horiz-adv-x="505" 
d="M382 325c39 -34 63 -83 62 -137c0 -54 -23 -102 -63 -137c-39 -33 -91 -55 -149 -55c-52 1 -101 18 -137 47l-3 3c-10 7 -18 16 -26 24c-6 3 -13 2 -17 -2l-8 -9c-6 -5 -15 -5 -21 0l-16 16c-5 6 -5 15 0 20l74 74c5 5 15 5 21 0l16 -16c4 -6 4 -15 0 -21l-9 -8
c-6 -6 -6 -15 0 -20l19 -21c29 -21 66 -35 107 -36c46 0 86 17 116 43c29 26 45 60 45 98c1 38 -16 73 -44 99c-30 25 -70 42 -116 42l-19 1v26v26l19 2c46 0 86 16 116 42c28 26 45 60 44 98c0 39 -16 73 -45 98c-30 27 -70 43 -116 43c-41 0 -78 -15 -107 -35l-19 -21
c-6 -5 -6 -15 0 -21l9 -8c4 -5 4 -14 0 -20l-16 -16c-6 -6 -16 -6 -21 0l-74 73c-5 5 -5 15 0 21l16 16c6 5 15 5 21 0l8 -9c4 -5 11 -6 17 -3c8 9 16 18 26 25l3 3c36 28 85 46 137 46c58 0 110 -21 149 -54c40 -35 63 -83 63 -137c1 -54 -23 -104 -62 -137
c-14 -13 -30 -23 -47 -32c17 -8 33 -19 47 -31z" />
    <glyph glyph-name="four" unicode="4" horiz-adv-x="610" 
d="M409 216h141v0v-50h-141v-165h-50v165h-334c-9 0 -18 5 -22 13c-4 9 -4 18 1 26l316 478c5 7 13 11 21 11h50v-1h18v-477zM72 216h287v428h-5z" />
    <glyph glyph-name="five" unicode="5" horiz-adv-x="565" 
d="M4 90c-3 3 -4 7 -4 10c0 4 1 8 4 10v0l85 84v0c2 3 6 5 10 5c3 0 7 -2 10 -5l18 -18c2 -3 4 -6 4 -10s-2 -7 -4 -10l-10 -9v0c-4 -4 -6 -9 -6 -14s2 -10 6 -13l22 -24h1c32 -24 76 -41 124 -42v0c54 0 100 20 134 50c33 30 53 70 53 114v1v0c0 44 -19 84 -52 114v0
c-34 30 -81 49 -134 50l-19 1v0h-3c-22 0 -51 -3 -75 -6c-26 -3 -46 -7 -50 -7l-1 -1h-5c-6 0 -12 2 -17 7c-6 5 -9 12 -9 19v2l5 71v1l25 206v0c1 13 13 24 26 24h265v0h53v1v-1h1c3 0 6 -1 9 -3c2 -3 4 -6 4 -10v-70v0v0c0 -3 -2 -7 -4 -9c-3 -2 -6 -4 -9 -4h-25v0
c-8 0 -13 6 -13 13v14c0 8 -6 15 -13 17l-3 1v-1h-241l-23 -182l-2 -39l3 1c4 0 8 1 12 1c27 4 59 7 87 8h3v0l20 -1v0c65 0 124 -24 168 -63v0c44 -38 71 -93 71 -154v-1c0 -61 -27 -115 -72 -155v0c-45 -38 -103 -62 -169 -62h-1c-59 0 -114 20 -155 53l-4 3v0
c-11 8 -20 18 -29 28v1v0c-3 1 -6 2 -10 2c-5 0 -10 -2 -14 -6v0l-9 -10c-2 -2 -6 -4 -10 -4c-3 0 -7 2 -10 4z" />
    <glyph glyph-name="six" unicode="6" horiz-adv-x="467" 
d="M391 253c10 -22 16 -48 16 -76s-6 -53 -17 -76c-10 -23 -26 -41 -44 -56c-39 -30 -88 -45 -142 -44h-1c-41 0 -79 9 -112 25c-4 2 -8 5 -13 8c-4 2 -8 5 -11 7c0 0 -27 18 -37 37l-6 9c-3 5 -6 10 -8 15c-11 23 -16 48 -16 77c0 28 6 54 16 75c10 23 26 42 45 57
c7 6 15 11 23 15c-6 3 -11 6 -17 10c-12 8 -22 17 -29 29c-10 14 -15 32 -17 50v0c0 1 -1 6 -1 15c0 16 2 43 14 74c11 30 32 65 69 95c25 21 56 39 96 53c53 18 120 30 206 30v-50c-92 0 -159 -14 -206 -34c-48 -20 -77 -45 -96 -70c-12 -17 -20 -34 -25 -50
c-6 -20 -8 -38 -8 -48c0 -5 1 -8 1 -9v0h-1c0 -7 2 -13 3 -18c2 -6 4 -9 8 -13c6 -9 15 -16 30 -22c10 -4 21 -7 34 -9c11 -3 24 -4 39 -4h18h1c42 0 80 -8 112 -25c33 -17 60 -42 76 -77zM346 123c8 14 12 33 12 54s-4 40 -12 56c-7 14 -17 28 -31 39c-23 19 -56 31 -94 34
v-1h-21c-6 0 -11 0 -16 1c-26 -3 -50 -9 -70 -20c-25 -11 -42 -30 -53 -52c-8 -16 -12 -34 -12 -55c0 -22 4 -40 11 -55c7 -16 18 -29 32 -40c26 -21 65 -34 110 -34h2c34 -1 64 6 89 19c24 13 42 30 53 54z" />
    <glyph glyph-name="seven" unicode="7" horiz-adv-x="527" 
d="M496 674c4 -8 5 -17 1 -24l-330 -669l-44 22l311 633h-349v-53h-52v53v0v50h441c9 0 17 -5 22 -12z" />
    <glyph glyph-name="eight" unicode="8" horiz-adv-x="488" 
d="M424 253l4 -22v-59v-8l-4 -22c-4 -18 -10 -34 -19 -48c-13 -20 -30 -37 -49 -51c-39 -27 -87 -42 -135 -42c-31 0 -64 2 -98 14v0v0v0v0v0c-32 11 -57 26 -75 44c-19 18 -31 39 -37 61c-5 14 -7 29 -9 44c-2 19 -2 39 -2 59v8v1v0c2 25 9 48 21 67c12 20 28 38 47 52
c12 8 25 16 39 22c-16 8 -29 17 -40 28c-16 16 -27 35 -33 54c-4 13 -6 26 -7 39c-2 17 -2 34 -2 52v6v1v1c1 21 8 42 19 59c10 18 25 33 41 46c34 24 77 38 121 38c34 0 69 -6 99 -19c31 -13 59 -32 77 -60c8 -13 14 -28 17 -44l4 -22v-51l-4 -29c-3 -15 -9 -28 -16 -41
c-12 -17 -27 -33 -44 -45c-7 -5 -14 -9 -22 -13h1c35 -15 66 -37 86 -68c10 -16 17 -33 20 -52zM85 451c5 -8 10 -15 18 -22c11 -9 26 -18 47 -26v0v0c18 -7 38 -9 59 -9h4h7c24 0 50 6 72 16c22 11 40 26 51 44c8 13 12 26 13 41l1 15v25l-1 16c-1 17 -6 31 -13 43
c-8 13 -19 23 -33 32c-28 17 -66 27 -104 27c-26 0 -51 -7 -73 -17c-21 -11 -39 -27 -50 -45c-7 -12 -11 -25 -12 -40v-5c0 -20 0 -38 2 -54s6 -29 12 -41zM382 182v29l-1 19c-1 20 -7 37 -16 51c-9 15 -23 27 -39 37c-30 19 -72 30 -113 31h-5h-3c-30 1 -60 -7 -85 -19
c-26 -13 -46 -31 -59 -53c-8 -14 -14 -30 -15 -47v-7c0 -22 0 -43 2 -61c3 -19 7 -35 15 -49c5 -10 12 -18 22 -26c12 -11 30 -22 54 -31v0v0c25 -9 52 -11 82 -10c28 -1 58 6 84 19c26 12 47 30 61 52c9 14 14 30 15 48zM123 15v0v0v0v0z" />
    <glyph glyph-name="nine" unicode="9" horiz-adv-x="467" 
d="M16 429c-10 22 -16 48 -16 76s6 53 17 76c10 23 26 41 44 56c39 30 88 45 142 44h1c41 0 79 -9 112 -25c4 -2 8 -5 13 -8c4 -2 8 -5 11 -7c0 0 27 -18 37 -37l6 -9c3 -5 6 -10 8 -15c11 -23 16 -48 16 -77c0 -28 -6 -54 -16 -75c-10 -23 -26 -42 -45 -57
c-7 -6 -15 -11 -23 -15c6 -3 11 -6 17 -10c12 -8 22 -17 29 -29c10 -14 15 -32 17 -50v0c0 -1 1 -6 1 -15c0 -16 -2 -43 -14 -74c-11 -30 -32 -65 -69 -95c-25 -21 -56 -39 -96 -53c-53 -18 -120 -30 -206 -30v50c92 0 159 14 206 34c48 20 77 45 96 70c12 17 20 34 25 50
c6 20 8 38 8 48c0 5 -1 8 -1 9v0h1c0 7 -2 13 -3 18c-2 6 -4 9 -8 13c-6 9 -15 16 -30 22c-10 4 -21 7 -34 9c-11 3 -24 4 -39 4h-18h-1c-42 0 -80 8 -112 25c-33 17 -60 42 -76 77zM61 559c-8 -14 -12 -33 -12 -54s4 -40 12 -56c7 -14 17 -28 31 -39c23 -19 56 -31 94 -34
v1h21c6 0 11 0 16 -1c26 3 50 9 70 20c25 11 42 30 53 52c8 16 12 34 12 55c0 22 -4 40 -11 55c-7 16 -18 29 -32 40c-26 21 -65 34 -110 34h-2c-34 1 -64 -6 -89 -19c-24 -13 -42 -30 -53 -54z" />
    <glyph glyph-name="colon" unicode=":" horiz-adv-x="143" 
d="M52 298c11 0 21 -9 21 -20v-32c0 -11 -10 -21 -21 -21h-32c-11 0 -20 10 -20 21v32c0 11 9 20 20 20h32zM52 73c11 0 21 -9 21 -20v-32c0 -11 -10 -21 -21 -21h-32c-11 0 -20 10 -20 21v32c0 11 9 20 20 20h32z" />
    <glyph glyph-name="semicolon" unicode=";" horiz-adv-x="143" 
d="M52 297c11 0 21 -9 21 -20v-32c0 -11 -10 -21 -21 -21h-32c-11 0 -20 10 -20 21v32c0 11 9 20 20 20h32zM73 52v-95c0 -7 -6 -14 -14 -14h-22c-8 0 -15 7 -15 14v29c0 7 0 13 -2 14c-11 0 -20 9 -20 21v31c0 12 9 21 20 21h32c11 0 21 -9 21 -21z" />
    <glyph glyph-name="equal" unicode="=" horiz-adv-x="447" 
d="M0 163v22c0 7 7 14 14 14h349c8 0 14 -7 14 -14v-22c0 -8 -6 -14 -14 -14h-349c-7 0 -14 6 -14 14zM0 323v22c0 7 7 14 14 14h349c8 0 14 -7 14 -14v-22c0 -8 -6 -14 -14 -14h-349c-7 0 -14 6 -14 14z" />
    <glyph glyph-name="at" unicode="@" horiz-adv-x="732" 
d="M485 35c-55 -29 -112 -40 -179 -40c-166 0 -306 120 -306 315c0 209 144 389 368 389c176 0 294 -124 294 -292c0 -152 -85 -241 -179 -241c-41 0 -79 28 -75 89h-5c-35 -59 -82 -89 -142 -89c-59 0 -109 48 -109 128c0 125 100 239 239 239c44 0 82 -10 109 -22
l-35 -183c-15 -75 -3 -112 31 -113c50 0 108 69 108 186c0 146 -88 252 -244 252c-164 0 -302 -131 -302 -337c0 -168 109 -273 259 -273c57 0 110 12 152 35zM430 472c-10 3 -28 7 -51 7c-89 0 -160 -83 -160 -182c0 -44 22 -76 66 -76c59 0 112 75 123 137z" />
    <glyph glyph-name="A" unicode="A" horiz-adv-x="618" 
d="M522 50h12c8 0 14 -6 14 -14v-22c0 -8 -6 -14 -14 -14h-102c-7 0 -14 6 -14 14v22c0 8 7 14 14 14h12c8 0 12 6 10 14l-59 202c-2 8 -10 14 -18 14h-206c-8 0 -16 -8 -19 -15l-58 -201c-2 -8 2 -14 10 -14h12c7 0 14 -6 14 -14v-22c0 -8 -7 -14 -14 -14h-102
c-8 0 -14 6 -14 14v22c0 8 6 14 14 14h12c8 0 16 6 18 14l182 620c2 7 10 13 18 13h60c8 0 16 -6 19 -13l181 -620c2 -8 11 -14 18 -14zM186 330h176c8 0 13 6 11 13l-85 291c-2 7 -9 13 -14 13s-12 -6 -14 -13l-85 -291c-2 -7 3 -13 11 -13z" />
    <glyph glyph-name="B" unicode="B" horiz-adv-x="585" 
d="M418 350c15 -8 29 -18 41 -30c35 -34 56 -81 56 -133s-21 -99 -56 -132c-34 -34 -81 -55 -133 -55v0h-312c-8 0 -14 7 -14 14v22c0 8 6 14 14 14h12c8 0 14 7 14 14v570c0 7 -6 14 -14 14h-12c-8 0 -14 6 -14 14v22c0 7 6 14 14 14h309c52 0 99 -20 133 -54
c35 -33 56 -80 56 -132s-21 -99 -56 -132c-11 -12 -24 -21 -38 -30zM104 648c-8 0 -14 -7 -14 -14v-247c1 -6 6 -11 12 -12v0h221c38 0 73 15 98 40s41 59 41 97s-16 72 -41 97s-60 39 -98 39h-219zM424 90c26 25 41 59 41 97s-15 72 -41 97c-25 25 -60 40 -98 40l-222 1
c-7 0 -13 -6 -14 -13v-248c0 -7 6 -14 14 -14h222c38 0 73 15 98 40z" />
    <glyph glyph-name="C" unicode="C" horiz-adv-x="609" 
d="M50 455c-3 0 0 -140 0 -200s24 -114 63 -154c40 -39 94 -63 154 -63c44 0 84 12 118 34s61 53 79 90v0c4 7 12 10 19 6l19 -9c7 -3 10 -12 7 -19v0c-22 -45 -55 -83 -97 -110s-91 -42 -145 -42c-74 0 -141 30 -189 78s-79 119 -79 193c-1 9 2 195 1 196
c0 74 30 141 78 189s115 78 189 78c54 0 103 -15 145 -42s75 -65 97 -110v0c3 -7 0 -16 -7 -19l-19 -9c-7 -4 -15 -1 -19 6v0c-18 37 -45 68 -79 90s-74 34 -118 34c-60 0 -114 -24 -154 -63c-39 -40 -63 -94 -63 -154z" />
    <glyph glyph-name="D" unicode="D" horiz-adv-x="624" 
d="M492 617c41 -49 62 -115 62 -187l-1 -162c0 -54 -12 -105 -35 -147c-23 -43 -57 -78 -102 -99c-30 -14 -63 -22 -100 -22v0h-302c-8 0 -14 6 -14 14v22c0 8 6 14 14 14h12c8 0 14 6 14 14v569c0 8 -6 14 -14 14h-12c-8 0 -14 7 -14 15v21c0 8 6 14 14 14h12h28h12h14h14
h222c37 0 71 -7 100 -21c30 -14 55 -34 76 -59zM503 268l1 162c0 46 -11 89 -29 124c-19 34 -46 61 -80 77c-23 10 -49 16 -79 16v0v0v0h-212c-8 0 -14 -6 -14 -14v-569c0 -8 6 -14 14 -14h212v0c30 0 56 6 79 17s42 26 58 45c32 39 50 94 50 156z" />
    <glyph glyph-name="E" unicode="E" 
d="M14 696l482 1c8 0 14 -6 14 -14v-21v-29v-11c0 -8 -6 -14 -14 -14h-22c-7 0 -14 6 -14 14v11c0 8 -6 14 -14 14l-342 -1c-8 0 -14 -6 -14 -14v-245c0 -8 6 -15 14 -15h255c8 0 15 7 15 15v11c0 8 6 14 14 14h21c8 0 15 -6 15 -14v-11v-29v-21v-29v-11
c0 -8 -7 -15 -15 -15h-21c-8 0 -14 7 -14 15v11c0 8 -7 14 -15 14h-255c-8 0 -14 -6 -14 -14v-244c0 -8 6 -14 14 -14h342c8 0 14 6 14 14v12c0 8 7 14 14 14h22c8 0 14 -6 14 -14v-12v-28v-22c0 -8 -6 -14 -14 -14h-482c-8 0 -14 6 -14 14v20c0 8 6 15 14 15l12 1
c8 0 14 6 14 14v568c0 8 -6 14 -14 15h-12c-8 0 -14 7 -14 15v20c0 8 6 14 14 14z" />
    <glyph glyph-name="F" unicode="F" 
d="M496 697c8 0 14 -6 14 -14v-21v-29v-11c0 -8 -6 -14 -14 -14h-22c-7 0 -14 6 -14 14v11c0 8 -6 14 -14 14h-330v0h-12c-8 0 -14 -6 -14 -14v-261h267c8 0 15 7 15 15v11c0 8 6 14 14 14h21c8 0 15 -6 15 -14v-11v-29v-21v-29v-11c0 -8 -7 -15 -15 -15h-21
c-8 0 -14 7 -14 15v11c0 8 -7 14 -15 14h-267v-258c0 -8 6 -14 14 -14h12c7 0 14 -6 14 -14v-22c0 -8 -7 -14 -14 -14h-12h-28h-22h-28h-12c-8 0 -14 6 -14 14v22c0 8 6 14 14 14h12c8 0 14 6 14 14v569c0 8 -6 14 -14 14h-12c-8 0 -14 7 -14 15v0v21v0c0 5 2 9 6 12
c1 1 3 1 4 2h3h1h102h330h28h22z" />
    <glyph glyph-name="G" unicode="G" horiz-adv-x="606" 
d="M536 363v-21c0 -2 -1 -3 -1 -4v-85c0 -74 -30 -141 -78 -189c-49 -49 -116 -79 -189 -79v0c-74 0 -141 30 -190 79c-48 48 -78 115 -78 189v202c0 74 30 141 78 189s115 78 189 78c54 0 103 -15 145 -42s75 -65 97 -110v0c3 -7 0 -16 -7 -19l-19 -9c-7 -4 -15 -1 -19 6v0
c-18 37 -45 68 -79 90s-74 34 -118 34c-60 0 -114 -24 -154 -63c-39 -40 -63 -94 -63 -154v-202c0 -60 24 -115 64 -154c39 -39 93 -64 154 -64c60 0 114 25 153 64c40 39 64 94 64 154v74h-151c-8 0 -14 -6 -14 -14v-11c0 -8 -6 -14 -14 -14h-22c-8 0 -14 6 -14 14v11v29
v21c0 8 6 14 14 14h22h28h187c8 0 15 -6 15 -14z" />
    <glyph glyph-name="H" unicode="H" horiz-adv-x="660" 
d="M564 647c-7 0 -14 -6 -14 -14v-569c0 -8 7 -14 14 -14h12c8 0 14 -6 14 -14v-22c0 -8 -6 -14 -14 -14h-101c-8 0 -15 6 -15 14v22c0 8 7 14 15 14h11c8 0 14 6 14 14v256c-2 5 -7 8 -12 8h-385c-6 0 -11 -4 -13 -9v-255c0 -8 6 -14 14 -14h12c7 0 14 -6 14 -14v-22
c0 -8 -7 -14 -14 -14h-102c-8 0 -14 6 -14 14v22c0 8 6 14 14 14h12c8 0 14 6 14 14v569c0 8 -6 14 -14 14h-12c-8 0 -14 7 -14 15v21c0 8 6 14 14 14h102c7 0 14 -6 14 -14v-21c0 -8 -7 -15 -14 -15h-12c-8 0 -14 -6 -14 -14v-246c2 -5 7 -9 13 -9h385c5 0 10 3 12 8v247
c0 8 -6 14 -14 14h-11c-8 0 -15 7 -15 15v21c0 8 7 14 15 14h101c8 0 14 -6 14 -14v-21c0 -8 -6 -15 -14 -15h-12z" />
    <glyph glyph-name="I" unicode="I" horiz-adv-x="200" 
d="M130 35v-21c0 -8 -6 -14 -14 -14h-12h-28h-22h-28h-11c-8 0 -15 6 -15 14v21c0 8 7 15 15 15h11c8 0 14 6 14 14v569c0 8 -6 14 -14 14h-11c-8 0 -15 6 -15 14v22c0 8 7 14 15 14h101c8 0 14 -6 14 -14v-22c0 -8 -6 -14 -14 -14h-12c-7 0 -14 -6 -14 -14v-569
c0 -8 7 -14 14 -14h12c8 0 14 -7 14 -15z" />
    <glyph glyph-name="J" unicode="J" horiz-adv-x="213" 
d="M0 43c11 2 19 5 25 8s10 6 13 11c2 3 4 7 6 12c3 6 5 15 7 27c2 13 3 30 3 51v485c0 8 -7 14 -15 14h-11c-8 0 -14 6 -14 14v22c0 8 6 14 14 14h101c8 0 14 -6 14 -14v-22c0 -8 -6 -14 -14 -14h-11c-8 0 -14 -6 -14 -14v-478s-1 -52 -5 -72c-3 -20 -9 -38 -19 -53
c-7 -10 -16 -18 -26 -24c-13 -8 -38 -16 -54 -19c-8 0 -14 6 -14 14v24c0 8 6 14 14 14z" />
    <glyph glyph-name="K" unicode="K" horiz-adv-x="621" 
d="M512 644l-252 -239c-6 -5 -6 -15 -2 -21l251 -323c5 -6 15 -11 23 -11h5c8 0 14 -7 14 -14v-22c0 -8 -6 -14 -14 -14h-102c-7 0 -14 6 -14 14v22c0 7 7 14 14 14h5c8 0 11 5 6 11l-224 289c-5 6 -13 6 -19 1l-103 -98c-6 -5 -10 -16 -10 -24v-165c0 -8 6 -14 14 -14h11
c8 0 15 -7 15 -14v-22c0 -8 -7 -14 -15 -14h-101c-8 0 -14 6 -14 14v22c0 7 6 14 14 14h11c8 0 15 6 15 14v575c0 8 -7 14 -15 14h-11c-8 0 -14 7 -14 15v21c0 8 6 14 14 14h101c8 0 15 -6 15 -14v-21c0 -8 -7 -15 -15 -15h-11c-8 0 -14 -6 -14 -14v-312c0 -8 4 -10 10 -5
l339 322c6 5 4 9 -4 9c-7 0 -14 7 -14 15v21c0 8 7 14 14 14h102c8 0 14 -6 14 -14v-21c0 -8 -6 -15 -14 -15h-1c-7 0 -18 -4 -24 -9z" />
    <glyph glyph-name="L" unicode="L" 
d="M496 90c8 0 14 -6 14 -14v-62c0 -8 -6 -14 -14 -14h-482c-8 0 -14 6 -14 14v22c0 8 6 14 14 14h12c8 0 14 6 14 14v569c0 8 -6 14 -14 14h-12c-8 0 -14 7 -14 15v21c0 8 6 14 14 14h102c7 0 14 -6 14 -14v-21c0 -8 -7 -15 -14 -15h-12c-8 0 -14 -6 -14 -14v-569
c0 -8 6 -14 14 -14h342c8 0 14 6 14 14v12c0 8 7 14 14 14h22z" />
    <glyph glyph-name="M" unicode="M" horiz-adv-x="812" 
d="M722 647c-11 0 -20 -9 -20 -21v-555c0 -12 9 -21 20 -21s20 -10 20 -22v-7c0 -12 -9 -21 -20 -21h-42h-7h-41s-20 9 -20 21v7c0 12 9 22 20 22s20 9 20 21v504c0 12 -5 13 -10 3l-260 -575c-6 -11 -14 -11 -20 0l-262 575c-6 11 -10 10 -10 -2v-505c0 -12 9 -21 20 -21
s20 -10 20 -22v-7c0 -12 -9 -21 -20 -21h-42h-7h-41s-20 9 -20 21v7c0 12 9 22 20 22s20 9 20 21v555c0 12 -9 21 -20 21s-20 10 -20 21v8c0 12 9 21 21 21h50c12 0 26 -1 26 -2c-1 -1 0 -1 1 -1c0 1 5 -8 11 -18l253 -545c5 -11 14 -11 20 0l251 545c5 10 10 19 10 19l1 -1
c0 0 1 0 1 1s13 2 25 2h50c12 0 22 -9 22 -21v-8c0 -11 -9 -21 -20 -21z" />
    <glyph glyph-name="N" unicode="N" horiz-adv-x="681" 
d="M591 647c-11 0 -20 -9 -20 -21v-555c0 -12 9 -21 20 -21s20 -10 20 -22v-7c0 -12 -9 -21 -20 -21h-41h-8h-21s-6 8 -12 17l-407 581c-7 9 -12 8 -12 -4v-523c0 -12 9 -21 20 -21s20 -10 20 -22v-7c0 -12 -9 -21 -20 -21h-41h-8h-41s-20 9 -20 21v7c0 12 9 22 20 22
s20 9 20 21v555c0 12 -9 21 -20 21s-20 10 -20 21v8c0 12 10 21 21 21h50h22c0 1 6 -7 13 -17l403 -576c6 -9 12 -7 12 4v518c0 12 -9 21 -20 21s-20 10 -20 21v8c0 12 10 21 21 21h88c11 0 21 -9 21 -21v-8c0 -11 -9 -21 -20 -21z" />
    <glyph glyph-name="O" unicode="O" horiz-adv-x="605" 
d="M268 -15c-74 0 -141 30 -190 78v0c-48 49 -78 116 -78 190v0v201c0 74 30 141 78 190v0c48 48 115 78 189 78v0c74 0 141 -30 190 -78v0c48 -49 78 -116 78 -189v0v-202v0c0 -74 -30 -141 -78 -190v0c-48 -48 -116 -78 -189 -78v0v0v0zM113 608c-39 -39 -63 -93 -63 -153
v0v-202c0 -61 24 -115 64 -154v0c39 -40 93 -64 154 -64v0c60 0 114 24 154 64v0c39 39 63 93 63 154v0v201c0 61 -24 115 -64 154v0c-39 40 -94 64 -154 64v0c-60 0 -114 -24 -154 -64v0z" />
    <glyph glyph-name="P" unicode="P" horiz-adv-x="545" 
d="M414 637c38 -38 61 -90 61 -147c0 -58 -23 -110 -61 -147c-37 -38 -89 -61 -147 -61v0l-163 -1c-7 0 -13 -4 -14 -11v-206c0 -8 6 -14 14 -14h12c7 0 14 -6 14 -14v-22c0 -8 -7 -14 -14 -14h-102c-8 0 -14 6 -14 14v22c0 8 6 14 14 14h12c8 0 14 6 14 14v569
c0 8 -6 14 -14 14h-12c-8 0 -14 7 -14 15v21c0 8 6 14 14 14h253c58 0 110 -23 147 -60zM379 378c28 29 46 68 46 112c0 43 -18 83 -46 111c-29 29 -68 46 -112 46h-165c-7 0 -12 -6 -12 -14v-291c1 -5 4 -8 9 -10h168c44 0 83 18 112 46z" />
    <glyph glyph-name="Q" unicode="Q" horiz-adv-x="606" 
d="M536 250c0 -69 -26 -132 -69 -179l51 -52l-35 -35l-53 53c-45 -34 -101 -54 -162 -54v0c-74 0 -141 30 -189 78c-49 48 -79 115 -79 189v202c0 74 30 141 79 189c48 49 115 79 189 79s141 -30 189 -79c48 -48 78 -115 78 -189l1 -202v0zM268 33c47 0 90 14 126 39l-54 54
l35 35l56 -55c34 38 55 89 55 144l-1 202c0 60 -24 114 -63 154c-40 39 -94 64 -154 64s-115 -25 -154 -64c-40 -40 -64 -94 -64 -154v-202c0 -60 25 -114 64 -154c40 -39 94 -63 154 -63z" />
    <glyph glyph-name="R" unicode="R" horiz-adv-x="599" 
d="M515 50c8 0 14 -6 14 -14v-22c0 -8 -6 -14 -14 -14h-101c-8 0 -14 6 -14 14v22c0 8 6 14 14 14h9c8 0 13 6 10 14l-91 207c-3 7 -6 11 -13 11h-22l-203 -1c-7 0 -13 -4 -14 -11v-206c0 -8 6 -14 14 -14h12c7 0 14 -6 14 -14v-22c0 -8 -7 -14 -14 -14h-102
c-8 0 -14 6 -14 14v22c0 8 6 14 14 14h12c8 0 14 6 14 14v569c0 8 -6 14 -14 14h-12c-8 0 -14 7 -14 15v21c0 8 6 14 14 14h293c58 0 110 -23 147 -60c38 -38 61 -90 61 -147c0 -58 -23 -110 -61 -147c-17 -17 -37 -32 -59 -42c-5 -4 -7 -11 -5 -17l95 -220
c3 -8 11 -14 19 -14h11zM99 332h208c44 0 83 18 112 46c28 29 46 68 46 112c0 43 -18 83 -46 111c-29 29 -68 46 -112 46h-205c-7 0 -12 -6 -12 -14v-291c1 -5 4 -8 9 -10z" />
    <glyph glyph-name="S" unicode="S" horiz-adv-x="536" 
d="M108 125c-4 -3 -5 -8 -4 -12c3 -6 6 -11 10 -15l19 -19v0c27 -22 63 -38 103 -40v1h12c45 0 87 17 116 43c30 26 48 61 48 100s-18 74 -48 100c-29 27 -71 44 -116 44v0l-20 1c-58 0 -111 21 -151 56c-40 34 -64 84 -64 139s24 104 64 140c40 34 93 56 152 56v0
c53 0 103 -18 140 -47v0l3 -3c10 -7 18 -16 26 -25c6 -3 13 -2 18 3l8 9c6 5 15 5 21 0l16 -16c6 -6 6 -16 0 -21l-75 -75c-5 -6 -15 -6 -21 0l-16 16c-5 6 -5 15 0 21l9 8c6 6 6 16 0 21l-20 21c-29 21 -67 36 -109 36v0c-47 0 -88 -17 -118 -44c-29 -26 -46 -61 -46 -100
s17 -74 46 -100c30 -26 71 -43 118 -43v0l19 -1c59 0 112 -22 151 -56c39 -36 65 -86 65 -140c0 -55 -26 -105 -65 -139c-37 -33 -86 -54 -140 -56l-1 -1h-11c-69 0 -132 29 -171 76l-5 5c-5 5 -15 5 -21 0l-8 -8c-6 -7 -15 -7 -21 0l-16 15c-6 5 -6 15 0 21l75 75
c5 5 15 5 21 0l16 -17c5 -5 5 -14 0 -21z" />
    <glyph glyph-name="T" unicode="T" horiz-adv-x="660" 
d="M576 696c8 0 14 -6 14 -14v-62c0 -7 -6 -14 -14 -14h-22c-7 0 -14 7 -14 14v12c0 8 -6 14 -14 14h-198c-5 -2 -8 -7 -8 -13v-569c0 -8 6 -14 14 -14h12c8 0 14 -6 14 -14v-22c0 -8 -6 -14 -14 -14h-102c-7 0 -14 6 -14 14v22c0 8 7 14 14 14h12c8 0 14 6 14 14v569
c0 6 -3 11 -8 13h-198c-8 0 -14 -6 -14 -14v-12c0 -7 -6 -14 -14 -14h-22c-8 0 -14 7 -14 14v62c0 8 6 14 14 14h562z" />
    <glyph glyph-name="U" unicode="U" horiz-adv-x="665" 
d="M581 700c8 0 14 -6 14 -14v-22c0 -8 -6 -14 -14 -14h-12c-7 0 -14 -6 -14 -14v-380h1c0 -74 -30 -141 -79 -190c-48 -48 -105 -78 -179 -78v0c-74 0 -131 30 -179 78c-47 47 -77 112 -79 183v0v387c0 8 -6 14 -14 14h-11c-8 0 -15 6 -15 14v22c0 8 7 14 15 14h101
c8 0 14 -6 14 -14v-22c0 -8 -6 -14 -14 -14h-12c-7 0 -14 -6 -14 -14v-380v0c0 -60 25 -115 64 -154c40 -40 84 -64 144 -64s104 24 144 64c38 38 62 90 64 147h-1v387c0 8 -6 14 -14 14h-11c-8 0 -15 6 -15 14v22c0 8 7 14 15 14h11h28h22h28h12z" />
    <glyph glyph-name="V" unicode="V" horiz-adv-x="618" 
d="M452 697h100c8 0 14 -6 14 -14v-21c0 -8 -6 -15 -14 -15h-12c-7 0 -16 -6 -18 -13l-176 -570c-2 -8 -4 -14 -4 -14s-2 -6 -4 -14l-8 -22c-2 -8 -10 -14 -18 -14h-57c-8 0 -16 6 -19 14l-7 22c-2 8 -6 20 -8 28l-176 570c-2 7 -11 13 -18 13h-12c-8 0 -14 7 -14 15v21
c0 8 6 14 14 14h101c7 0 14 -6 14 -14v-21c0 -8 -7 -15 -14 -15h-12c-8 0 -12 -6 -10 -13l176 -570c2 -8 9 -14 14 -14s12 6 14 14l176 570c2 7 -2 13 -10 13h-12c-7 0 -14 7 -14 15v21c0 8 7 14 14 14z" />
    <glyph glyph-name="W" unicode="W" horiz-adv-x="892" 
d="M706 698h102c8 0 14 -7 14 -14v-22c0 -8 -6 -14 -14 -14h-12c-7 0 -16 -6 -18 -14l-182 -620c-2 -8 -7 -14 -11 -14h-67c-8 0 -16 6 -19 14l-84 288c-2 7 -6 7 -8 0l-85 -288c-2 -8 -7 -14 -11 -14h-68c-7 0 -16 6 -18 14l-181 620c-3 8 -11 14 -19 14h-11
c-8 0 -14 6 -14 14v22c0 7 6 14 14 14h101c8 0 15 -7 15 -14v-22c0 -8 -7 -14 -15 -14h-11c-8 0 -13 -6 -10 -14l166 -570c2 -8 8 -14 14 -14c5 0 11 6 14 14l94 323c2 8 2 20 0 28l-64 219c-2 8 -10 14 -18 14h-12c-8 0 -14 6 -14 14v22c0 7 6 14 14 14h102
c7 0 14 -7 14 -14v-22c0 -8 -7 -14 -14 -14h-12c-8 0 -12 -6 -10 -14l39 -134c2 -7 6 -7 8 0l39 134c2 8 -2 14 -10 14h-12c-8 0 -14 6 -14 14v22c0 7 6 14 14 14h102c7 0 14 -7 14 -14v-22c0 -8 -7 -14 -14 -14h-12c-8 0 -16 -6 -18 -14l-64 -219c-2 -8 -2 -20 0 -28
l94 -323c2 -8 9 -14 14 -14s12 6 14 14l166 570c2 8 -2 14 -10 14h-12c-7 0 -14 6 -14 14v22c0 7 7 14 14 14z" />
    <glyph glyph-name="X" unicode="X" horiz-adv-x="604" 
d="M490 644l-186 -280c-5 -6 -5 -17 0 -23l186 -278c5 -7 15 -12 22 -12h8c8 0 14 -7 14 -14v-22c0 -8 -6 -15 -14 -15h-101c-8 0 -15 7 -15 15v22c0 7 7 14 15 14h5c8 0 10 5 6 12l-156 233c-5 6 -12 6 -16 0l-158 -234c-4 -7 -1 -12 6 -12h9c8 0 15 -7 15 -14v-22
c0 -8 -7 -14 -15 -14h-101c-8 0 -14 6 -14 14v22c0 7 6 14 14 14h4c8 0 18 5 22 12l188 279c4 6 4 17 0 23l-188 279c-4 7 -14 12 -22 12h-4c-8 0 -14 6 -14 14v22c0 8 6 14 14 14h101c8 0 15 -6 15 -14v-22c0 -8 -7 -14 -15 -14h-9c-7 0 -10 -5 -6 -12l158 -234
c4 -6 11 -6 16 0l156 235c4 6 2 11 -6 11h-5c-8 0 -15 7 -15 15v21c0 8 7 14 15 14h101c8 0 14 -6 14 -14v-21c0 -8 -6 -15 -14 -15h-8c-7 0 -17 -5 -22 -11z" />
    <glyph glyph-name="Y" unicode="Y" horiz-adv-x="604" 
d="M333 35v-21c0 -8 -6 -14 -14 -14h-101c-8 0 -15 6 -15 14v21c0 8 7 15 15 15h11c8 0 14 6 14 14v278l-203 301c-5 7 -14 12 -22 12h-4c-8 0 -14 6 -14 14v22c0 8 6 14 14 14h101c8 0 15 -6 15 -14v-22c0 -8 -7 -14 -15 -14h-9c-7 0 -10 -5 -6 -12l158 -234
c4 -6 11 -6 16 0l156 235c4 6 2 11 -6 11h-5c-8 0 -15 7 -15 15v21c0 8 7 14 15 14h101c8 0 14 -6 14 -14v-21c0 -8 -6 -15 -14 -15h-8c-7 0 -17 -5 -22 -11l-197 -298v-282c0 -8 7 -14 14 -14h12c8 0 14 -7 14 -15z" />
    <glyph glyph-name="Z" unicode="Z" 
d="M506 654c-1 -2 -423 -593 -423 -593c-5 -6 -3 -11 5 -11h358c8 0 14 6 14 14v11c0 8 6 15 14 15h22c8 0 14 -7 14 -15v-61c0 -8 -6 -14 -14 -14h-482c-8 0 -14 6 -14 14v22c0 5 2 7 4 9s5 6 6 6c0 1 417 587 417 587c5 6 3 11 -5 11h-358c-8 0 -14 -7 -14 -14v-12
c0 -8 -7 -14 -14 -14h-22c-8 0 -14 6 -14 14v12v50c0 7 6 14 14 14h482c8 0 14 -7 14 -14v-22c0 -4 -1 -6 -4 -9z" />
    <glyph glyph-name="bracketleft" unicode="[" horiz-adv-x="200" 
d="M90 -95v-21c0 -8 -6 -14 -14 -14h-12h-28h-22c-7 0 20 0 12 0h-11c-8 0 -15 6 -15 14v50v809v0c0 7 -1 45 -1 50c0 8 7 14 15 14h62c8 0 14 -6 14 -14v-22c0 -8 -6 -14 -14 -14h-12c-7 0 -14 -6 -14 -14v-809c0 -8 7 -14 14 -14h12c8 0 14 -7 14 -15z" />
    <glyph glyph-name="backslash" unicode="\" horiz-adv-x="579" 
d="M503 14l-19 -13c-6 -4 -15 -2 -19 4l-462 660c-4 6 -2 15 4 19l18 13c6 4 15 3 20 -4l461 -660c4 -6 2 -15 -3 -19z" />
    <glyph glyph-name="bracketright" unicode="]" horiz-adv-x="200" 
d="M-1 -95c0 8 6 15 14 15h12c7 0 14 6 14 14v809c0 8 -7 14 -14 14h-12c-8 0 -14 6 -14 14v22c0 8 6 14 14 14h62c8 0 15 -6 15 -14c0 -5 -1 -43 -1 -50v0v-809v-50c0 -8 -7 -14 -15 -14h-11c-8 0 19 0 12 0h-22h-28h-12c-8 0 -14 6 -14 14v21z" />
    <glyph glyph-name="underscore" unicode="_" horiz-adv-x="396" 
d="M0 -60c0 7 7 14 14 14h349c8 0 14 -7 14 -14v-22c0 -8 -6 -14 -14 -14h-349c-7 0 -14 6 -14 14v22z" />
    <glyph glyph-name="quoteleft" unicode="&#x2018;" horiz-adv-x="129" 
d="M0 603v79c0 8 6 14 14 14h22c7 0 14 -6 14 -14v-29c0 -8 1 -20 3 -28l5 -22c2 -8 -3 -14 -11 -14h-33c-8 0 -14 6 -14 14z" />
    <glyph glyph-name="a" unicode="a" horiz-adv-x="472" 
d="M388 50c8 0 14 -7 14 -14v-22c0 -8 -6 -14 -14 -14h-62c-7 0 -14 6 -14 14v44c-14 -16 -32 -30 -52 -39c-22 -11 -48 -17 -75 -17v0h-14c-20 0 -38 0 -55 2c-18 1 -34 4 -49 10c-10 3 -19 8 -28 15c-11 9 -21 21 -27 35c-8 19 -12 41 -12 67c0 23 3 42 9 58
c6 17 16 31 29 41c9 7 18 12 28 15c14 5 28 7 43 8c20 2 41 2 65 2h11h129v46v2v0v1v4c0 5 0 13 -2 20c-2 8 -6 16 -10 22c-4 4 -8 8 -13 11c-8 4 -18 7 -34 7h-105c-19 0 -36 -1 -49 -5c-14 -3 -25 -9 -34 -17c-5 -5 -11 -12 -15 -22v0c-3 -7 -11 -10 -18 -7l-21 10
c-7 3 -10 11 -7 18v0c7 15 16 27 27 38c11 10 23 17 36 22c26 11 53 13 81 13h105c25 0 47 -6 63 -16c17 -11 28 -25 34 -39c5 -10 7 -19 9 -27c2 -11 3 -21 3 -28v-9v-94h-1l-1 -141c0 -8 7 -14 14 -14h12zM312 187l1 7l-1 11h-127h-11c-20 0 -37 0 -53 -1
c-15 -1 -27 -3 -37 -6c-6 -2 -11 -4 -14 -7c-5 -3 -9 -7 -12 -14c-5 -9 -8 -24 -8 -46c0 -18 2 -32 6 -42c3 -9 7 -15 13 -20c3 -3 8 -5 14 -8c7 -3 17 -5 29 -7c17 -2 36 -2 59 -2h4h7c22 0 41 4 57 12c15 7 29 18 40 32c18 23 30 54 33 91z" />
    <glyph glyph-name="b" unicode="b" horiz-adv-x="480" 
d="M349 356c38 -37 61 -89 61 -147c0 -57 -23 -108 -60 -146c-38 -38 -88 -61 -146 -61h-150c-8 0 -14 7 -14 15v619c0 7 -6 14 -14 14h-12c-8 0 -14 6 -14 14v22c0 7 6 14 14 14h62c8 0 14 -7 14 -14v-257c1 -7 7 -11 14 -12h99c57 0 109 -23 146 -61zM314 98
c29 29 46 68 46 111c0 44 -17 83 -46 112s-68 46 -111 46h-103c-5 -1 -9 -5 -10 -11v-289c0 -8 5 -14 12 -15h102c43 0 82 18 110 46z" />
    <glyph glyph-name="c" unicode="c" horiz-adv-x="461" 
d="M62 290c-8 -16 -12 -32 -12 -50v-61c0 -15 3 -30 9 -44c25 -57 89 -87 148 -87h12c23 1 46 5 68 12s46 18 61 37h-1c5 7 13 8 19 3l19 -15c6 -4 7 -12 2 -19v0c-4 -5 -9 -9 -13 -14c-24 -22 -55 -36 -86 -44c-22 -6 -45 -9 -68 -10h-13c-36 0 -73 8 -105 25
c-56 29 -98 83 -102 146v0v8v73v0c2 38 19 74 44 102c41 46 103 69 163 69c5 0 9 1 13 0h4c28 -1 56 -6 83 -16c30 -10 59 -26 80 -52v0c5 -6 4 -14 -2 -19l-19 -14c-5 -5 -13 -4 -18 2v0c-16 21 -43 32 -68 39c-19 6 -40 10 -61 10h-12c-57 0 -119 -27 -145 -81z" />
    <glyph glyph-name="d" unicode="d" horiz-adv-x="480" 
d="M61 356c37 38 89 61 146 61h99c7 1 13 5 14 12v257c0 7 6 14 14 14h62c8 0 14 -7 14 -14v-22c0 -8 -6 -14 -14 -14h-12c-8 0 -14 -7 -14 -14v-619c0 -8 -6 -15 -14 -15h-150c-58 0 -108 23 -146 61c-37 38 -60 89 -60 146c0 58 23 110 61 147zM96 98
c28 -28 67 -46 110 -46h102c7 1 12 7 12 15v289c-1 6 -5 10 -10 11h-103c-43 0 -82 -17 -111 -46s-46 -68 -46 -112c0 -43 17 -82 46 -111z" />
    <glyph glyph-name="e" unicode="e" horiz-adv-x="498" 
d="M427 250c1 -13 1 -26 1 -39c0 -8 -7 -14 -15 -14h-13v-1h-350v-17c0 -15 3 -30 9 -44c25 -57 89 -87 148 -87h12c23 1 46 5 68 12s46 18 61 37h-1c5 7 13 8 19 3l19 -15c6 -4 7 -12 2 -19v0c-4 -5 -8 -9 -13 -14c-24 -22 -55 -36 -86 -44c-22 -6 -45 -9 -68 -10h-13
c-39 0 -79 10 -114 30c-54 31 -93 87 -93 151v71v0c3 49 29 94 68 125c23 18 50 31 78 39c15 4 30 6 46 7c9 1 19 0 28 0c37 0 74 -8 106 -25c55 -29 98 -83 101 -146zM366 247c8 0 11 4 9 14v0c-1 8 -4 16 -7 23c-24 58 -88 87 -148 87c-17 0 -33 0 -49 -3
c-60 -12 -118 -57 -121 -122h186v1h130z" />
    <glyph glyph-name="f" unicode="f" horiz-adv-x="230" 
d="M146 417h2c1 0 3 -1 4 -2c1 0 2 -1 3 -1c2 -2 3 -4 4 -7l1 -2v-2v-22c0 -3 -1 -5 -2 -7c-2 -4 -7 -7 -12 -7h-42h-2c-2 0 -4 -1 -5 -2c0 0 -1 0 -1 -1l-3 -3l-2 -2c0 -1 -1 -2 -1 -2v-2v-2v-289v-2v-3c1 -1 2 -3 3 -4c0 -1 1 -2 2 -2l2 -2c1 0 3 -1 5 -1h2h11h2
s1 -1 2 -1c3 -1 6 -3 8 -6c1 -1 2 -2 2 -3s1 -2 1 -2v-2v-22v-2c-1 -2 -1 -4 -2 -5c-3 -5 -8 -7 -13 -7h-98h-2h-3c-2 1 -5 3 -6 5l-2 2c0 1 -1 2 -1 2v3v2v22c0 7 6 14 14 14h11c6 0 11 3 11 9v3v2v366c0 16 0 31 1 45c0 2 1 4 1 6c1 18 4 33 9 46c0 1 1 3 1 4
c6 16 15 28 26 38c6 5 13 9 20 12c2 1 3 2 5 2c3 2 6 3 10 4c8 3 18 6 28 8c2 0 5 0 7 1c2 0 4 -1 5 -1s1 -1 2 -1c2 -2 3 -5 3 -10v-24c0 -2 0 -3 -1 -5s-2 -5 -4 -6c-1 -1 -2 -1 -3 -2c-1 0 -3 -1 -4 -1h-2c-5 -1 -9 -2 -13 -4c-3 -1 -7 -2 -10 -4c-9 -6 -15 -13 -19 -21
c-10 -19 -7 -41 -10 -46c0 -1 -1 -1 -1 -1v-39v-3c0 -5 4 -9 8 -10c1 -1 2 -1 4 -1h2h42z" />
    <glyph glyph-name="g" unicode="g" horiz-adv-x="518" 
d="M390 326c3 -5 6 -10 8 -15c11 -23 17 -49 17 -78v0c0 -29 -6 -55 -16 -77c-11 -23 -27 -42 -46 -58c-7 -6 -15 -11 -23 -15c6 -3 11 -6 17 -10c12 -8 22 -18 30 -30c11 -16 16 -36 17 -57v0v-1v-1v0c-1 -18 -7 -35 -17 -49c-11 -15 -25 -28 -42 -38
c-19 -11 -43 -20 -69 -25l-23 -4l-32 -2c-35 0 -68 7 -97 18c-28 12 -52 28 -68 51c-10 14 -17 32 -17 50v0v1v0v0c0 7 6 13 14 13h23c8 0 13 -6 13 -14v0c0 -7 3 -14 8 -22c6 -7 14 -16 26 -23c24 -14 59 -24 98 -24v0v0c30 0 57 6 79 15c22 8 38 21 46 32c5 8 7 15 8 22
c0 8 -2 14 -3 19c-2 6 -4 10 -8 14c-6 9 -16 16 -31 22c-10 4 -21 7 -34 9c-12 3 -25 4 -40 4h-19h-1v0c-42 0 -81 8 -114 25s-61 43 -77 78c-11 23 -17 49 -17 78c0 28 6 54 17 77c10 23 26 42 45 57c39 31 89 46 144 46h1v0c42 0 81 -9 114 -26c5 -2 9 -5 14 -8v1v-1
c4 -2 8 -5 11 -7l27 23l11 11l28 29l36 -36l-64 -64zM353 177c8 16 12 34 12 56s-4 40 -12 56c-7 16 -18 29 -32 40c-27 22 -67 35 -113 35v0h-2c-34 0 -65 -7 -90 -20s-43 -31 -54 -55c-8 -15 -12 -34 -12 -55c0 -22 4 -41 12 -57c7 -15 18 -29 32 -40
c24 -19 57 -31 96 -34v1h21c6 0 11 0 17 -1c26 3 51 9 71 20c25 12 43 31 54 54z" />
    <glyph glyph-name="h" unicode="h" horiz-adv-x="510" 
d="M426 50c8 0 14 -7 14 -14v-22c0 -8 -6 -14 -14 -14h-102c-7 0 -14 6 -14 14v22c0 7 7 14 14 14h12c8 0 14 6 14 14l1 143v1c0 35 -7 65 -20 90s-31 43 -54 55c-16 7 -35 11 -56 11c-22 0 -41 -4 -56 -12c-16 -7 -29 -18 -40 -32c-19 -23 -30 -54 -34 -90v-166
c0 -8 6 -14 14 -14h10v0h1c8 0 14 -7 14 -14v-22c0 -8 -6 -14 -14 -14h-1v0h-101c-8 0 -14 6 -14 14v22c0 7 6 14 14 14h11c8 0 15 6 15 14l1 569c0 8 -7 14 -15 14h-11c-8 0 -14 7 -14 14v22c0 8 6 14 14 14h62c8 0 14 -6 14 -14v-325c14 16 32 30 52 40c23 10 49 16 78 16
c28 0 54 -5 77 -16s42 -27 57 -46c31 -38 46 -89 46 -144v-1v-134h-1v-9c0 -8 6 -14 14 -14h12z" />
    <glyph glyph-name="i" unicode="i" horiz-adv-x="200" 
d="M91 403v-338c0 -8 6 -15 14 -15h11c8 0 15 -6 15 -14v-21c0 -8 -7 -15 -15 -15h-102c-8 0 -14 7 -14 15v21c0 8 6 14 14 14h12c7 0 14 7 14 15v288c0 8 -7 14 -14 14h-12c-8 0 -14 7 -14 14v22c0 8 6 14 14 14h12h28h23c7 0 14 -6 14 -14zM92 489c0 -12 -10 -21 -21 -21
h-32c-11 0 -20 9 -20 21v32c0 11 9 20 20 20h32c11 0 21 -9 21 -20v-32z" />
    <glyph glyph-name="j" unicode="j" horiz-adv-x="199" 
d="M-12 -230c11 2 19 5 25 8s10 6 13 11c2 3 4 7 6 12c3 6 5 15 7 27c2 13 3 30 3 51v474c0 8 -7 14 -14 14h-12c-8 0 -14 7 -14 14v22c0 8 6 14 14 14h62c7 0 14 -6 14 -14v-517s-1 -52 -5 -72c-3 -20 -9 -38 -19 -53c-7 -10 -16 -18 -26 -24c-13 -8 -38 -16 -54 -19
c-8 0 -14 6 -14 14v24c0 8 6 14 14 14zM94 521v-32c0 -12 -10 -21 -21 -21h-32c-11 0 -20 9 -20 21v32c0 11 9 20 20 20h32c11 0 21 -9 21 -20z" />
    <glyph glyph-name="k" unicode="k" horiz-adv-x="443" 
d="M290 352l-119 -95c-6 -5 -6 -15 -2 -21l160 -174c5 -6 15 -11 23 -11h5c8 0 14 -7 14 -14v-22c0 -8 -6 -14 -14 -14h-102c-7 0 -14 6 -14 14v22c0 7 7 14 14 14h5c8 0 11 5 6 11l-133 140c-5 6 -13 6 -19 1l-14 -13c-6 -5 -10 -16 -10 -24v-102c0 -8 6 -14 14 -14h11
c8 0 15 -7 15 -14v-22c0 -8 -7 -14 -15 -14h-101c-8 0 -14 6 -14 14v22c0 7 6 14 14 14h11c8 0 15 6 15 14v575c0 8 -7 14 -15 14h-11c-8 0 -14 7 -14 15v21c0 8 6 14 14 14h101c8 0 15 -6 15 -14v-21c0 -8 -7 -15 -15 -15h-11c-8 0 -14 -6 -14 -14v-375c0 -8 4 -10 10 -5
l117 93c6 5 4 9 -4 9c-7 0 -14 7 -14 15v21c0 8 7 14 14 14h102c8 0 14 -6 14 -14v-21c0 -8 -6 -15 -14 -15h-1c-7 0 -18 -4 -24 -9z" />
    <glyph glyph-name="l" unicode="l" horiz-adv-x="200" 
d="M91 739v-674c0 -8 6 -15 14 -15h11c8 0 15 -6 15 -14v-21c0 -8 -7 -15 -15 -15h-102c-8 0 -14 7 -14 15v21c0 8 6 14 14 14h12c7 0 14 7 14 15v624c0 8 -7 14 -14 14h-12c-8 0 -14 7 -14 14v22c0 8 6 14 14 14h12h28h23c7 0 14 -6 14 -14z" />
    <glyph glyph-name="m" unicode="m" horiz-adv-x="820" 
d="M736 50c8 0 14 -7 14 -14v-22c0 -8 -6 -14 -14 -14h-102c-7 0 -14 6 -14 14v22c0 7 7 14 14 14h12c8 0 14 6 14 14l1 142v2c0 35 -7 65 -20 90s-31 43 -54 55c-16 7 -35 11 -56 11c-22 0 -41 -4 -56 -12c-16 -7 -29 -18 -40 -32c-19 -23 -30 -54 -34 -90v-8v-14v-135h-1
v-11c0 -5 3 -9 7 -11c1 0 2 -1 2 -1h3h2h12h1c6 -1 12 -6 13 -12v-2v-22c0 -8 -6 -14 -13 -14h-1h-102h-2c-5 0 -9 3 -11 7c0 1 -1 2 -1 2v3v2v22v4s1 1 1 2c2 4 6 7 11 8h2h12c7 0 13 6 14 14l1 142v2c0 35 -7 65 -20 90s-31 43 -54 55c-16 7 -35 11 -56 11
c-22 0 -41 -4 -56 -12c-16 -7 -29 -18 -40 -32c-19 -23 -30 -54 -34 -90v-8h-1v-161c1 -6 7 -11 14 -11h11c8 0 15 -7 15 -14v-22c0 -8 -7 -14 -15 -14h-101c-8 0 -14 6 -14 14v22c0 7 6 14 14 14h11c8 0 15 6 15 14l1 288c0 8 -6 15 -14 15h-12c-7 0 -14 6 -14 14v21
c0 8 7 15 14 15h62c8 0 14 -7 14 -15v-44c14 16 32 30 52 40c23 10 49 16 78 16c28 0 54 -5 77 -16s42 -27 57 -46c6 -8 12 -16 17 -25l29 31c14 16 32 30 52 40c23 10 49 16 78 16c28 0 54 -5 77 -16s42 -27 57 -46c31 -38 46 -89 46 -144v-135h-1v-9c0 -8 6 -14 14 -14h12
z" />
    <glyph glyph-name="n" unicode="n" horiz-adv-x="510" 
d="M426 50c8 0 14 -7 14 -14v-22c0 -8 -6 -14 -14 -14h-102c-7 0 -14 6 -14 14v22c0 7 7 14 14 14h12c8 0 14 6 14 14l1 142v1v1c0 35 -7 65 -20 90s-31 43 -54 55c-16 7 -35 11 -56 11c-22 0 -41 -4 -56 -12c-16 -7 -29 -18 -40 -32c-19 -23 -30 -54 -34 -90v-8h-1v-161
c1 -6 7 -11 14 -11h11c8 0 15 -7 15 -14v-22c0 -8 -7 -14 -15 -14h-101c-8 0 -14 6 -14 14v22c0 7 6 14 14 14h11c8 0 15 6 15 14l1 288c0 8 -6 15 -14 15h-12c-7 0 -14 6 -14 14v21c0 8 7 15 14 15h12h50c8 0 14 -7 14 -15v-21v-23c14 16 32 30 52 40c23 10 49 16 78 16
c28 0 54 -5 77 -16s42 -27 57 -46c31 -38 46 -89 46 -144v-1v0v-134h-1v-9c0 -8 6 -14 14 -14h12z" />
    <glyph glyph-name="o" unicode="o" horiz-adv-x="503" 
d="M433 179v-10h-1c-5 -106 -111 -171 -207 -171c-35 0 -69 2 -102 15c-125 48 -123 137 -123 237c7 102 103 171 207 171c108 0 220 -56 225 -171h1v-71zM348 98v-1c21 22 35 51 35 82v61c0 82 -86 131 -164 131h-6c-50 0 -97 -18 -128 -49h-1c-21 -22 -34 -51 -34 -82v-61
c0 -31 13 -60 34 -82l1 1c17 -35 92 -50 128 -50h6c29 0 110 13 129 50z" />
    <glyph glyph-name="p" unicode="p" horiz-adv-x="501" 
d="M370 354c38 -37 61 -89 61 -147c0 -57 -23 -109 -61 -146c-37 -38 -89 -61 -147 -61v0h-37v-1h-82c-7 0 -13 -5 -14 -11v-207c0 -8 6 -14 14 -14h11c8 0 15 -6 15 -14v-22c0 -8 -7 -14 -15 -14h-101c-8 0 -14 6 -14 14v22c0 8 6 14 14 14h11c8 0 15 6 15 14v569
c0 8 -7 15 -15 15h-11c-8 0 -14 6 -14 14v21c0 8 6 15 14 15h11h17v0h181c57 0 110 -23 147 -61zM335 96c28 29 46 68 46 111c0 44 -18 83 -46 112c-29 28 -68 46 -112 46h-104h-4h-11c-8 0 -14 -7 -14 -15v-289c1 -6 5 -10 10 -11h123c44 0 83 17 112 46z" />
    <glyph glyph-name="q" unicode="q" horiz-adv-x="500" 
d="M61 62c-38 37 -61 89 -61 147c0 57 23 108 60 146c38 38 88 61 146 61h170c8 0 14 -7 14 -15v-619c0 -7 6 -14 14 -14h12c8 0 14 -6 14 -14v-22c0 -7 -6 -14 -14 -14h-62c-8 0 -14 7 -14 14v257c-1 7 -7 11 -14 12h-119c-57 0 -109 23 -146 61zM96 320
c-29 -29 -46 -68 -46 -111c0 -44 17 -83 46 -112s68 -46 111 -46h123c5 1 9 5 10 11v289c0 8 -5 14 -12 15h-122c-43 0 -82 -18 -110 -46z" />
    <glyph glyph-name="r" unicode="r" horiz-adv-x="327" 
d="M248 412c6 0 9 -6 9 -14v-22c0 -8 -3 -14 -9 -14v0v0h-1c-9 1 -18 2 -28 2c-21 0 -40 -4 -56 -12c-16 -7 -29 -18 -40 -32c-18 -23 -30 -54 -33 -90v-168v-3h1c1 -6 7 -11 14 -11h11c8 0 14 -6 14 -14v-22c0 -7 -6 -14 -14 -14h-1h-11h-29h-21h-39c-8 0 -14 7 -14 14v22
c0 8 6 14 14 14h11c6 0 11 4 13 9l1 295c0 8 -7 15 -14 15h-12c-8 0 -14 6 -14 14v21c0 8 6 15 14 15h12h28h22c7 0 14 -7 14 -15v-21v-23c14 16 31 30 52 40c23 10 49 16 77 16c10 0 20 0 29 -2z" />
    <glyph glyph-name="s" unicode="s" horiz-adv-x="435" 
d="M182 187c-25 0 -49 1 -72 4c-22 3 -43 9 -62 21c-13 7 -24 18 -32 31c-11 17 -16 39 -16 66c0 18 6 36 17 51c10 15 25 27 41 37c33 20 77 31 124 31c36 0 69 -6 97 -17c29 -12 53 -29 68 -51c10 -14 17 -31 18 -49c0 -8 -6 -14 -13 -14h-24c-7 0 -12 5 -14 12
c0 7 -2 14 -7 22c-6 8 -15 16 -27 23c-23 14 -59 24 -99 24c-29 0 -56 -5 -77 -14c-22 -9 -38 -21 -46 -33c-6 -8 -8 -15 -8 -24c0 -15 3 -26 6 -34c4 -8 9 -13 16 -18c5 -3 11 -6 18 -8c10 -3 21 -6 34 -7c11 -1 23 -2 36 -2h23c25 0 49 -1 72 -4c22 -3 43 -9 62 -21
c13 -7 24 -18 32 -31c11 -17 16 -39 16 -66c0 -18 -6 -36 -17 -51c-10 -15 -25 -27 -41 -37c-33 -20 -77 -31 -124 -31c-36 0 -69 6 -97 17c-29 12 -53 29 -68 51c-10 14 -17 31 -18 49c0 8 6 14 13 14h24c7 0 12 -5 14 -12c0 -7 2 -14 7 -22c6 -8 15 -16 27 -23
c23 -14 59 -24 99 -24c29 0 56 5 77 14c22 9 38 21 46 33c6 8 8 15 8 24c0 15 -3 26 -6 34c-4 8 -9 13 -16 18c-5 3 -11 6 -18 8c-10 3 -21 6 -34 7c-11 1 -23 2 -36 2h-23z" />
    <glyph glyph-name="t" unicode="t" horiz-adv-x="228" 
d="M144 46c8 0 14 -6 14 -14v-24c0 -8 -6 -14 -14 -14c-16 3 -41 11 -54 19c-10 6 -19 14 -26 24c-10 15 -16 33 -19 53c-4 20 -5 72 -5 72v189c0 8 -7 15 -14 15h-12c-8 0 -14 6 -14 14v21c0 8 6 15 14 15h12c7 0 14 6 14 14v98c0 8 6 14 14 14h22c7 0 14 -6 14 -14v-98
c0 -8 6 -14 14 -14h41c8 0 15 -7 15 -15v-21c0 -8 -7 -14 -15 -14h-41c-8 0 -14 -7 -14 -15v-196c0 -21 1 -38 3 -51c2 -12 4 -21 7 -27c2 -5 4 -9 6 -12c3 -5 7 -8 13 -11s14 -6 25 -8z" />
    <glyph glyph-name="u" unicode="u" horiz-adv-x="509" 
d="M425 49c8 0 14 -6 14 -14v-21c0 -8 -6 -14 -14 -14h-11h-29h-21c-8 0 -14 6 -14 14v20v23c-15 -17 -32 -30 -53 -40c-22 -11 -49 -17 -77 -17v0c-29 0 -55 6 -77 17c-23 11 -43 27 -58 46c-31 38 -45 89 -45 143v2v144c0 8 -7 15 -15 15h-11c-8 0 -14 6 -14 14v21
c0 8 6 15 14 15h11h29h21c8 0 15 -7 15 -15v-194v0v-2c0 -34 7 -65 19 -89c13 -25 31 -44 55 -55c16 -7 34 -11 56 -12c22 1 40 5 56 12c16 8 29 19 40 33c18 22 30 54 34 90v7v160c0 8 -6 15 -14 15h-11c-8 0 -15 6 -15 14v21c0 8 7 15 15 15h11h29h21c8 0 14 -7 14 -15
v-13h1l-1 -326c0 -8 6 -14 14 -14h11z" />
    <glyph glyph-name="v" unicode="v" horiz-adv-x="466" 
d="M278 422h96c8 0 14 -6 14 -14v-21c0 -8 -6 -15 -14 -15h-12c-7 0 -16 -6 -18 -13l-91 -295c-2 -8 -4 -14 -4 -14s-2 -6 -4 -14l-8 -22c-2 -8 -10 -14 -18 -14h-49c-8 0 -16 6 -19 14l-7 22c-2 8 -6 20 -8 28l-92 293c-2 7 -11 13 -18 13h-12c-8 0 -14 7 -14 15v21
c0 8 6 14 14 14h97c7 0 14 -6 14 -14v-21c0 -8 -7 -15 -14 -15h-12c-8 0 -12 -6 -10 -13l92 -293c2 -8 9 -14 14 -14s12 6 14 14l91 295c2 7 -2 13 -10 13h-12c-7 0 -14 7 -14 15v21c0 8 7 14 14 14z" />
    <glyph glyph-name="w" unicode="w" horiz-adv-x="727" 
d="M543 422h100h2l2 -1c2 0 3 -1 5 -2l2 -2c0 -1 1 -2 1 -3c1 0 1 -1 1 -2c1 -1 1 -3 1 -4v-21c0 -3 -1 -5 -2 -7c-1 -3 -3 -5 -5 -6s-4 -2 -5 -2h-2h-12c-2 0 -3 0 -4 -1h-2c-2 -1 -3 -1 -4 -2c-4 -3 -7 -6 -8 -10l-91 -295c-2 -8 -4 -14 -4 -14s-2 -6 -4 -14l-8 -22
c0 -1 0 -2 -1 -2c-2 -6 -7 -10 -13 -12h-2h-2h-57h-2c-2 0 -3 0 -4 1c-2 0 -4 1 -5 2c-4 3 -7 7 -8 11l-7 22l-5 15l-72 231l-67 -218c-2 -8 -4 -14 -4 -14s-2 -6 -4 -14l-8 -22c-1 -3 -2 -6 -4 -8c-4 -4 -9 -6 -14 -6h-57c-7 0 -13 3 -17 9c-1 1 -2 3 -2 5l-7 22l-5 15
l-95 306c-2 7 -11 13 -18 13h-12h-2h-2c-3 1 -6 3 -8 6c0 0 0 1 -1 2c-1 2 -1 4 -1 7v21v4c2 6 7 10 14 10h101c6 0 13 -5 14 -12v-2v-21c0 -5 -3 -10 -7 -13c-1 -1 -3 -2 -5 -2h-2h-12c-5 0 -9 -3 -10 -6c0 -1 -1 -2 -1 -2v-4c0 -1 1 -1 1 -1l92 -293c2 -8 9 -14 14 -14
c4 0 11 4 13 11c1 1 1 2 1 3l91 295v1c-1 1 -2 1 -2 2l-3 3c-1 1 -2 1 -2 2c-2 1 -3 1 -4 2c-2 1 -4 1 -6 1h-12h-2c-2 0 -4 1 -5 2c-2 1 -4 2 -5 4c0 0 0 1 -1 2c0 1 0 2 -1 3v2v2v21c0 2 0 4 1 6c1 1 1 2 2 3c2 3 6 5 11 5h1c1 1 2 2 4 2h2h100c2 0 4 -1 6 -2s3 -2 5 -3
c0 -1 1 -2 1 -3c1 -1 2 -3 2 -4v-2v-21c0 -4 -1 -7 -3 -9c0 -1 -1 -1 -1 -2c-2 -2 -4 -3 -6 -4h-2h-2c-1 -1 -3 -2 -4 -2h-2h-12h-2c-1 -1 -2 -1 -2 -1c-2 -1 -4 -3 -5 -5c-1 0 -1 -1 -2 -1v-5c0 -1 1 -1 1 -1l92 -293v-3c1 -1 1 -1 1 -2c2 -3 5 -6 8 -8c0 0 1 -1 2 -1h3h1
h2s1 1 2 1c0 1 1 1 1 1c2 1 3 3 4 4c2 2 3 5 4 8l91 295c2 6 -1 12 -8 13h-2h-12c-3 0 -6 1 -8 2c-1 1 -2 2 -3 4c-1 1 -2 3 -3 5v2v2v21v2c0 2 1 4 2 6c2 2 4 3 6 4s4 2 6 2z" />
    <glyph glyph-name="x" unicode="x" horiz-adv-x="422" 
d="M308 358l-95 -144c-5 -6 -5 -17 0 -23l85 -127c5 -7 15 -12 22 -12h8c8 0 14 -7 14 -14v-22c0 -8 -6 -15 -14 -15h-101c-8 0 -15 7 -15 15v22c0 7 7 14 15 14h5c8 0 10 5 6 12l-55 82c-5 6 -12 6 -16 0l-56 -84c-4 -7 -1 -12 6 -12h9c8 0 15 -7 15 -14v-22
c0 -8 -7 -14 -15 -14h-101c-8 0 -14 6 -14 14v22c0 7 6 14 14 14h4c8 0 18 5 22 12l86 129c4 6 4 17 0 23l-97 144c-4 7 -14 12 -22 12h-4c-8 0 -14 6 -14 14v22c0 8 6 14 14 14h101c8 0 15 -6 15 -14v-22c0 -8 -7 -14 -15 -14h-9c-7 0 -10 -5 -6 -12l67 -99
c4 -6 11 -6 16 0l65 99c4 6 2 11 -6 11h-5c-8 0 -15 7 -15 15v21c0 8 7 14 15 14h101c8 0 14 -6 14 -14v-21c0 -8 -6 -15 -14 -15h-8c-7 0 -17 -5 -22 -11z" />
    <glyph glyph-name="y" unicode="y" horiz-adv-x="471" 
d="M401 390l-1 -327v-1v-135c0 -57 -23 -109 -61 -147c-37 -37 -89 -61 -147 -61h-91v0c-7 0 -13 6 -13 14v23c0 7 6 13 13 13v0h91c44 0 83 18 112 47c28 28 46 67 46 111v130c-14 -16 -32 -29 -52 -39c-23 -11 -49 -17 -77 -17v0c-29 0 -55 6 -78 17s-42 26 -57 45
c-31 39 -46 89 -46 144v2v144c0 8 -6 14 -14 14h-11c-8 0 -15 7 -15 14v22c0 8 7 14 15 14h11h29h21c8 0 14 -6 14 -14v-194v-1v-1c0 -34 7 -65 20 -90c13 -24 31 -43 55 -54c15 -8 34 -12 56 -12c21 0 40 4 56 12c15 8 29 18 40 32c18 23 30 54 33 91l1 7v160
c0 8 -6 14 -14 14h-12c-7 0 -14 7 -14 14v22c0 8 7 14 14 14h12h28h22c8 0 14 -6 14 -14v-13v0z" />
    <glyph glyph-name="z" unicode="z" horiz-adv-x="397" 
d="M323 379c-1 -2 -240 -318 -240 -318c-5 -6 -3 -11 5 -11h175c8 0 14 6 14 14v11c0 8 6 15 14 15h22c8 0 14 -7 14 -15v-61c0 -8 -6 -14 -14 -14h-299c-8 0 -14 6 -14 14v22c0 5 2 7 4 9s5 6 6 6c0 1 234 312 234 312c5 6 3 11 -5 11h-175c-8 0 -14 -7 -14 -14v-12
c0 -8 -7 -14 -14 -14h-22c-8 0 -14 6 -14 14v12v50c0 7 6 14 14 14h299c8 0 14 -7 14 -14v-22c0 -4 -1 -6 -4 -9z" />
    <glyph glyph-name="braceleft" unicode="{" horiz-adv-x="302" 
d="M160 -36c-20 8 -36 19 -51 35v0c-7 10 -14 21 -18 33v0c-6 16 -11 34 -13 51v0c-3 24 -3 50 -3 76v0v82v0v0v0v4v0c0 3 -1 7 -2 13v0c-1 9 -6 22 -13 33v0c-5 8 -10 14 -18 20v0c-9 6 -22 12 -42 12v0v54c22 0 36 5 47 12v0c9 6 15 15 20 25v0c2 7 5 14 6 20v0
c2 9 2 18 2 21v0v3v0v0v0v1v0v0v1c0 28 -1 57 -1 83v0c0 30 1 58 5 85v0c4 26 12 51 28 72v0c11 14 25 26 41 34v0c23 11 51 17 83 17v0v-54c-22 0 -39 -4 -51 -8v0c-13 -5 -21 -11 -27 -20v0c-5 -5 -8 -11 -11 -19v0c-4 -11 -8 -23 -10 -38v0c-2 -20 -3 -43 -3 -69v0
c0 -25 1 -52 1 -82v0v-6v0c0 -8 0 -21 -4 -36v0c-4 -15 -9 -32 -23 -50v0c-5 -7 -12 -14 -21 -20v0c19 -17 30 -36 37 -53v0c5 -12 8 -23 9 -33v0c2 -12 2 -19 2 -21v0v0v0v-83v0c0 -28 1 -54 4 -76v0c4 -22 9 -37 18 -49v0c5 -7 12 -13 21 -17v0c13 -6 33 -11 59 -11v0v-54
c-27 0 -52 3 -72 12v0z" />
    <glyph glyph-name="bar" unicode="|" horiz-adv-x="182" 
d="M52 -216c-7 0 -14 7 -14 14v1012c0 8 7 14 14 14h22c8 0 14 -6 14 -14v-1012c0 -7 -6 -14 -14 -14h-22z" />
    <glyph glyph-name="braceright" unicode="}" horiz-adv-x="302" 
d="M160 -36h-88v0c-20 -9 -45 -12 -72 -12v54v0c26 0 46 5 59 11v0c9 4 16 10 21 17v0c9 12 14 27 18 49v0c3 22 4 48 4 76v0v83v0v0v0c0 2 0 9 2 21v0c1 10 4 21 9 33v0c7 17 18 36 37 53v0c-9 6 -16 13 -21 20v0c-14 18 -19 35 -23 50v0c-4 15 -4 28 -4 36v0v6v0
c0 30 1 57 1 82v0c0 26 -1 49 -3 69v0c-2 15 -6 27 -10 38v0c-3 8 -6 14 -11 19v0c-6 9 -14 15 -27 20v0c-12 4 -29 8 -51 8v54v0c32 0 60 -6 83 -17v0c16 -8 30 -20 41 -34v0c16 -21 24 -46 28 -72v0c4 -27 5 -55 5 -85v0c0 -26 -1 -55 -1 -83v-1v0v0v-1v0v0v0v-3v0
c0 -3 0 -12 2 -21v0c1 -6 4 -13 6 -20v0c5 -10 11 -19 20 -25v0c11 -7 25 -12 47 -12v-54v0c-20 0 -33 -6 -42 -12v0c-8 -6 -13 -12 -18 -20v0c-7 -11 -12 -24 -13 -33v0c-1 -6 -2 -10 -2 -13v0v-4v0v0v0v-82v0c0 -26 0 -52 -3 -76v0c-2 -17 -7 -35 -13 -51v0
c-4 -12 -11 -23 -18 -33v0c-15 -16 57 -27 37 -35z" />
    <glyph glyph-name="asciitilde" unicode="~" horiz-adv-x="380" 
d="M269 553l41 -29c-10 -14 -22 -25 -34 -33s-25 -13 -38 -15v0c-13 -3 -26 -3 -38 -1c-11 2 -21 5 -30 8c-14 5 -24 10 -28 13v0c-11 7 -20 11 -28 13s-15 2 -22 1c-6 -2 -12 -4 -18 -7c-6 -4 -11 -8 -16 -12c-9 -9 -14 -18 -15 -19v0v0l-43 26s4 7 12 17c8 9 19 20 35 30
c10 6 22 11 36 14c13 2 27 2 42 -1c14 -4 28 -10 43 -19v0v0v0l2 -2c2 -1 5 -2 9 -4c7 -3 18 -7 28 -8c8 -1 15 -2 22 0c7 1 13 3 20 8c6 4 13 10 20 20zM168 539v0v0v0z" />
    <glyph glyph-name="florin" unicode="&#x192;" horiz-adv-x="230" 
d="M148 417c1 0 3 -1 4 -2c1 0 2 -1 3 -1c2 -2 3 -4 4 -7l1 -2v-24c0 -3 -1 -5 -2 -7c-2 -4 -7 -7 -12 -7h-44c-2 0 -4 -1 -5 -2c0 0 -1 0 -1 -1l-5 -5c0 -1 -1 -2 -1 -2v-293c0 -16 0 -31 -1 -45c0 -2 -1 -4 -1 -6c-1 -18 -4 -33 -9 -46c0 -1 -1 -3 -1 -4
c-6 -16 -15 -28 -26 -38c-6 -5 -13 -9 -20 -12c-2 -1 -3 -2 -5 -2c-3 -2 -6 -3 -10 -4c-8 -3 -18 -6 -28 -8c-2 0 -5 0 -7 -1c-2 0 -4 1 -5 1s-1 1 -2 1c-2 2 -3 5 -3 10v24c0 2 0 3 1 5s2 5 4 6c1 1 2 1 3 2c1 0 3 1 4 1h2c5 1 9 2 13 4c3 1 7 2 10 4c9 6 15 13 19 21
c10 19 7 41 10 46c0 1 1 1 1 1v406c0 16 0 31 1 45c0 2 1 4 1 6c1 18 4 33 9 46c0 1 1 3 1 4c6 16 15 28 26 38c6 5 13 9 20 12c2 1 3 2 5 2c3 2 6 3 10 4c8 3 18 6 28 8c2 0 5 0 7 1c2 0 4 -1 5 -1s1 -1 2 -1c2 -2 3 -5 3 -10v-24c0 -2 0 -3 -1 -5s-2 -5 -4 -6
c-1 -1 -2 -1 -3 -2c-1 0 -3 -1 -4 -1h-2c-5 -1 -9 -2 -13 -4c-3 -1 -7 -2 -10 -4c-9 -6 -15 -13 -19 -21c-10 -19 -7 -41 -10 -46c0 -1 -1 -1 -1 -1v-42c0 -5 4 -9 8 -10c1 -1 2 -1 4 -1h46z" />
    <glyph glyph-name="section" unicode="&#xa7;" horiz-adv-x="485" 
d="M415 185v0v-1v0c0 -28 -5 -54 -16 -77s-27 -42 -46 -58c-7 -5 -14 -10 -22 -15c5 -3 11 -5 16 -9c12 -8 22 -18 30 -30c11 -16 17 -36 17 -57v0v-1v-1v0c0 -18 -7 -35 -17 -50c-10 -14 -25 -27 -41 -37c-20 -12 -44 -20 -69 -25l-24 -4l-31 -2c-36 0 -69 7 -98 18
c-28 12 -52 28 -68 50c-10 15 -16 33 -16 51v0v1v0v0c0 7 5 13 13 13h23c8 0 14 -6 14 -14v0c0 -7 2 -14 7 -22c6 -8 15 -16 26 -23c24 -14 59 -24 98 -24h1v0c29 0 56 6 78 14c22 9 38 22 46 33c5 8 8 15 8 22c0 8 -1 14 -3 19s-4 10 -7 14c-7 9 -17 16 -32 22
c-9 4 -21 7 -33 9c-11 2 -23 3 -35 4c-8 -1 -16 -1 -24 -1h-2v0c-41 0 -80 8 -114 25c-4 3 -9 5 -13 8v0l-1 1c-4 2 -7 4 -11 7l-3 3c-10 8 -20 17 -29 28l-6 6l-5 10c-4 5 -6 10 -9 15c-11 23 -17 49 -17 78v0v0v0c0 29 6 55 17 78s26 42 46 57c7 6 14 11 22 15
c-6 3 -11 6 -16 9c-12 8 -23 19 -31 31c-10 16 -16 36 -16 57v0v1v0v0c0 19 7 36 17 50c10 15 24 27 41 37c20 12 43 21 69 26l23 4l32 1c36 0 69 -6 97 -18c29 -11 52 -28 68 -50c11 -15 17 -32 17 -51v0v0v0v0c0 -8 -6 -13 -13 -13h-24c-7 0 -13 6 -13 13v0
c0 7 -2 15 -8 22c-5 8 -14 16 -26 23c-23 15 -59 24 -98 24v0v0c-30 0 -57 -5 -78 -14c-22 -9 -38 -21 -46 -33c-6 -7 -8 -14 -8 -22c0 -7 1 -13 3 -18c1 -6 4 -10 7 -15c7 -8 17 -16 31 -22c10 -3 21 -6 34 -9c11 -2 22 -3 35 -3c8 0 16 1 24 1h2v0c41 0 80 -9 113 -26
c5 -2 10 -5 14 -8v0h1c3 -2 7 -5 10 -7l3 -3c11 -8 21 -18 29 -28l6 -6l6 -10c3 -5 6 -10 9 -16c11 -22 16 -49 16 -77zM62 241c-7 -16 -12 -34 -12 -56s5 -40 12 -56c8 -15 19 -29 32 -40c24 -19 58 -31 96 -34v1h22c5 0 11 0 16 -1c27 2 51 9 71 20c25 12 43 30 55 54
c7 16 11 34 11 56c0 21 -4 40 -11 55c-8 16 -19 29 -33 40c-24 19 -57 31 -95 34v0h-22h-16c-27 -2 -51 -8 -72 -19c-24 -13 -43 -31 -54 -54z" />
    <glyph glyph-name="quotesingle" unicode="'" horiz-adv-x="120" 
d="M0 680c0 8 6 14 14 14h22c8 0 14 -6 14 -14v-29v-28v-22c0 -8 -7 -14 -15 -14h-21c-8 0 -14 6 -14 14v79z" />
    <glyph glyph-name="quotedblleft" unicode="&#x201c;" horiz-adv-x="209" 
d="M79 603v79c0 8 7 14 14 14h22c8 0 14 -6 14 -14v-29c0 -8 2 -20 3 -28l6 -22c1 -8 -3 -14 -11 -14h-34c-7 0 -14 6 -14 14zM0 603v79c0 8 6 14 14 14h22c7 0 14 -6 14 -14v-29c0 -8 1 -20 3 -28l5 -22c2 -8 -3 -14 -11 -14h-33c-8 0 -14 6 -14 14z" />
    <glyph glyph-name="fi" unicode="&#xfb01;" horiz-adv-x="356" 
d="M272 54c8 0 14 -6 14 -14v-21c0 -8 -6 -15 -14 -15h-101c-8 0 -15 7 -15 15v21c0 8 7 14 15 14h11c8 0 14 7 14 15v288c0 8 -6 14 -14 14h-11h-3h-64c-8 0 -14 -6 -14 -14v-288c0 -8 6 -15 14 -15h12c7 0 14 -6 14 -14v-21c0 -8 -7 -15 -14 -15h-102c-8 0 -14 7 -14 15
v21c0 8 6 14 14 14h12c8 0 14 7 14 15v304v0v61s1 52 5 72c3 20 9 38 19 53c7 10 16 18 26 24c13 8 34 14 57 17c8 0 11 -4 11 -12v-24c0 -8 -6 -14 -14 -14c-11 -2 -19 -5 -25 -8s-10 -6 -13 -11c-2 -3 -4 -7 -6 -12c-3 -6 -4 -13 -6 -25c-2 -13 -2 -19 -2 -19l-2 -39
c0 -8 6 -15 14 -15h91h2h13h22c8 0 14 -6 14 -14v-338c0 -8 7 -15 14 -15h12z" />
    <glyph glyph-name="fl" unicode="&#xfb02;" horiz-adv-x="357" 
d="M272 54c8 0 15 -6 15 -14v-21c0 -8 -7 -15 -15 -15h-101c-8 0 -14 7 -14 15v21c0 8 6 14 14 14h12c7 0 14 7 14 15v618c0 8 -7 14 -14 14h-12h-4h-23c-11 -2 -19 -5 -25 -8s-10 -6 -13 -11c-2 -3 -4 -7 -6 -12c-3 -6 -4 -14 -6 -26c-2 -13 -2 -19 -2 -19l-2 -188
c0 -8 6 -14 14 -14h42c8 0 15 -6 15 -14v-22c0 -8 -7 -14 -15 -14h-42c-8 0 -14 -6 -14 -14v-290c0 -8 6 -15 14 -15h12c7 0 14 -6 14 -14v-21c0 -8 -7 -15 -14 -15h-102c-8 0 -14 7 -14 15v21c0 8 6 14 14 14h12c8 0 14 7 14 15v374v142s1 52 5 72c3 20 9 38 19 53
c7 10 16 18 26 24c13 8 34 13 57 17c4 0 12 0 20 -1c1 1 3 1 4 1h62c7 0 14 -6 14 -14v-668c0 -8 6 -15 14 -15h11z" />
    <glyph glyph-name="endash" unicode="&#x2013;" horiz-adv-x="447" 
d="M0 285c0 7 7 14 14 14h349c8 0 14 -7 14 -14v-22c0 -8 -6 -14 -14 -14h-349c-7 0 -14 6 -14 14v22z" />
    <glyph glyph-name="dagger" unicode="&#x2020;" horiz-adv-x="387" 
d="M0 373v22c0 7 7 14 14 14h119v321c0 8 7 14 14 14h22c8 0 14 -6 14 -14v-321h120c8 0 14 -7 14 -14v-22c0 -8 -6 -14 -14 -14h-120v-641c0 -7 -6 -14 -14 -14h-22c-7 0 -14 7 -14 14v641h-119c-7 0 -14 6 -14 14z" />
    <glyph glyph-name="daggerdbl" unicode="&#x2021;" horiz-adv-x="387" 
d="M0 13v22c0 7 7 14 14 14h119v310h-119c-7 0 -14 6 -14 14v22c0 7 7 14 14 14h119v321c0 8 7 14 14 14h22c8 0 14 -6 14 -14v-321h120c8 0 14 -7 14 -14v-22c0 -8 -6 -14 -14 -14h-120v-310h120c8 0 14 -7 14 -14v-22c0 -8 -6 -14 -14 -14h-120v-281c0 -7 -6 -14 -14 -14
h-22c-7 0 -14 7 -14 14v281h-119c-7 0 -14 6 -14 14z" />
    <glyph glyph-name="paragraph" unicode="&#xb6;" horiz-adv-x="633" 
d="M60 642c39 43 97 55 97 55c7 2 27 4 27 5h7h10s13 1 20 1h173h14h14h127c7 0 14 -7 14 -14v-22c0 -8 -6 -14 -14 -14h-27c-8 0 -14 -7 -14 -15v-621c0 -7 -7 -14 -15 -14h-21c-8 0 -14 7 -14 14v621c0 8 -7 15 -15 15h-18c-8 0 -14 -7 -14 -15v-621c0 -7 -7 -14 -14 -14
h-22c-8 0 -14 7 -14 14v256c0 7 -7 14 -14 14h-88h-14h-15h-9h-14v0c-57 0 -109 24 -147 61c-37 38 -60 90 -60 147s25 107 60 147z" />
    <glyph glyph-name="bullet" unicode="&#x2022;" horiz-adv-x="272" 
d="M0 311c0 56 45 101 101 101v0c56 0 101 -45 101 -101v0c0 -55 -45 -101 -101 -101v0c-56 0 -101 46 -101 101z" />
    <glyph glyph-name="quotesinglbase" unicode="&#x201a;" horiz-adv-x="129" 
d="M59 43v-79c0 -8 -6 -14 -14 -14h-22c-7 0 -14 6 -14 14v29c0 8 -1 20 -3 28l-5 22c-2 8 3 14 11 14h33c8 0 14 -6 14 -14z" />
    <glyph glyph-name="quotedblbase" unicode="&#x201e;" horiz-adv-x="209" 
d="M60 -29c0 -8 -7 -14 -14 -14h-22c-8 0 -14 6 -14 14v29c0 8 -2 20 -3 28l-6 22c-1 8 3 14 11 14h34c7 0 14 -6 14 -14v-79zM139 -29c0 -8 -6 -14 -14 -14h-22c-7 0 -14 6 -14 14v29c0 8 -1 20 -3 28l-5 22c-2 8 3 14 11 14h33c8 0 14 -6 14 -14v-79z" />
    <glyph glyph-name="quotedblright" unicode="&#x201d;" horiz-adv-x="209" 
d="M60 682v-79c0 -8 -7 -14 -14 -14h-22c-8 0 -14 6 -14 14v29c0 8 -2 20 -3 28l-6 22c-1 8 3 14 11 14h34c7 0 14 -6 14 -14zM139 682v-79c0 -8 -6 -14 -14 -14h-22c-7 0 -14 6 -14 14v29c0 8 -1 20 -3 28l-5 22c-2 8 3 14 11 14h33c8 0 14 -6 14 -14z" />
    <glyph glyph-name="ellipsis" unicode="&#x2026;" horiz-adv-x="389" 
d="M73 55v-32c0 -12 -10 -21 -21 -21h-32c-11 0 -20 9 -20 21v32c0 11 9 20 20 20h32c11 0 21 -9 21 -20zM196 55v-32c0 -12 -10 -21 -21 -21h-32c-11 0 -20 9 -20 21v32c0 11 9 20 20 20h32c11 0 21 -9 21 -20zM319 55v-32c0 -12 -10 -21 -21 -21h-32c-11 0 -20 9 -20 21
v32c0 11 9 20 20 20h32c11 0 21 -9 21 -20z" />
    <glyph glyph-name="perthousand" unicode="&#x2030;" horiz-adv-x="882" 
d="M6 14c-5 4 -7 13 -3 19l461 660c5 7 14 8 20 4l18 -13c6 -4 8 -13 4 -19l-462 -660c-4 -6 -13 -8 -19 -4zM265 123c0 68 55 123 123 123v0c69 0 124 -55 124 -123v0c0 -68 -55 -124 -124 -124v0c-68 0 -123 56 -123 124zM333 179c-14 -15 -23 -34 -23 -56v0
c0 -21 9 -41 23 -55v0c14 -14 33 -24 55 -24v0c22 0 42 10 55 24v0c15 14 24 34 24 55v0c0 22 -9 41 -24 56v0c-13 13 -33 22 -55 22v0c-22 0 -41 -9 -55 -22zM0 571c0 68 55 123 123 123v0c69 0 124 -55 124 -123v0c0 -68 -55 -124 -124 -124v0c-68 0 -123 56 -123 124z
M68 627c-14 -15 -23 -34 -23 -56v0c0 -21 9 -41 23 -55v0c14 -14 33 -24 55 -24v0c22 0 42 10 55 24v0c15 14 24 34 24 55v0c0 22 -9 41 -24 56v0c-13 13 -33 22 -55 22v0c-22 0 -41 -9 -55 -22zM565 123c0 68 55 123 123 123v0c69 0 124 -55 124 -123v0
c0 -68 -55 -124 -124 -124v0c-68 0 -123 56 -123 124zM633 179c-14 -15 -23 -34 -23 -56v0c0 -21 9 -41 23 -55v0c14 -14 33 -24 55 -24v0c22 0 42 10 55 24v0c15 14 24 34 24 55v0c0 22 -9 41 -24 56v0c-13 13 -33 22 -55 22v0c-22 0 -41 -9 -55 -22z" />
    <glyph glyph-name="grave" unicode="`" horiz-adv-x="843" 
 />
    <glyph glyph-name="acute" unicode="&#xb4;" horiz-adv-x="228" 
d="M3 475l54 67c4 6 9 11 17 11h77c7 0 9 -8 3 -13l-91 -68c-6 -4 -11 -8 -18 -8h-38c-7 0 -9 5 -4 11z" />
    <glyph glyph-name="circumflex" unicode="&#x2c6;" horiz-adv-x="298" 
d="M221 457c5 0 7 3 7 6c0 2 -1 5 -4 7l-68 71c-7 4 -14 8 -22 8h-12h-27c-9 0 -15 -4 -23 -8l-68 -71c-2 -2 -4 -5 -4 -7c0 -3 3 -6 8 -6h43c8 0 13 5 18 11l38 37s6 6 7 6c3 0 8 -6 8 -6l38 -37c5 -6 10 -11 18 -11h43zM221 457c5 0 7 3 7 6c0 2 -1 5 -4 7l-68 71
c-7 4 -14 8 -22 8h-12h-27c-9 0 -15 -4 -23 -8l-68 -71c-2 -2 -4 -5 -4 -7c0 -3 3 -6 8 -6h43c8 0 13 5 18 11l38 37s6 6 7 6c3 0 8 -6 8 -6l38 -37c5 -6 10 -11 18 -11h43z" />
    <glyph glyph-name="tilde" unicode="&#x2dc;" horiz-adv-x="380" 
d="M239 552l41 -29c-10 -14 -22 -25 -34 -33s-25 -13 -38 -15v0c-13 -3 -26 -3 -38 -1c-11 2 -21 5 -30 8c-14 5 -24 10 -28 13v0c-11 7 -20 11 -28 13s-15 2 -22 1c-6 -2 -12 -4 -18 -7c-6 -4 -11 -8 -16 -12c-9 -9 -14 -18 -15 -19v0v0l-43 26s4 7 12 17c8 9 19 20 35 30
c10 6 22 11 36 14c13 2 27 2 42 -1c14 -4 28 -10 43 -19v0v0v0l2 -2c2 -1 5 -2 9 -4c7 -3 18 -7 28 -8c8 -1 15 -2 22 0c7 1 13 3 20 8c6 4 13 10 20 20zM138 538v0v0v0z" />
    <glyph glyph-name="macron" unicode="&#xaf;" horiz-adv-x="447" 
d="M0 505c0 7 7 14 14 14h349c8 0 14 -7 14 -14v-22c0 -8 -6 -14 -14 -14h-349c-7 0 -14 6 -14 14v22z" />
    <glyph glyph-name="dotaccent" unicode="&#x2d9;" horiz-adv-x="143" 
d="M69 518v-32c0 -12 -10 -21 -21 -21h-32c-11 0 -20 9 -20 21v32c0 11 9 20 20 20h32c11 0 21 -9 21 -20z" />
    <glyph glyph-name="dieresis" unicode="&#xa8;" horiz-adv-x="313" 
d="M73 521v-32c0 -12 -10 -21 -21 -21h-32c-11 0 -20 9 -20 21v32c0 11 9 20 20 20h32c11 0 21 -9 21 -20zM243 521v-32c0 -12 -10 -21 -21 -21h-32c-11 0 -20 9 -20 21v32c0 11 9 20 20 20h32c11 0 21 -9 21 -20z" />
    <glyph glyph-name="ring" unicode="&#x2da;" horiz-adv-x="272" 
d="M0 563c0 56 45 101 101 101v0c56 0 101 -45 101 -101v0c0 -55 -45 -101 -101 -101v0c-56 0 -101 46 -101 101zM56 609c-12 -12 -19 -28 -19 -46v0c0 -17 7 -33 19 -45v0c11 -11 27 -19 45 -19v0c18 0 34 8 45 19v0c12 12 19 28 19 45v0c0 18 -7 34 -19 46v0
c-11 11 -27 18 -45 18v0c-18 0 -34 -7 -45 -18z" />
    <glyph glyph-name="hungarumlaut" unicode="&#x2dd;" horiz-adv-x="356" 
d="M3 495l54 67c4 6 9 11 17 11h77c7 0 9 -8 3 -13l-91 -68c-6 -4 -11 -8 -18 -8h-38c-7 0 -9 5 -4 11zM131 495l54 67c4 6 9 11 17 11h77c7 0 9 -8 3 -13l-91 -68c-6 -4 -11 -8 -18 -8h-38c-7 0 -9 5 -4 11z" />
    <glyph glyph-name="ogonek" unicode="&#x2db;" horiz-adv-x="214" 
d="M40 0l46 -2c-12 -17 -32 -51 -32 -81c0 -27 17 -42 40 -42c16 0 28 4 39 9l11 -39c-19 -14 -47 -20 -69 -20c-43 0 -75 25 -75 71c0 42 25 81 40 104z" />
    <glyph glyph-name="caron" unicode="&#x2c7;" horiz-adv-x="336" 
d="M236 549c8 0 10 -8 3 -13l-64 -68c-7 -4 -14 -8 -23 -8h-12h-37h-11c-10 0 -16 4 -24 8l-64 68c-6 5 -4 13 4 13h49c8 0 13 -5 18 -11l39 -35s6 -6 8 -6c3 0 8 6 8 6l39 35c5 6 10 11 18 11h49z" />
    <glyph glyph-name="emdash" unicode="&#x2014;" horiz-adv-x="626" 
d="M0 285c0 7 7 14 14 14h528c8 0 14 -7 14 -14v-22c0 -8 -6 -14 -14 -14h-528c-7 0 -14 6 -14 14v22z" />
    <glyph glyph-name="Lslash" unicode="&#x141;" 
d="M496 90c8 0 14 -6 14 -14v-62c0 -8 -6 -14 -14 -14h-482c-8 0 -14 6 -14 14v22c0 8 6 14 14 14h12c8 0 14 6 14 14v183l-65 -44c-6 -4 -15 -3 -20 4l-12 18c-4 6 -3 15 3 19l94 64v325c0 8 -6 14 -14 14h-12c-8 0 -14 7 -14 15v21c0 8 6 14 14 14h102c7 0 14 -6 14 -14
v-21c0 -8 -7 -15 -14 -15h-12c-8 0 -14 -6 -14 -14v-290l92 63c7 4 16 2 20 -4l12 -18c5 -6 3 -15 -3 -19l-121 -83v-218c0 -8 6 -14 14 -14h342c8 0 14 6 14 14v12c0 8 7 14 14 14h22z" />
    <glyph glyph-name="ordmasculine" unicode="&#xba;" horiz-adv-x="331" 
d="M261 479v-6h-1c-3 -63 -66 -102 -124 -102c-21 0 -41 1 -61 9c-75 29 -74 82 -74 142c4 61 62 103 124 103c65 0 132 -34 135 -103h1v-43zM210 431v-1c12 13 21 31 21 49v37c0 49 -52 79 -99 79h-3c-30 0 -58 -11 -77 -30h-1c-12 -13 -20 -30 -20 -49v-37
c0 -18 8 -36 20 -49l1 1c10 -21 55 -30 77 -30h3c18 0 66 8 78 30z" />
    <glyph glyph-name="lslash" unicode="&#x142;" horiz-adv-x="200" 
d="M90 283v-218c0 -8 6 -15 14 -15h11c8 0 15 -6 15 -14v-21c0 -8 -7 -15 -15 -15h-101c-8 0 -14 7 -14 15v21c0 8 6 14 14 14h12c7 0 14 7 14 15v184l-67 -46c-6 -4 -15 -3 -20 4l-12 18c-4 6 -3 15 3 19l96 66v379c0 8 -7 14 -14 14h-12c-8 0 -14 7 -14 14v22
c0 8 6 14 14 14h62c7 0 14 -6 14 -14v-395l90 62c7 4 16 2 20 -4l12 -18c5 -6 3 -15 -3 -19z" />
    <glyph glyph-name="germandbls" unicode="&#xdf;" horiz-adv-x="466" 
d="M0 3v438c0 104 30 172 68 210c35 30 82 46 139 46c88 0 165 -54 165 -156c0 -31 -9 -58 -18 -73c-47 -21 -75 -51 -75 -89c0 -36 21 -60 53 -94c38 -38 77 -78 77 -145c0 -87 -63 -147 -167 -147c-33 0 -65 4 -93 14c4 18 7 30 11 47c24 -9 51 -15 75 -15
c72 0 108 44 108 93c0 45 -20 77 -56 110c-32 33 -74 80 -74 125c0 48 31 89 84 115c9 16 13 33 13 50c0 74 -46 119 -114 119c-82 0 -129 -58 -129 -206v-442h-67z" />
    <glyph glyph-name="trademark" unicode="&#x2122;" horiz-adv-x="818" 
d="M386 617c46 0 88 -19 118 -49s49 -72 49 -118s-19 -88 -49 -118s-72 -49 -118 -49h-46c-4 -1 -7 -5 -8 -10v-81c0 -8 7 -15 15 -15h11c8 0 14 -6 14 -14v-21c0 -8 -6 -15 -14 -15h-11h-29h-21h-29h-11c-8 0 -14 7 -14 15v21c0 8 6 14 14 14h11c8 0 14 7 14 15v63v3v12v28
v22v28v12v3v191c0 7 -6 14 -14 14h-11c-8 0 -14 6 -14 14v22c0 7 6 14 14 14h101c2 0 3 -1 4 -1h24zM469 368c21 21 34 50 34 82c0 33 -13 62 -34 83c-22 21 -51 34 -83 34h-44c-5 -2 -10 -7 -10 -13v-209c2 -6 6 -11 12 -11h12v-1h30c32 0 61 13 83 35zM638 637
c68 -68 110 -161 110 -265c0 -103 -42 -196 -110 -264c-67 -68 -161 -109 -264 -109v0c-103 0 -197 41 -264 109c-68 68 -110 161 -110 264c0 104 42 197 110 265c67 67 161 109 264 109s197 -42 264 -109zM603 143c59 59 95 140 95 229c0 90 -36 171 -95 229
c-59 59 -140 95 -229 95c-90 0 -170 -36 -229 -95c-59 -58 -95 -139 -95 -229c0 -89 36 -170 95 -229c59 -58 139 -94 229 -94c89 0 170 36 229 94z" />
    <glyph glyph-name="plusminus" unicode="&#xb1;" horiz-adv-x="387" 
d="M302 369c8 0 15 -6 15 -14v-22c0 -7 -7 -14 -15 -14h-119v-119c0 -8 -6 -14 -14 -14h-22c-7 0 -14 6 -14 14v119h-119c-8 0 -14 7 -14 14v22c0 8 6 14 14 14h119v119c0 8 7 15 14 15h22c8 0 14 -7 14 -15v-119h119zM0 105v-22c0 -8 7 -14 14 -14h289c8 0 14 6 14 14v22
c0 7 -6 14 -14 14h-289c-7 0 -14 -7 -14 -14z" />
    <glyph glyph-name="divide" unicode="&#xf7;" horiz-adv-x="387" 
d="M0 285v-22c0 -8 7 -14 14 -14h289c8 0 14 6 14 14v22c0 7 -6 14 -14 14h-289c-7 0 -14 -7 -14 -14zM172 418c11 0 21 -9 21 -20v-32c0 -11 -10 -21 -21 -21h-32c-11 0 -20 10 -20 21v32c0 11 9 20 20 20h32zM172 193c11 0 21 -9 21 -20v-32c0 -11 -10 -21 -21 -21h-32
c-11 0 -20 10 -20 21v32c0 11 9 20 20 20h32z" />
    <glyph glyph-name="degree" unicode="&#xb0;" horiz-adv-x="237" 
d="M0 613c0 46 38 84 84 84v0c46 0 83 -38 83 -84v0c0 -46 -37 -83 -83 -83v0c-46 0 -84 37 -84 83zM44 653c-10 -10 -17 -24 -17 -40v0c0 -15 7 -29 17 -39v0c10 -11 24 -17 40 -17v0c15 0 29 6 39 17v0c11 10 17 24 17 39v0c0 16 -6 30 -17 40v0c-10 10 -24 17 -39 17v0
c-16 0 -30 -7 -40 -17z" />
    <glyph glyph-name="registered" unicode="&#xae;" horiz-adv-x="818" 
d="M638 637c68 -68 110 -161 110 -265c0 -103 -42 -196 -110 -264c-67 -68 -161 -109 -264 -109v0c-103 0 -197 41 -264 109c-68 68 -110 161 -110 264c0 104 42 197 110 265c67 67 161 109 264 109s197 -42 264 -109zM603 143c59 59 95 140 95 229c0 90 -36 171 -95 229
c-59 59 -140 95 -229 95c-90 0 -170 -36 -229 -95c-59 -58 -95 -139 -95 -229c0 -89 36 -170 95 -229c59 -58 139 -94 229 -94c89 0 170 36 229 94zM537 186c8 0 14 -6 14 -14v-22c0 -8 -6 -14 -14 -14h-101c-8 0 -14 6 -14 14v22c0 8 6 14 14 14h9c8 0 13 6 10 14l-40 83
c-3 7 -6 11 -13 11h-8c-10 -2 -20 -3 -30 -3h-46c-4 -1 -7 -5 -8 -10v-82c0 -8 6 -14 14 -14h12c8 0 14 -6 14 -14v-22c0 -8 -6 -14 -14 -14h-12h-28h-22h-28h-12c-7 0 -14 6 -14 14v22c0 8 7 14 14 14h12c8 0 14 6 14 14v64v3v11v29v21v29v11v4v190c0 8 -6 14 -14 14h-12
c-7 0 -14 7 -14 15v21c0 8 7 14 14 14h102h4h24c46 0 88 -19 118 -49s49 -72 49 -118s-19 -88 -49 -118c-6 -6 -12 -11 -19 -16c-3 -4 -4 -9 -2 -14l46 -110c3 -8 11 -14 19 -14h11zM334 341h30c32 0 61 13 82 34c22 21 35 51 35 83s-13 61 -35 82c-21 22 -50 35 -82 35h-44
c-6 -2 -10 -7 -10 -14v-209c1 -6 6 -10 12 -10h12v-1z" />
    <glyph glyph-name="multiply" unicode="&#xd7;" horiz-adv-x="319" 
d="M209 393c5 6 14 7 20 1l16 -16c5 -5 5 -14 -1 -20l-84 -84l84 -84c6 -6 6 -14 0 -20l-16 -16c-5 -5 -14 -5 -19 0l-85 84l-84 -84c-5 -5 -14 -5 -19 0l-16 16c-6 6 -6 14 0 20l84 84l-84 84c-6 6 -6 15 -1 20l16 16c6 6 15 5 20 -1l84 -84z" />
    <glyph glyph-name="copyright" unicode="&#xa9;" horiz-adv-x="818" 
d="M638 637c68 -68 110 -161 110 -265c0 -103 -42 -196 -110 -264c-67 -68 -161 -109 -264 -109v0c-103 0 -197 41 -264 109c-68 68 -110 161 -110 264c0 104 42 197 110 265c67 67 161 109 264 109s197 -42 264 -109zM603 143c58 59 95 140 95 229c0 90 -37 171 -95 229
c-59 59 -140 95 -229 95c-90 0 -170 -36 -229 -95c-59 -58 -95 -139 -95 -229c0 -89 36 -170 95 -229c59 -58 139 -94 229 -94c89 0 170 36 229 94zM227 443c-8 -16 -12 -32 -12 -50v-45c0 -18 4 -35 12 -50c7 -15 19 -30 33 -42c28 -24 68 -40 113 -40h12v0l1 1h7
c5 0 14 1 23 3c19 3 43 9 64 20c13 7 25 16 33 26l40 -30c-14 -18 -32 -31 -50 -41c-19 -9 -37 -15 -55 -19c-34 -9 -61 -9 -62 -10h-1h-12c-42 0 -82 11 -115 31c-33 19 -60 46 -76 79c-7 14 -12 30 -15 46h-2v71v0v26h2c3 16 8 32 15 46c11 22 26 41 45 58
c38 32 90 51 146 51h12h1c1 0 16 0 38 -4c23 -4 51 -11 79 -25c18 -9 36 -22 50 -40l-40 -30c-8 10 -19 19 -33 26c-13 7 -28 12 -42 15c-27 7 -50 8 -53 8h-12c-34 0 -65 -8 -90 -23s-45 -35 -56 -58z" />
    <glyph glyph-name="Aacute" unicode="&#xc1;" horiz-adv-x="618" 
d="M522 50h12c8 0 14 -6 14 -14v-22c0 -8 -6 -14 -14 -14h-102c-7 0 -14 6 -14 14v22c0 8 7 14 14 14h12c8 0 12 6 10 14l-59 202c-2 8 -10 14 -18 14h-206c-8 0 -16 -8 -19 -15l-58 -201c-2 -8 2 -14 10 -14h12c7 0 14 -6 14 -14v-22c0 -8 -7 -14 -14 -14h-102
c-8 0 -14 6 -14 14v22c0 8 6 14 14 14h12c8 0 16 6 18 14l182 620c2 7 10 13 18 13h60c8 0 16 -6 19 -13l181 -620c2 -8 11 -14 18 -14zM186 330h176c8 0 13 6 11 13l-85 291c-2 7 -9 13 -14 13s-12 -6 -14 -13l-85 -291c-2 -7 3 -13 11 -13zM223 764l54 67c4 6 9 11 17 11
h77c7 0 9 -8 3 -13l-91 -68c-6 -4 -11 -8 -18 -8h-38c-7 0 -9 5 -4 11z" />
    <glyph glyph-name="Acircumflex" unicode="&#xc2;" horiz-adv-x="618" 
d="M522 50h12c8 0 14 -6 14 -14v-22c0 -8 -6 -14 -14 -14h-102c-7 0 -14 6 -14 14v22c0 8 7 14 14 14h12c8 0 12 6 10 14l-59 202c-2 8 -10 14 -18 14h-206c-8 0 -16 -8 -19 -15l-58 -201c-2 -8 2 -14 10 -14h12c7 0 14 -6 14 -14v-22c0 -8 -7 -14 -14 -14h-102
c-8 0 -14 6 -14 14v22c0 8 6 14 14 14h12c8 0 16 6 18 14l182 620c2 7 10 13 18 13h60c8 0 16 -6 19 -13l181 -620c2 -8 11 -14 18 -14zM186 330h176c8 0 13 6 11 13l-85 291c-2 7 -9 13 -14 13s-12 -6 -14 -13l-85 -291c-2 -7 3 -13 11 -13zM380 748c5 0 7 3 7 6
c0 2 -1 5 -4 7l-68 71c-7 4 -14 8 -22 8h-12h-27c-9 0 -15 -4 -23 -8l-68 -71c-2 -2 -4 -5 -4 -7c0 -3 3 -6 8 -6h43c8 0 13 5 18 11l38 37s6 6 7 6c3 0 8 -6 8 -6l38 -37c5 -6 10 -11 18 -11h43zM380 748c5 0 7 3 7 6c0 2 -1 5 -4 7l-68 71c-7 4 -14 8 -22 8h-12h-27
c-9 0 -15 -4 -23 -8l-68 -71c-2 -2 -4 -5 -4 -7c0 -3 3 -6 8 -6h43c8 0 13 5 18 11l38 37s6 6 7 6c3 0 8 -6 8 -6l38 -37c5 -6 10 -11 18 -11h43z" />
    <glyph glyph-name="Adieresis" unicode="&#xc4;" horiz-adv-x="618" 
d="M522 50h12c8 0 14 -6 14 -14v-22c0 -8 -6 -14 -14 -14h-102c-7 0 -14 6 -14 14v22c0 8 7 14 14 14h12c8 0 12 6 10 14l-59 202c-2 8 -10 14 -18 14h-206c-8 0 -16 -8 -19 -15l-58 -201c-2 -8 2 -14 10 -14h12c7 0 14 -6 14 -14v-22c0 -8 -7 -14 -14 -14h-102
c-8 0 -14 6 -14 14v22c0 8 6 14 14 14h12c8 0 16 6 18 14l182 620c2 7 10 13 18 13h60c8 0 16 -6 19 -13l181 -620c2 -8 11 -14 18 -14zM186 330h176c8 0 13 6 11 13l-85 291c-2 7 -9 13 -14 13s-12 -6 -14 -13l-85 -291c-2 -7 3 -13 11 -13zM226 810v-32
c0 -12 -10 -21 -21 -21h-32c-11 0 -20 9 -20 21v32c0 11 9 20 20 20h32c11 0 21 -9 21 -20zM396 810v-32c0 -12 -10 -21 -21 -21h-32c-11 0 -20 9 -20 21v32c0 11 9 20 20 20h32c11 0 21 -9 21 -20z" />
    <glyph glyph-name="Eacute" unicode="&#xc9;" 
d="M14 696l482 1c8 0 14 -6 14 -14v-21v-29v-11c0 -8 -6 -14 -14 -14h-22c-7 0 -14 6 -14 14v11c0 8 -6 14 -14 14l-342 -1c-8 0 -14 -6 -14 -14v-245c0 -8 6 -15 14 -15h255c8 0 15 7 15 15v11c0 8 6 14 14 14h21c8 0 15 -6 15 -14v-11v-29v-21v-29v-11
c0 -8 -7 -15 -15 -15h-21c-8 0 -14 7 -14 15v11c0 8 -7 14 -15 14h-255c-8 0 -14 -6 -14 -14v-244c0 -8 6 -14 14 -14h342c8 0 14 6 14 14v12c0 8 7 14 14 14h22c8 0 14 -6 14 -14v-12v-28v-22c0 -8 -6 -14 -14 -14h-482c-8 0 -14 6 -14 14v20c0 8 6 15 14 15l12 1
c8 0 14 6 14 14v568c0 8 -6 14 -14 15h-12c-8 0 -14 7 -14 15v20c0 8 6 14 14 14zM229 764l54 67c4 6 9 11 17 11h77c7 0 9 -8 3 -13l-91 -68c-6 -4 -11 -8 -18 -8h-38c-7 0 -9 5 -4 11z" />
    <glyph glyph-name="Edieresis" unicode="&#xcb;" 
d="M14 696l482 1c8 0 14 -6 14 -14v-21v-29v-11c0 -8 -6 -14 -14 -14h-22c-7 0 -14 6 -14 14v11c0 8 -6 14 -14 14l-342 -1c-8 0 -14 -6 -14 -14v-245c0 -8 6 -15 14 -15h255c8 0 15 7 15 15v11c0 8 6 14 14 14h21c8 0 15 -6 15 -14v-11v-29v-21v-29v-11
c0 -8 -7 -15 -15 -15h-21c-8 0 -14 7 -14 15v11c0 8 -7 14 -15 14h-255c-8 0 -14 -6 -14 -14v-244c0 -8 6 -14 14 -14h342c8 0 14 6 14 14v12c0 8 7 14 14 14h22c8 0 14 -6 14 -14v-12v-28v-22c0 -8 -6 -14 -14 -14h-482c-8 0 -14 6 -14 14v20c0 8 6 15 14 15l12 1
c8 0 14 6 14 14v568c0 8 -6 14 -14 15h-12c-8 0 -14 7 -14 15v20c0 8 6 14 14 14zM211 810v-32c0 -12 -10 -21 -21 -21h-32c-11 0 -20 9 -20 21v32c0 11 9 20 20 20h32c11 0 21 -9 21 -20zM381 810v-32c0 -12 -10 -21 -21 -21h-32c-11 0 -20 9 -20 21v32c0 11 9 20 20 20h32
c11 0 21 -9 21 -20z" />
    <glyph glyph-name="Iacute" unicode="&#xcd;" horiz-adv-x="200" 
d="M130 35v-21c0 -8 -6 -14 -14 -14h-12h-28h-22h-28h-11c-8 0 -15 6 -15 14v21c0 8 7 15 15 15h11c8 0 14 6 14 14v569c0 8 -6 14 -14 14h-11c-8 0 -15 6 -15 14v22c0 8 7 14 15 14h101c8 0 14 -6 14 -14v-22c0 -8 -6 -14 -14 -14h-12c-7 0 -14 -6 -14 -14v-569
c0 -8 7 -14 14 -14h12c8 0 14 -7 14 -15zM24 764l54 67c4 6 9 11 17 11h77c7 0 9 -8 3 -13l-91 -68c-6 -4 -11 -8 -18 -8h-38c-7 0 -9 5 -4 11z" />
    <glyph glyph-name="Icircumflex" unicode="&#xce;" horiz-adv-x="200" 
d="M130 35v-21c0 -8 -6 -14 -14 -14h-12h-28h-22h-28h-11c-8 0 -15 6 -15 14v21c0 8 7 15 15 15h11c8 0 14 6 14 14v569c0 8 -6 14 -14 14h-11c-8 0 -15 6 -15 14v22c0 8 7 14 15 14h101c8 0 14 -6 14 -14v-22c0 -8 -6 -14 -14 -14h-12c-7 0 -14 -6 -14 -14v-569
c0 -8 7 -14 14 -14h12c8 0 14 -7 14 -15zM177 746c5 0 7 3 7 6c0 2 -1 5 -4 7l-68 71c-7 4 -14 8 -22 8h-12h-27c-9 0 -15 -4 -23 -8l-68 -71c-2 -2 -4 -5 -4 -7c0 -3 3 -6 8 -6h43c8 0 13 5 18 11l38 37s6 6 7 6c3 0 8 -6 8 -6l38 -37c5 -6 10 -11 18 -11h43zM177 746
c5 0 7 3 7 6c0 2 -1 5 -4 7l-68 71c-7 4 -14 8 -22 8h-12h-27c-9 0 -15 -4 -23 -8l-68 -71c-2 -2 -4 -5 -4 -7c0 -3 3 -6 8 -6h43c8 0 13 5 18 11l38 37s6 6 7 6c3 0 8 -6 8 -6l38 -37c5 -6 10 -11 18 -11h43z" />
    <glyph glyph-name="Oacute" unicode="&#xd3;" horiz-adv-x="605" 
d="M268 -15v0v0v0c73 0 141 30 189 78v0c48 49 78 116 78 190v0v202v0c0 73 -30 140 -78 189v0c-49 48 -116 78 -190 78v0c-74 0 -141 -30 -189 -78v0c-48 -49 -78 -116 -78 -190v-201v0c0 -74 30 -141 78 -190v0c49 -48 116 -78 190 -78zM113 608v0c40 40 94 64 154 64v0
c60 0 115 -24 154 -64v0c40 -39 64 -93 64 -154v-201v0c0 -61 -24 -115 -63 -154v0c-40 -40 -94 -64 -154 -64v0c-61 0 -115 24 -154 64v0c-40 39 -64 93 -64 154v202v0c0 60 24 114 63 153zM226 764l54 67c4 6 9 11 17 11h77c7 0 9 -8 3 -13l-91 -68c-6 -4 -11 -8 -18 -8
h-38c-7 0 -9 5 -4 11z" />
    <glyph glyph-name="Ocircumflex" unicode="&#xd4;" horiz-adv-x="605" 
d="M268 -15c-74 0 -141 30 -190 78v0c-48 49 -78 116 -78 190v0v201c0 74 30 141 78 190v0c48 48 115 78 189 78v0c74 0 141 -30 190 -78v0c48 -49 78 -116 78 -189v0v-202v0c0 -74 -30 -141 -78 -190v0c-48 -48 -116 -78 -189 -78v0v0v0zM113 608c-39 -39 -63 -93 -63 -153
v0v-202c0 -61 24 -115 64 -154v0c39 -40 93 -64 154 -64v0c60 0 114 24 154 64v0c39 39 63 93 63 154v0v201c0 61 -24 115 -64 154v0c-39 40 -94 64 -154 64v0c-60 0 -114 -24 -154 -64v0zM379 746c5 0 7 3 7 6c0 2 -1 5 -4 7l-68 71c-7 4 -14 8 -22 8h-12h-27
c-9 0 -15 -4 -23 -8l-68 -71c-2 -2 -4 -5 -4 -7c0 -3 3 -6 8 -6h43c8 0 13 5 18 11l38 37s6 6 7 6c3 0 8 -6 8 -6l38 -37c5 -6 10 -11 18 -11h43zM379 746c5 0 7 3 7 6c0 2 -1 5 -4 7l-68 71c-7 4 -14 8 -22 8h-12h-27c-9 0 -15 -4 -23 -8l-68 -71c-2 -2 -4 -5 -4 -7
c0 -3 3 -6 8 -6h43c8 0 13 5 18 11l38 37s6 6 7 6c3 0 8 -6 8 -6l38 -37c5 -6 10 -11 18 -11h43z" />
    <glyph glyph-name="Odieresis" unicode="&#xd6;" horiz-adv-x="605" 
d="M268 -15c-74 0 -141 30 -190 78v0c-48 49 -78 116 -78 190v0v201c0 74 30 141 78 190v0c48 48 115 78 189 78v0c74 0 141 -30 190 -78v0c48 -49 78 -116 78 -189v0v-202v0c0 -74 -30 -141 -78 -190v0c-48 -48 -116 -78 -189 -78v0v0v0zM113 608c-39 -39 -63 -93 -63 -153
v0v-202c0 -61 24 -115 64 -154v0c39 -40 93 -64 154 -64v0c60 0 114 24 154 64v0c39 39 63 93 63 154v0v201c0 61 -24 115 -64 154v0c-39 40 -94 64 -154 64v0c-60 0 -114 -24 -154 -64v0zM214 810v-32c0 -12 -10 -21 -21 -21h-32c-11 0 -20 9 -20 21v32c0 11 9 20 20 20h32
c11 0 21 -9 21 -20zM384 810v-32c0 -12 -10 -21 -21 -21h-32c-11 0 -20 9 -20 21v32c0 11 9 20 20 20h32c11 0 21 -9 21 -20z" />
    <glyph glyph-name="Otilde" unicode="&#xd5;" horiz-adv-x="605" 
d="M268 -15v0v0v0c73 0 141 30 189 78v0c48 49 78 116 78 190v0v202v0c0 73 -30 140 -78 189v0c-49 48 -116 78 -190 78v0c-74 0 -141 -30 -189 -78v0c-48 -49 -78 -116 -78 -190v-201v0c0 -74 30 -141 78 -190v0c49 -48 116 -78 190 -78zM113 608v0c40 40 94 64 154 64v0
c60 0 115 -24 154 -64v0c40 -39 64 -93 64 -154v-201v0c0 -61 -24 -115 -63 -154v0c-40 -40 -94 -64 -154 -64v0c-61 0 -115 24 -154 64v0c-40 39 -64 93 -64 154v202v0c0 60 24 114 63 153zM386 861l41 -29c-10 -14 -22 -25 -34 -33s-25 -13 -38 -15v0
c-13 -3 -26 -3 -38 -1c-11 2 -21 5 -30 8c-14 5 -24 10 -28 13v0c-11 7 -20 11 -28 13s-15 2 -22 1c-6 -2 -12 -4 -18 -7c-6 -4 -11 -8 -16 -12c-9 -9 -14 -18 -15 -19v0v0l-43 26s4 7 12 17c8 9 19 20 35 30c10 6 22 11 36 14c13 2 27 2 42 -1c14 -4 28 -10 43 -19v0v0v0
l2 -2c2 -1 5 -2 9 -4c7 -3 18 -7 28 -8c8 -1 15 -2 22 0c7 1 13 3 20 8c6 4 13 10 20 20zM285 847v0v0v0z" />
    <glyph glyph-name="Scaron" unicode="&#x160;" horiz-adv-x="536" 
d="M108 125c-4 -3 -5 -8 -4 -12c3 -6 6 -11 10 -15l19 -19v0c27 -22 63 -38 103 -40v1h12c45 0 87 17 116 43c30 26 48 61 48 100s-18 74 -48 100c-29 27 -71 44 -116 44v0l-20 1c-58 0 -111 21 -151 56c-40 34 -64 84 -64 139s24 104 64 140c40 34 93 56 152 56v0
c53 0 103 -18 140 -47v0l3 -3c10 -7 18 -16 26 -25c6 -3 13 -2 18 3l8 9c6 5 15 5 21 0l16 -16c6 -6 6 -16 0 -21l-75 -75c-5 -6 -15 -6 -21 0l-16 16c-5 6 -5 15 0 21l9 8c6 6 6 16 0 21l-20 21c-29 21 -67 36 -109 36v0c-47 0 -88 -17 -118 -44c-29 -26 -46 -61 -46 -100
s17 -74 46 -100c30 -26 71 -43 118 -43v0l19 -1c59 0 112 -22 151 -56c39 -36 65 -86 65 -140c0 -55 -26 -105 -65 -139c-37 -33 -86 -54 -140 -56l-1 -1h-11c-69 0 -132 29 -171 76l-5 5c-5 5 -15 5 -21 0l-8 -8c-6 -7 -15 -7 -21 0l-16 15c-6 5 -6 15 0 21l75 75
c5 5 15 5 21 0l16 -17c5 -5 5 -14 0 -21zM362 838c8 0 10 -8 3 -13l-64 -68c-7 -4 -14 -8 -23 -8h-12h-37h-11c-10 0 -16 4 -24 8l-64 68c-6 5 -4 13 4 13h49c8 0 13 -5 18 -11l39 -35s6 -6 8 -6c3 0 8 6 8 6l39 35c5 6 10 11 18 11h49z" />
    <glyph glyph-name="Uacute" unicode="&#xda;" horiz-adv-x="665" 
d="M581 700c8 0 14 -6 14 -14v-22c0 -8 -6 -14 -14 -14h-12c-7 0 -14 -6 -14 -14v-380h1c0 -74 -30 -141 -79 -190c-48 -48 -105 -78 -179 -78v0c-74 0 -131 30 -179 78c-47 47 -77 112 -79 183v0v387c0 8 -6 14 -14 14h-11c-8 0 -15 6 -15 14v22c0 8 7 14 15 14h101
c8 0 14 -6 14 -14v-22c0 -8 -6 -14 -14 -14h-12c-7 0 -14 -6 -14 -14v-380v0c0 -60 25 -115 64 -154c40 -40 84 -64 144 -64s104 24 144 64c38 38 62 90 64 147h-1v387c0 8 -6 14 -14 14h-11c-8 0 -15 6 -15 14v22c0 8 7 14 15 14h11h28h22h28h12zM256 764l54 67
c4 6 9 11 17 11h77c7 0 9 -8 3 -13l-91 -68c-6 -4 -11 -8 -18 -8h-38c-7 0 -9 5 -4 11z" />
    <glyph glyph-name="Udieresis" unicode="&#xdc;" horiz-adv-x="665" 
d="M581 700c8 0 14 -6 14 -14v-22c0 -8 -6 -14 -14 -14h-12c-7 0 -14 -6 -14 -14v-380h1c0 -74 -30 -141 -79 -190c-48 -48 -105 -78 -179 -78v0c-74 0 -131 30 -179 78c-47 47 -77 112 -79 183v0v387c0 8 -6 14 -14 14h-11c-8 0 -15 6 -15 14v22c0 8 7 14 15 14h101
c8 0 14 -6 14 -14v-22c0 -8 -6 -14 -14 -14h-12c-7 0 -14 -6 -14 -14v-380v0c0 -60 25 -115 64 -154c40 -40 84 -64 144 -64s104 24 144 64c38 38 62 90 64 147h-1v387c0 8 -6 14 -14 14h-11c-8 0 -15 6 -15 14v22c0 8 7 14 15 14h11h28h22h28h12zM254 810v-32
c0 -12 -10 -21 -21 -21h-32c-11 0 -20 9 -20 21v32c0 11 9 20 20 20h32c11 0 21 -9 21 -20zM424 810v-32c0 -12 -10 -21 -21 -21h-32c-11 0 -20 9 -20 21v32c0 11 9 20 20 20h32c11 0 21 -9 21 -20z" />
    <glyph glyph-name="Yacute" unicode="&#xdd;" horiz-adv-x="604" 
d="M333 35v-21c0 -8 -6 -14 -14 -14h-101c-8 0 -15 6 -15 14v21c0 8 7 15 15 15h11c8 0 14 6 14 14v278l-203 301c-5 7 -14 12 -22 12h-4c-8 0 -14 6 -14 14v22c0 8 6 14 14 14h101c8 0 15 -6 15 -14v-22c0 -8 -7 -14 -15 -14h-9c-7 0 -10 -5 -6 -12l158 -234
c4 -6 11 -6 16 0l156 235c4 6 2 11 -6 11h-5c-8 0 -15 7 -15 15v21c0 8 7 14 15 14h101c8 0 14 -6 14 -14v-21c0 -8 -6 -15 -14 -15h-8c-7 0 -17 -5 -22 -11l-197 -298v-282c0 -8 7 -14 14 -14h12c8 0 14 -7 14 -15zM236 764l54 67c4 6 9 11 17 11h77c7 0 9 -8 3 -13
l-91 -68c-6 -4 -11 -8 -18 -8h-38c-7 0 -9 5 -4 11z" />
    <glyph glyph-name="Zcaron" unicode="&#x17d;" 
d="M506 654c-1 -2 -423 -593 -423 -593c-5 -6 -3 -11 5 -11h358c8 0 14 6 14 14v11c0 8 6 15 14 15h22c8 0 14 -7 14 -15v-61c0 -8 -6 -14 -14 -14h-482c-8 0 -14 6 -14 14v22c0 5 2 7 4 9s5 6 6 6c0 1 417 587 417 587c5 6 3 11 -5 11h-358c-8 0 -14 -7 -14 -14v-12
c0 -8 -7 -14 -14 -14h-22c-8 0 -14 6 -14 14v12v50c0 7 6 14 14 14h482c8 0 14 -7 14 -14v-22c0 -4 -1 -6 -4 -9zM374 838c8 0 10 -8 3 -13l-64 -68c-7 -4 -14 -8 -23 -8h-12h-37h-11c-10 0 -16 4 -24 8l-64 68c-6 5 -4 13 4 13h49c8 0 13 -5 18 -11l39 -35s6 -6 8 -6
c3 0 8 6 8 6l39 35c5 6 10 11 18 11h49z" />
    <glyph glyph-name="aacute" unicode="&#xe1;" horiz-adv-x="472" 
d="M388 50c8 0 14 -7 14 -14v-22c0 -8 -6 -14 -14 -14h-62c-7 0 -14 6 -14 14v44c-14 -16 -32 -30 -52 -39c-22 -11 -48 -17 -75 -17v0h-14c-20 0 -38 0 -55 2c-18 1 -34 4 -49 10c-10 3 -19 8 -28 15c-11 9 -21 21 -27 35c-8 19 -12 41 -12 67c0 23 3 42 9 58
c6 17 16 31 29 41c9 7 18 12 28 15c14 5 28 7 43 8c20 2 41 2 65 2h11h129v46v2v0v1v4c0 5 0 13 -2 20c-2 8 -6 16 -10 22c-4 4 -8 8 -13 11c-8 4 -18 7 -34 7h-105c-19 0 -36 -1 -49 -5c-14 -3 -25 -9 -34 -17c-5 -5 -11 -12 -15 -22v0c-3 -7 -11 -10 -18 -7l-21 10
c-7 3 -10 11 -7 18v0c7 15 16 27 27 38c11 10 23 17 36 22c26 11 53 13 81 13h105c25 0 47 -6 63 -16c17 -11 28 -25 34 -39c5 -10 7 -19 9 -27c2 -11 3 -21 3 -28v-9v-94h-1l-1 -141c0 -8 7 -14 14 -14h12zM312 187l1 7l-1 11h-127h-11c-20 0 -37 0 -53 -1
c-15 -1 -27 -3 -37 -6c-6 -2 -11 -4 -14 -7c-5 -3 -9 -7 -12 -14c-5 -9 -8 -24 -8 -46c0 -18 2 -32 6 -42c3 -9 7 -15 13 -20c3 -3 8 -5 14 -8c7 -3 17 -5 29 -7c17 -2 36 -2 59 -2h4h7c22 0 41 4 57 12c15 7 29 18 40 32c18 23 30 54 33 91zM150 475l54 67c4 6 9 11 17 11
h77c7 0 9 -8 3 -13l-91 -68c-6 -4 -11 -8 -18 -8h-38c-7 0 -9 5 -4 11z" />
    <glyph glyph-name="acircumflex" unicode="&#xe2;" horiz-adv-x="472" 
d="M388 50c8 0 14 -7 14 -14v-22c0 -8 -6 -14 -14 -14h-62c-7 0 -14 6 -14 14v44c-14 -16 -32 -30 -52 -39c-22 -11 -48 -17 -75 -17v0h-14c-20 0 -38 0 -55 2c-18 1 -34 4 -49 10c-10 3 -19 8 -28 15c-11 9 -21 21 -27 35c-8 19 -12 41 -12 67c0 23 3 42 9 58
c6 17 16 31 29 41c9 7 18 12 28 15c14 5 28 7 43 8c20 2 41 2 65 2h11h129v46v2v0v1v4c0 5 0 13 -2 20c-2 8 -6 16 -10 22c-4 4 -8 8 -13 11c-8 4 -18 7 -34 7h-105c-19 0 -36 -1 -49 -5c-14 -3 -25 -9 -34 -17c-5 -5 -11 -12 -15 -22v0c-3 -7 -11 -10 -18 -7l-21 10
c-7 3 -10 11 -7 18v0c7 15 16 27 27 38c11 10 23 17 36 22c26 11 53 13 81 13h105c25 0 47 -6 63 -16c17 -11 28 -25 34 -39c5 -10 7 -19 9 -27c2 -11 3 -21 3 -28v-9v-94h-1l-1 -141c0 -8 7 -14 14 -14h12zM312 187l1 7l-1 11h-127h-11c-20 0 -37 0 -53 -1
c-15 -1 -27 -3 -37 -6c-6 -2 -11 -4 -14 -7c-5 -3 -9 -7 -12 -14c-5 -9 -8 -24 -8 -46c0 -18 2 -32 6 -42c3 -9 7 -15 13 -20c3 -3 8 -5 14 -8c7 -3 17 -5 29 -7c17 -2 36 -2 59 -2h4h7c22 0 41 4 57 12c15 7 29 18 40 32c18 23 30 54 33 91zM287 457c5 0 7 3 7 6
c0 2 -1 5 -4 7l-68 71c-7 4 -14 8 -22 8h-12h-27c-9 0 -15 -4 -23 -8l-68 -71c-2 -2 -4 -5 -4 -7c0 -3 3 -6 8 -6h43c8 0 13 5 18 11l38 37s6 6 7 6c3 0 8 -6 8 -6l38 -37c5 -6 10 -11 18 -11h43zM287 457c5 0 7 3 7 6c0 2 -1 5 -4 7l-68 71c-7 4 -14 8 -22 8h-12h-27
c-9 0 -15 -4 -23 -8l-68 -71c-2 -2 -4 -5 -4 -7c0 -3 3 -6 8 -6h43c8 0 13 5 18 11l38 37s6 6 7 6c3 0 8 -6 8 -6l38 -37c5 -6 10 -11 18 -11h43z" />
    <glyph glyph-name="adieresis" unicode="&#xe4;" horiz-adv-x="472" 
d="M388 50c8 0 14 -7 14 -14v-22c0 -8 -6 -14 -14 -14h-62c-7 0 -14 6 -14 14v44c-14 -16 -32 -30 -52 -39c-22 -11 -48 -17 -75 -17v0h-14c-20 0 -38 0 -55 2c-18 1 -34 4 -49 10c-10 3 -19 8 -28 15c-11 9 -21 21 -27 35c-8 19 -12 41 -12 67c0 23 3 42 9 58
c6 17 16 31 29 41c9 7 18 12 28 15c14 5 28 7 43 8c20 2 41 2 65 2h11h129v46v2v0v1v4c0 5 0 13 -2 20c-2 8 -6 16 -10 22c-4 4 -8 8 -13 11c-8 4 -18 7 -34 7h-105c-19 0 -36 -1 -49 -5c-14 -3 -25 -9 -34 -17c-5 -5 -11 -12 -15 -22v0c-3 -7 -11 -10 -18 -7l-21 10
c-7 3 -10 11 -7 18v0c7 15 16 27 27 38c11 10 23 17 36 22c26 11 53 13 81 13h105c25 0 47 -6 63 -16c17 -11 28 -25 34 -39c5 -10 7 -19 9 -27c2 -11 3 -21 3 -28v-9v-94h-1l-1 -141c0 -8 7 -14 14 -14h12zM312 187l1 7l-1 11h-127h-11c-20 0 -37 0 -53 -1
c-15 -1 -27 -3 -37 -6c-6 -2 -11 -4 -14 -7c-5 -3 -9 -7 -12 -14c-5 -9 -8 -24 -8 -46c0 -18 2 -32 6 -42c3 -9 7 -15 13 -20c3 -3 8 -5 14 -8c7 -3 17 -5 29 -7c17 -2 36 -2 59 -2h4h7c22 0 41 4 57 12c15 7 29 18 40 32c18 23 30 54 33 91zM137 521v-32
c0 -12 -10 -21 -21 -21h-32c-11 0 -20 9 -20 21v32c0 11 9 20 20 20h32c11 0 21 -9 21 -20zM307 521v-32c0 -12 -10 -21 -21 -21h-32c-11 0 -20 9 -20 21v32c0 11 9 20 20 20h32c11 0 21 -9 21 -20z" />
    <glyph glyph-name="eacute" unicode="&#xe9;" horiz-adv-x="498" 
d="M427 250c1 -13 1 -26 1 -39c0 -8 -7 -14 -15 -14h-13v-1h-350v-17c0 -15 3 -30 9 -44c25 -57 89 -87 148 -87h12c23 1 46 5 68 12s46 18 61 37h-1c5 7 13 8 19 3l19 -15c6 -4 7 -12 2 -19v0c-4 -5 -8 -9 -13 -14c-24 -22 -55 -36 -86 -44c-22 -6 -45 -9 -68 -10h-13
c-39 0 -79 10 -114 30c-54 31 -93 87 -93 151v71v0c3 49 29 94 68 125c23 18 50 31 78 39c15 4 30 6 46 7c9 1 19 0 28 0c37 0 74 -8 106 -25c55 -29 98 -83 101 -146zM366 247c8 0 11 4 9 14v0c-1 8 -4 16 -7 23c-24 58 -88 87 -148 87c-17 0 -33 0 -49 -3
c-60 -12 -118 -57 -121 -122h186v1h130zM163 475l54 67c4 6 9 11 17 11h77c7 0 9 -8 3 -13l-91 -68c-6 -4 -11 -8 -18 -8h-38c-7 0 -9 5 -4 11z" />
    <glyph glyph-name="edieresis" unicode="&#xeb;" horiz-adv-x="498" 
d="M427 250c1 -13 1 -26 1 -39c0 -8 -7 -14 -15 -14h-13v-1h-350v-17c0 -15 3 -30 9 -44c25 -57 89 -87 148 -87h12c23 1 46 5 68 12s46 18 61 37h-1c5 7 13 8 19 3l19 -15c6 -4 7 -12 2 -19v0c-4 -5 -8 -9 -13 -14c-24 -22 -55 -36 -86 -44c-22 -6 -45 -9 -68 -10h-13
c-39 0 -79 10 -114 30c-54 31 -93 87 -93 151v71v0c3 49 29 94 68 125c23 18 50 31 78 39c15 4 30 6 46 7c9 1 19 0 28 0c37 0 74 -8 106 -25c55 -29 98 -83 101 -146zM366 247c8 0 11 4 9 14v0c-1 8 -4 16 -7 23c-24 58 -88 87 -148 87c-17 0 -33 0 -49 -3
c-60 -12 -118 -57 -121 -122h186v1h130zM150 521v-32c0 -12 -10 -21 -21 -21h-32c-11 0 -20 9 -20 21v32c0 11 9 20 20 20h32c11 0 21 -9 21 -20zM320 521v-32c0 -12 -10 -21 -21 -21h-32c-11 0 -20 9 -20 21v32c0 11 9 20 20 20h32c11 0 21 -9 21 -20z" />
    <glyph glyph-name="iacute" unicode="&#xed;" horiz-adv-x="200" 
d="M90 65v338c0 8 -7 14 -14 14h-22h-28h-12c-8 0 -14 -6 -14 -14v-22c0 -7 6 -14 14 -14h12c7 0 14 -6 14 -14v-288c0 -8 -7 -15 -14 -15h-12c-8 0 -14 -6 -14 -14v-21c0 -8 6 -15 14 -15h101c8 0 15 7 15 15v21c0 8 -7 14 -15 14h-11c-8 0 -14 7 -14 15zM14 475l54 67
c4 6 9 11 17 11h77c7 0 9 -8 3 -13l-91 -68c-6 -4 -11 -8 -18 -8h-38c-7 0 -9 5 -4 11z" />
    <glyph glyph-name="icircumflex" unicode="&#xee;" horiz-adv-x="200" 
d="M90 65c0 -8 6 -15 14 -15h11c8 0 15 -6 15 -14v-21c0 -8 -7 -15 -15 -15h-101c-8 0 -14 7 -14 15v21c0 8 6 14 14 14h12c7 0 14 7 14 15v288c0 8 -7 14 -14 14h-12c-8 0 -14 7 -14 14v22c0 8 6 14 14 14h12h28h22c7 0 14 -6 14 -14v-338zM159 457c5 0 7 3 7 6
c0 2 -1 5 -4 7l-68 71c-7 4 -14 8 -22 8h-12h-27c-9 0 -15 -4 -23 -8l-68 -71c-2 -2 -4 -5 -4 -7c0 -3 3 -6 8 -6h43c8 0 13 5 18 11l38 37s6 6 7 6c3 0 8 -6 8 -6l38 -37c5 -6 10 -11 18 -11h43zM159 457c5 0 7 3 7 6c0 2 -1 5 -4 7l-68 71c-7 4 -14 8 -22 8h-12h-27
c-9 0 -15 -4 -23 -8l-68 -71c-2 -2 -4 -5 -4 -7c0 -3 3 -6 8 -6h43c8 0 13 5 18 11l38 37s6 6 7 6c3 0 8 -6 8 -6l38 -37c5 -6 10 -11 18 -11h43z" />
    <glyph glyph-name="oacute" unicode="&#xf3;" horiz-adv-x="503" 
d="M433 179v-10h-1c-5 -106 -111 -171 -207 -171c-35 0 -69 2 -102 15c-125 48 -123 137 -123 237c7 102 103 171 207 171c108 0 220 -56 225 -171h1v-71zM348 98v-1c21 22 35 51 35 82v61c0 82 -86 131 -164 131h-6c-50 0 -97 -18 -128 -49h-1c-21 -22 -34 -51 -34 -82v-61
c0 -31 13 -60 34 -82l1 1c17 -35 92 -50 128 -50h6c29 0 110 13 129 50zM165 475l54 67c4 6 9 11 17 11h77c7 0 9 -8 3 -13l-91 -68c-6 -4 -11 -8 -18 -8h-38c-7 0 -9 5 -4 11z" />
    <glyph glyph-name="ocircumflex" unicode="&#xf4;" horiz-adv-x="503" 
d="M433 179v-10h-1c-5 -106 -111 -171 -207 -171c-35 0 -69 2 -102 15c-125 48 -123 137 -123 237c7 102 103 171 207 171c108 0 220 -56 225 -171h1v-71zM348 98v-1c21 22 35 51 35 82v61c0 82 -86 131 -164 131h-6c-50 0 -97 -18 -128 -49h-1c-21 -22 -34 -51 -34 -82v-61
c0 -31 13 -60 34 -82l1 1c17 -35 92 -50 128 -50h6c29 0 110 13 129 50zM318 457c5 0 7 3 7 6c0 2 -1 5 -4 7l-68 71c-7 4 -14 8 -22 8h-12h-27c-9 0 -15 -4 -23 -8l-68 -71c-2 -2 -4 -5 -4 -7c0 -3 3 -6 8 -6h43c8 0 13 5 18 11l38 37s6 6 7 6c3 0 8 -6 8 -6l38 -37
c5 -6 10 -11 18 -11h43zM318 457c5 0 7 3 7 6c0 2 -1 5 -4 7l-68 71c-7 4 -14 8 -22 8h-12h-27c-9 0 -15 -4 -23 -8l-68 -71c-2 -2 -4 -5 -4 -7c0 -3 3 -6 8 -6h43c8 0 13 5 18 11l38 37s6 6 7 6c3 0 8 -6 8 -6l38 -37c5 -6 10 -11 18 -11h43z" />
    <glyph glyph-name="odieresis" unicode="&#xf6;" horiz-adv-x="503" 
d="M433 179v-10h-1c-5 -106 -111 -171 -207 -171c-35 0 -69 2 -102 15c-125 48 -123 137 -123 237c7 102 103 171 207 171c108 0 220 -56 225 -171h1v-71zM348 98v-1c21 22 35 51 35 82v61c0 82 -86 131 -164 131h-6c-50 0 -97 -18 -128 -49h-1c-21 -22 -34 -51 -34 -82v-61
c0 -31 13 -60 34 -82l1 1c17 -35 92 -50 128 -50h6c29 0 110 13 129 50zM163 521v-32c0 -12 -10 -21 -21 -21h-32c-11 0 -20 9 -20 21v32c0 11 9 20 20 20h32c11 0 21 -9 21 -20zM333 521v-32c0 -12 -10 -21 -21 -21h-32c-11 0 -20 9 -20 21v32c0 11 9 20 20 20h32
c11 0 21 -9 21 -20z" />
    <glyph glyph-name="otilde" unicode="&#xf5;" horiz-adv-x="503" 
d="M433 179v-10h-1c-5 -106 -111 -171 -207 -171c-35 0 -69 2 -102 15c-125 48 -123 137 -123 237c7 102 103 171 207 171c108 0 220 -56 225 -171h1v-71zM348 98v-1c21 22 35 51 35 82v61c0 82 -86 131 -164 131h-6c-50 0 -97 -18 -128 -49h-1c-21 -22 -34 -51 -34 -82v-61
c0 -31 13 -60 34 -82l1 1c17 -35 92 -50 128 -50h6c29 0 110 13 129 50zM325 552l41 -29c-10 -14 -22 -25 -34 -33s-25 -13 -38 -15v0c-13 -3 -26 -3 -38 -1c-11 2 -21 5 -30 8c-14 5 -24 10 -28 13v0c-11 7 -20 11 -28 13s-15 2 -22 1c-6 -2 -12 -4 -18 -7
c-6 -4 -11 -8 -16 -12c-9 -9 -14 -18 -15 -19v0v0l-43 26s4 7 12 17c8 9 19 20 35 30c10 6 22 11 36 14c13 2 27 2 42 -1c14 -4 28 -10 43 -19v0v0v0l2 -2c2 -1 5 -2 9 -4c7 -3 18 -7 28 -8c8 -1 15 -2 22 0c7 1 13 3 20 8c6 4 13 10 20 20zM224 538v0v0v0z" />
    <glyph glyph-name="scaron" unicode="&#x161;" horiz-adv-x="435" 
d="M182 187c-25 0 -49 1 -72 4c-22 3 -43 9 -62 21c-13 7 -24 18 -32 31c-11 17 -16 39 -16 66c0 18 6 36 17 51c10 15 25 27 41 37c33 20 77 31 124 31c36 0 69 -6 97 -17c29 -12 53 -29 68 -51c10 -14 17 -31 18 -49c0 -8 -6 -14 -13 -14h-24c-7 0 -12 5 -14 12
c0 7 -2 14 -7 22c-6 8 -15 16 -27 23c-23 14 -59 24 -99 24c-29 0 -56 -5 -77 -14c-22 -9 -38 -21 -46 -33c-6 -8 -8 -15 -8 -24c0 -15 3 -26 6 -34c4 -8 9 -13 16 -18c5 -3 11 -6 18 -8c10 -3 21 -6 34 -7c11 -1 23 -2 36 -2h23c25 0 49 -1 72 -4c22 -3 43 -9 62 -21
c13 -7 24 -18 32 -31c11 -17 16 -39 16 -66c0 -18 -6 -36 -17 -51c-10 -15 -25 -27 -41 -37c-33 -20 -77 -31 -124 -31c-36 0 -69 6 -97 17c-29 12 -53 29 -68 51c-10 14 -17 31 -18 49c0 8 6 14 13 14h24c7 0 12 -5 14 -12c0 -7 2 -14 7 -22c6 -8 15 -16 27 -23
c23 -14 59 -24 99 -24c29 0 56 5 77 14c22 9 38 21 46 33c6 8 8 15 8 24c0 15 -3 26 -6 34c-4 8 -9 13 -16 18c-5 3 -11 6 -18 8c-10 3 -21 6 -34 7c-11 1 -23 2 -36 2h-23zM292 549c8 0 10 -8 3 -13l-64 -68c-7 -4 -14 -8 -23 -8h-12h-37h-11c-10 0 -16 4 -24 8l-64 68
c-6 5 -4 13 4 13h49c8 0 13 -5 18 -11l39 -35s6 -6 8 -6c3 0 8 6 8 6l39 35c5 6 10 11 18 11h49z" />
    <glyph glyph-name="uacute" unicode="&#xfa;" horiz-adv-x="509" 
d="M425 49c8 0 14 -6 14 -14v-21c0 -8 -6 -14 -14 -14h-11h-29h-21c-8 0 -14 6 -14 14v20v23c-15 -17 -32 -30 -53 -40c-22 -11 -49 -17 -77 -17v0c-29 0 -55 6 -77 17c-23 11 -43 27 -58 46c-31 38 -45 89 -45 143v2v144c0 8 -7 15 -15 15h-11c-8 0 -14 6 -14 14v21
c0 8 6 15 14 15h11h29h21c8 0 15 -7 15 -15v-194v0v-2c0 -34 7 -65 19 -89c13 -25 31 -44 55 -55c16 -7 34 -11 56 -12c22 1 40 5 56 12c16 8 29 19 40 33c18 22 30 54 34 90v7v160c0 8 -6 15 -14 15h-11c-8 0 -15 6 -15 14v21c0 8 7 15 15 15h11h29h21c8 0 14 -7 14 -15
v-13h1l-1 -326c0 -8 6 -14 14 -14h11zM168 475l54 67c4 6 9 11 17 11h77c7 0 9 -8 3 -13l-91 -68c-6 -4 -11 -8 -18 -8h-38c-7 0 -9 5 -4 11z" />
    <glyph glyph-name="udieresis" unicode="&#xfc;" horiz-adv-x="509" 
d="M425 49c8 0 14 -6 14 -14v-21c0 -8 -6 -14 -14 -14h-11h-29h-21c-8 0 -14 6 -14 14v20v23c-15 -17 -32 -30 -53 -40c-22 -11 -49 -17 -77 -17v0c-29 0 -55 6 -77 17c-23 11 -43 27 -58 46c-31 38 -45 89 -45 143v2v144c0 8 -7 15 -15 15h-11c-8 0 -14 6 -14 14v21
c0 8 6 15 14 15h11h29h21c8 0 15 -7 15 -15v-194v0v-2c0 -34 7 -65 19 -89c13 -25 31 -44 55 -55c16 -7 34 -11 56 -12c22 1 40 5 56 12c16 8 29 19 40 33c18 22 30 54 34 90v7v160c0 8 -6 15 -14 15h-11c-8 0 -15 6 -15 14v21c0 8 7 15 15 15h11h29h21c8 0 14 -7 14 -15
v-13h1l-1 -326c0 -8 6 -14 14 -14h11zM166 521v-32c0 -12 -10 -21 -21 -21h-32c-11 0 -20 9 -20 21v32c0 11 9 20 20 20h32c11 0 21 -9 21 -20zM336 521v-32c0 -12 -10 -21 -21 -21h-32c-11 0 -20 9 -20 21v32c0 11 9 20 20 20h32c11 0 21 -9 21 -20z" />
    <glyph glyph-name="yacute" unicode="&#xfd;" horiz-adv-x="471" 
d="M401 390l-1 -327v-1v-135c0 -57 -23 -109 -61 -147c-37 -37 -89 -61 -147 -61h-91v0c-7 0 -13 6 -13 14v23c0 7 6 13 13 13v0h91c44 0 83 18 112 47c28 28 46 67 46 111v130c-14 -16 -32 -29 -52 -39c-23 -11 -49 -17 -77 -17v0c-29 0 -55 6 -78 17s-42 26 -57 45
c-31 39 -46 89 -46 144v2v144c0 8 -6 14 -14 14h-11c-8 0 -15 7 -15 14v22c0 8 7 14 15 14h11h29h21c8 0 14 -6 14 -14v-194v-1v-1c0 -34 7 -65 20 -90c13 -24 31 -43 55 -54c15 -8 34 -12 56 -12c21 0 40 4 56 12c15 8 29 18 40 32c18 23 30 54 33 91l1 7v160
c0 8 -6 14 -14 14h-12c-7 0 -14 7 -14 14v22c0 8 7 14 14 14h12h28h22c8 0 14 -6 14 -14v-13v0zM169 475l54 67c4 6 9 11 17 11h77c7 0 9 -8 3 -13l-91 -68c-6 -4 -11 -8 -18 -8h-38c-7 0 -9 5 -4 11z" />
    <glyph glyph-name="zcaron" unicode="&#x17e;" horiz-adv-x="397" 
d="M323 379c-1 -2 -240 -318 -240 -318c-5 -6 -3 -11 5 -11h175c8 0 14 6 14 14v11c0 8 6 15 14 15h22c8 0 14 -7 14 -15v-61c0 -8 -6 -14 -14 -14h-299c-8 0 -14 6 -14 14v22c0 5 2 7 4 9s5 6 6 6c0 1 234 312 234 312c5 6 3 11 -5 11h-175c-8 0 -14 -7 -14 -14v-12
c0 -8 -7 -14 -14 -14h-22c-8 0 -14 6 -14 14v12v50c0 7 6 14 14 14h299c8 0 14 -7 14 -14v-22c0 -4 -1 -6 -4 -9zM273 549c8 0 10 -8 3 -13l-64 -68c-7 -4 -14 -8 -23 -8h-12h-37h-11c-10 0 -16 4 -24 8l-64 68c-6 5 -4 13 4 13h49c8 0 13 -5 18 -11l39 -35s6 -6 8 -6
c3 0 8 6 8 6l39 35c5 6 10 11 18 11h49z" />
    <glyph glyph-name="ffi" unicode="&#xfb03;" horiz-adv-x="507" 
d="M423 54c7 0 14 -6 14 -14v-21c0 -8 -7 -15 -14 -15h-102c-8 0 -14 7 -14 15v21c0 8 6 14 14 14h12c7 0 14 7 14 15v392c0 5 -3 10 -8 13h-83c-8 0 -14 -7 -14 -15v-390c0 -8 6 -15 14 -15h12c7 0 14 -6 14 -14v-21c0 -8 -7 -15 -14 -15h-102c-8 0 -14 7 -14 15v21
c0 8 6 14 14 14h12c8 0 14 7 14 15v304h-88c-8 0 -14 -6 -14 -14v-290c0 -8 6 -15 14 -15h11c8 0 14 -6 14 -14v-21c0 -8 -6 -15 -14 -15h-101c-8 0 -14 7 -14 15v21c0 8 6 14 14 14h11c8 0 15 7 15 15v304v0l-1 61s1 52 5 72c3 20 9 38 19 53c7 10 16 18 26 24
c13 8 35 14 58 17c8 0 10 -4 10 -12v-24c0 -8 -6 -14 -14 -14c-11 -2 -19 -5 -25 -8s-10 -6 -13 -11c-2 -3 -4 -7 -6 -12c-3 -6 -4 -13 -6 -25c-2 -13 -2 -19 -2 -19l-1 -38c0 -8 6 -14 14 -14h88v20v92s1 52 5 72c3 20 9 38 19 53c7 10 16 18 26 24c13 8 34 13 57 17
c8 0 11 -4 11 -12v-24c0 -8 -6 -14 -14 -14c-11 -2 -19 -5 -25 -8s-10 -6 -13 -11c-2 -3 -4 -7 -6 -12c-3 -6 -4 -14 -6 -26c-2 -13 -2 -19 -2 -19l-2 -37c0 -8 6 -14 14 -14h59c2 0 4 1 6 1h12h28h22c7 0 14 -6 14 -14v-442c0 -8 6 -15 14 -15h12z" />
    <glyph glyph-name="ffl" unicode="&#xfb04;" horiz-adv-x="513" 
d="M428 54c8 0 15 -6 15 -14v-21c0 -8 -7 -15 -15 -15h-101c-8 0 -14 7 -14 15v21c0 8 6 14 14 14h12c7 0 14 7 14 15v618c0 8 -7 14 -14 14h-39c-11 -2 -19 -5 -25 -8s-10 -6 -13 -11c-2 -3 -4 -7 -6 -12c-3 -6 -4 -14 -6 -26c-2 -13 -2 -19 -2 -19l-2 -188
c0 -8 6 -14 14 -14h42c8 0 15 -6 15 -14v-22c0 -8 -7 -14 -15 -14h-42c-8 0 -14 -6 -14 -14v-290c0 -8 6 -15 14 -15h12c7 0 14 -6 14 -14v-21c0 -8 -7 -15 -14 -15h-102c-8 0 -14 7 -14 15v21c0 8 6 14 14 14h12c8 0 14 7 14 15v304h-92c-8 0 -14 -6 -14 -14v-290
c0 -8 6 -15 14 -15h11c8 0 14 -6 14 -14v-21c0 -8 -6 -15 -14 -15h-101c-8 0 -14 7 -14 15v21c0 8 6 14 14 14h11c8 0 15 7 15 15v304l-1 61s1 52 5 72c3 20 9 38 19 53c7 10 16 18 26 24c13 8 35 14 58 17c8 0 10 -4 10 -12v-24c0 -8 -6 -14 -14 -14c-11 -2 -19 -5 -25 -8
s-10 -6 -13 -11c-2 -3 -4 -7 -6 -12c-3 -6 -4 -13 -6 -25c-2 -13 -2 -19 -2 -19l-1 -38c0 -8 6 -14 14 -14h92v162s1 52 5 72c3 20 9 38 19 53c7 10 16 18 26 24c13 8 34 13 57 17c4 0 12 0 20 -1c1 1 3 1 4 1h62c7 0 14 -6 14 -14v-668c0 -8 6 -15 14 -15h11z" />
    <glyph glyph-name="Lcaron" unicode="&#x13d;" 
d="M247 681v-95c0 -7 -6 -14 -14 -14h-22c-8 0 -15 7 -15 14v29c0 7 0 13 -2 14c-11 0 -20 9 -20 21v31c0 12 9 21 20 21h32c11 0 21 -9 21 -21zM496 90c8 0 14 -6 14 -14v-62c0 -8 -6 -14 -14 -14h-482c-8 0 -14 6 -14 14v22c0 8 6 14 14 14h12c8 0 14 6 14 14v569
c0 8 -6 14 -14 14h-12c-8 0 -14 7 -14 15v21c0 8 6 14 14 14h102c7 0 14 -6 14 -14v-21c0 -8 -7 -15 -14 -15h-12c-8 0 -14 -6 -14 -14v-569c0 -8 6 -14 14 -14h342c8 0 14 6 14 14v12c0 8 7 14 14 14h22z" />
    <glyph glyph-name="lcaron" unicode="&#x13e;" horiz-adv-x="200" 
d="M203 731v-95c0 -7 -6 -14 -14 -14h-22c-8 0 -15 7 -15 14v29c0 7 0 13 -2 14c-11 0 -20 9 -20 21v31c0 12 9 21 20 21h32c11 0 21 -9 21 -21zM91 739v-674c0 -8 6 -15 14 -15h11c8 0 15 -6 15 -14v-21c0 -8 -7 -15 -15 -15h-102c-8 0 -14 7 -14 15v21c0 8 6 14 14 14h12
c7 0 14 7 14 15v624c0 8 -7 14 -14 14h-12c-8 0 -14 7 -14 14v22c0 8 6 14 14 14h12h28h23c7 0 14 -6 14 -14z" />
    <glyph glyph-name="dcaron" unicode="&#x10f;" horiz-adv-x="480" 
d="M530 681v-95c0 -7 -6 -14 -14 -14h-22c-8 0 -15 7 -15 14v29c0 7 0 13 -2 14c-11 0 -20 9 -20 21v31c0 12 9 21 20 21h32c11 0 21 -9 21 -21zM61 356c-38 -37 -61 -89 -61 -147c0 -57 23 -108 60 -146c38 -38 88 -61 146 -61h150c8 0 14 7 14 15v619c0 7 6 14 14 14h12
c8 0 14 6 14 14v22c0 7 -6 14 -14 14h-62c-8 0 -14 -7 -14 -14v-257c-1 -7 -7 -11 -14 -12h-99c-57 0 -109 -23 -146 -61zM96 98c-29 29 -46 68 -46 111c0 44 17 83 46 112s68 46 111 46h103c5 -1 9 -5 10 -11v-289c0 -8 -5 -14 -12 -15h-102c-43 0 -82 18 -110 46z" />
    <glyph glyph-name="tcaron" unicode="&#x165;" horiz-adv-x="228" 
d="M197 611v-95c0 -7 -6 -14 -14 -14h-22c-8 0 -15 7 -15 14v29c0 7 0 13 -2 14c-11 0 -20 9 -20 21v31c0 12 9 21 20 21h32c11 0 21 -9 21 -21zM144 46c8 0 14 -6 14 -14v-24c0 -8 -6 -14 -14 -14c-16 3 -41 11 -54 19c-10 6 -19 14 -26 24c-10 15 -16 33 -19 53
c-4 20 -5 72 -5 72v189c0 8 -7 15 -14 15h-12c-8 0 -14 6 -14 14v21c0 8 6 15 14 15h12c7 0 14 6 14 14v98c0 8 6 14 14 14h22c7 0 14 -6 14 -14v-98c0 -8 6 -14 14 -14h41c8 0 15 -7 15 -15v-21c0 -8 -7 -14 -15 -14h-41c-8 0 -14 -7 -14 -15v-196c0 -21 1 -38 3 -51
c2 -12 4 -21 7 -27c2 -5 4 -9 6 -12c3 -5 7 -8 13 -11s14 -6 25 -8z" />
    <glyph glyph-name="Racute" unicode="&#x154;" horiz-adv-x="599" 
d="M515 50c8 0 14 -6 14 -14v-22c0 -8 -6 -14 -14 -14h-101c-8 0 -14 6 -14 14v22c0 8 6 14 14 14h9c8 0 13 6 10 14l-91 207c-3 7 -6 11 -13 11h-22l-203 -1c-7 0 -13 -4 -14 -11v-206c0 -8 6 -14 14 -14h12c7 0 14 -6 14 -14v-22c0 -8 -7 -14 -14 -14h-102
c-8 0 -14 6 -14 14v22c0 8 6 14 14 14h12c8 0 14 6 14 14v569c0 8 -6 14 -14 14h-12c-8 0 -14 7 -14 15v21c0 8 6 14 14 14h293c58 0 110 -23 147 -60c38 -38 61 -90 61 -147c0 -58 -23 -110 -61 -147c-17 -17 -37 -32 -59 -42c-5 -4 -7 -11 -5 -17l95 -220
c3 -8 11 -14 19 -14h11zM99 332h208c44 0 83 18 112 46c28 29 46 68 46 112c0 43 -18 83 -46 111c-29 29 -68 46 -112 46h-205c-7 0 -12 -6 -12 -14v-291c1 -5 4 -8 9 -10zM213 764l54 67c4 6 9 11 17 11h77c7 0 9 -8 3 -13l-91 -68c-6 -4 -11 -8 -18 -8h-38
c-7 0 -9 5 -4 11z" />
    <glyph glyph-name="Lacute" unicode="&#x139;" 
d="M496 90c8 0 14 -6 14 -14v-62c0 -8 -6 -14 -14 -14h-482c-8 0 -14 6 -14 14v22c0 8 6 14 14 14h12c8 0 14 6 14 14v569c0 8 -6 14 -14 14h-12c-8 0 -14 7 -14 15v21c0 8 6 14 14 14h102c7 0 14 -6 14 -14v-21c0 -8 -7 -15 -14 -15h-12c-8 0 -14 -6 -14 -14v-569
c0 -8 6 -14 14 -14h342c8 0 14 6 14 14v12c0 8 7 14 14 14h22zM32 764l54 67c4 6 9 11 17 11h77c7 0 9 -8 3 -13l-91 -68c-6 -4 -11 -8 -18 -8h-38c-7 0 -9 5 -4 11z" />
    <glyph glyph-name="Cacute" unicode="&#x106;" horiz-adv-x="609" 
d="M50 455c-3 0 0 -140 0 -200s24 -114 63 -154c40 -39 94 -63 154 -63c44 0 84 12 118 34s61 53 79 90v0c4 7 12 10 19 6l19 -9c7 -3 10 -12 7 -19v0c-22 -45 -55 -83 -97 -110s-91 -42 -145 -42c-74 0 -141 30 -189 78s-79 119 -79 193c-1 9 2 195 1 196
c0 74 30 141 78 189s115 78 189 78c54 0 103 -15 145 -42s75 -65 97 -110v0c3 -7 0 -16 -7 -19l-19 -9c-7 -4 -15 -1 -19 6v0c-18 37 -45 68 -79 90s-74 34 -118 34c-60 0 -114 -24 -154 -63c-39 -40 -63 -94 -63 -154zM218 764l54 67c4 6 9 11 17 11h77c7 0 9 -8 3 -13
l-91 -68c-6 -4 -11 -8 -18 -8h-38c-7 0 -9 5 -4 11z" />
    <glyph glyph-name="Ecaron" unicode="&#x11a;" 
d="M14 696l482 1c8 0 14 -6 14 -14v-21v-29v-11c0 -8 -6 -14 -14 -14h-22c-7 0 -14 6 -14 14v11c0 8 -6 14 -14 14l-342 -1c-8 0 -14 -6 -14 -14v-245c0 -8 6 -15 14 -15h255c8 0 15 7 15 15v11c0 8 6 14 14 14h21c8 0 15 -6 15 -14v-11v-29v-21v-29v-11
c0 -8 -7 -15 -15 -15h-21c-8 0 -14 7 -14 15v11c0 8 -7 14 -15 14h-255c-8 0 -14 -6 -14 -14v-244c0 -8 6 -14 14 -14h342c8 0 14 6 14 14v12c0 8 7 14 14 14h22c8 0 14 -6 14 -14v-12v-28v-22c0 -8 -6 -14 -14 -14h-482c-8 0 -14 6 -14 14v20c0 8 6 15 14 15l12 1
c8 0 14 6 14 14v568c0 8 -6 14 -14 15h-12c-8 0 -14 7 -14 15v20c0 8 6 14 14 14zM368 838c8 0 10 -8 3 -13l-64 -68c-7 -4 -14 -8 -23 -8h-12h-37h-11c-10 0 -16 4 -24 8l-64 68c-6 5 -4 13 4 13h49c8 0 13 -5 18 -11l39 -35s6 -6 8 -6c3 0 8 6 8 6l39 35c5 6 10 11 18 11
h49z" />
    <glyph glyph-name="Ccaron" unicode="&#x10c;" horiz-adv-x="609" 
d="M50 455c-3 0 0 -140 0 -200s24 -114 63 -154c40 -39 94 -63 154 -63c44 0 84 12 118 34s61 53 79 90v0c4 7 12 10 19 6l19 -9c7 -3 10 -12 7 -19v0c-22 -45 -55 -83 -97 -110s-91 -42 -145 -42c-74 0 -141 30 -189 78s-79 119 -79 193c-1 9 2 195 1 196
c0 74 30 141 78 189s115 78 189 78c54 0 103 -15 145 -42s75 -65 97 -110v0c3 -7 0 -16 -7 -19l-19 -9c-7 -4 -15 -1 -19 6v0c-18 37 -45 68 -79 90s-74 34 -118 34c-60 0 -114 -24 -154 -63c-39 -40 -63 -94 -63 -154zM372 838c8 0 10 -8 3 -13l-64 -68
c-7 -4 -14 -8 -23 -8h-12h-37h-11c-10 0 -16 4 -24 8l-64 68c-6 5 -4 13 4 13h49c8 0 13 -5 18 -11l39 -35s6 -6 8 -6c3 0 8 6 8 6l39 35c5 6 10 11 18 11h49z" />
    <glyph glyph-name="Dcaron" unicode="&#x10e;" horiz-adv-x="624" 
d="M492 617c41 -49 62 -115 62 -187l-1 -162c0 -54 -12 -105 -35 -147c-23 -43 -57 -78 -102 -99c-30 -14 -63 -22 -100 -22v0h-302c-8 0 -14 6 -14 14v22c0 8 6 14 14 14h12c8 0 14 6 14 14v569c0 8 -6 14 -14 14h-12c-8 0 -14 7 -14 15v21c0 8 6 14 14 14h12h28h12h14h14
h222c37 0 71 -7 100 -21c30 -14 55 -34 76 -59zM503 268l1 162c0 46 -11 89 -29 124c-19 34 -46 61 -80 77c-23 10 -49 16 -79 16v0v0v0h-212c-8 0 -14 -6 -14 -14v-569c0 -8 6 -14 14 -14h212v0c30 0 56 6 79 17s42 26 58 45c32 39 50 94 50 156zM380 838c8 0 10 -8 3 -13
l-64 -68c-7 -4 -14 -8 -23 -8h-12h-37h-11c-10 0 -16 4 -24 8l-64 68c-6 5 -4 13 4 13h49c8 0 13 -5 18 -11l39 -35s6 -6 8 -6c3 0 8 6 8 6l39 35c5 6 10 11 18 11h49z" />
    <glyph glyph-name="Ncaron" unicode="&#x147;" horiz-adv-x="681" 
d="M591 647c-11 0 -20 -9 -20 -21v-555c0 -12 9 -21 20 -21s20 -10 20 -22v-7c0 -12 -9 -21 -20 -21h-41h-8h-21s-6 8 -12 17l-407 581c-7 9 -12 8 -12 -4v-523c0 -12 9 -21 20 -21s20 -10 20 -22v-7c0 -12 -9 -21 -20 -21h-41h-8h-41s-20 9 -20 21v7c0 12 9 22 20 22
s20 9 20 21v555c0 12 -9 21 -20 21s-20 10 -20 21v8c0 12 10 21 21 21h50h22c0 1 6 -7 13 -17l403 -576c6 -9 12 -7 12 4v518c0 12 -9 21 -20 21s-20 10 -20 21v8c0 12 10 21 21 21h88c11 0 21 -9 21 -21v-8c0 -11 -9 -21 -20 -21zM418 838c8 0 10 -8 3 -13l-64 -68
c-7 -4 -14 -8 -23 -8h-12h-37h-11c-10 0 -16 4 -24 8l-64 68c-6 5 -4 13 4 13h49c8 0 13 -5 18 -11l39 -35s6 -6 8 -6c3 0 8 6 8 6l39 35c5 6 10 11 18 11h49z" />
    <glyph glyph-name="Rcaron" unicode="&#x158;" horiz-adv-x="599" 
d="M515 50c8 0 14 -6 14 -14v-22c0 -8 -6 -14 -14 -14h-101c-8 0 -14 6 -14 14v22c0 8 6 14 14 14h9c8 0 13 6 10 14l-91 207c-3 7 -6 11 -13 11h-22l-203 -1c-7 0 -13 -4 -14 -11v-206c0 -8 6 -14 14 -14h12c7 0 14 -6 14 -14v-22c0 -8 -7 -14 -14 -14h-102
c-8 0 -14 6 -14 14v22c0 8 6 14 14 14h12c8 0 14 6 14 14v569c0 8 -6 14 -14 14h-12c-8 0 -14 7 -14 15v21c0 8 6 14 14 14h293c58 0 110 -23 147 -60c38 -38 61 -90 61 -147c0 -58 -23 -110 -61 -147c-17 -17 -37 -32 -59 -42c-5 -4 -7 -11 -5 -17l95 -220
c3 -8 11 -14 19 -14h11zM99 332h208c44 0 83 18 112 46c28 29 46 68 46 112c0 43 -18 83 -46 111c-29 29 -68 46 -112 46h-205c-7 0 -12 -6 -12 -14v-291c1 -5 4 -8 9 -10zM357 838c8 0 10 -8 3 -13l-64 -68c-7 -4 -14 -8 -23 -8h-12h-37h-11c-10 0 -16 4 -24 8l-64 68
c-6 5 -4 13 4 13h49c8 0 13 -5 18 -11l39 -35s6 -6 8 -6c3 0 8 6 8 6l39 35c5 6 10 11 18 11h49z" />
    <glyph glyph-name="Uring" unicode="&#x16e;" horiz-adv-x="665" 
d="M581 700c8 0 14 -6 14 -14v-22c0 -8 -6 -14 -14 -14h-12c-7 0 -14 -6 -14 -14v-380h1c0 -74 -30 -141 -79 -190c-48 -48 -105 -78 -179 -78v0c-74 0 -131 30 -179 78c-47 47 -77 112 -79 183v0v387c0 8 -6 14 -14 14h-11c-8 0 -15 6 -15 14v22c0 8 7 14 15 14h101
c8 0 14 -6 14 -14v-22c0 -8 -6 -14 -14 -14h-12c-7 0 -14 -6 -14 -14v-380v0c0 -60 25 -115 64 -154c40 -40 84 -64 144 -64s104 24 144 64c38 38 62 90 64 147h-1v387c0 8 -6 14 -14 14h-11c-8 0 -15 6 -15 14v22c0 8 7 14 15 14h11h28h22h28h12zM201 852
c0 56 45 101 101 101v0c56 0 101 -45 101 -101v0c0 -55 -45 -101 -101 -101v0c-56 0 -101 46 -101 101zM257 898c-12 -12 -19 -28 -19 -46v0c0 -17 7 -33 19 -45v0c11 -11 27 -19 45 -19v0c18 0 34 8 45 19v0c12 12 19 28 19 45v0c0 18 -7 34 -19 46v0c-11 11 -27 18 -45 18
v0c-18 0 -34 -7 -45 -18z" />
    <glyph glyph-name="racute" unicode="&#x155;" horiz-adv-x="327" 
d="M248 412c6 0 9 -6 9 -14v-22c0 -8 -3 -14 -9 -14v0v0h-1c-9 1 -18 2 -28 2c-21 0 -40 -4 -56 -12c-16 -7 -29 -18 -40 -32c-18 -23 -30 -54 -33 -90v-168v-3h1c1 -6 7 -11 14 -11h11c8 0 14 -6 14 -14v-22c0 -7 -6 -14 -14 -14h-1h-11h-29h-21h-39c-8 0 -14 7 -14 14v22
c0 8 6 14 14 14h11c6 0 11 4 13 9l1 295c0 8 -7 15 -14 15h-12c-8 0 -14 6 -14 14v21c0 8 6 15 14 15h12h28h22c7 0 14 -7 14 -15v-21v-23c14 16 31 30 52 40c23 10 49 16 77 16c10 0 20 0 29 -2zM87 475l54 67c4 6 9 11 17 11h77c7 0 9 -8 3 -13l-91 -68
c-6 -4 -11 -8 -18 -8h-38c-7 0 -9 5 -4 11z" />
    <glyph glyph-name="lacute" unicode="&#x13a;" horiz-adv-x="200" 
d="M91 65v674c0 8 -7 14 -14 14h-23h-28h-12c-8 0 -14 -6 -14 -14v-22c0 -7 6 -14 14 -14h12c7 0 14 -6 14 -14v-624c0 -8 -7 -15 -14 -15h-12c-8 0 -14 -6 -14 -14v-21c0 -8 6 -15 14 -15h102c8 0 15 7 15 15v21c0 8 -7 14 -15 14h-11c-8 0 -14 7 -14 15zM24 806l54 67
c4 6 9 11 17 11h77c7 0 9 -8 3 -13l-91 -68c-6 -4 -11 -8 -18 -8h-38c-7 0 -9 5 -4 11z" />
    <glyph glyph-name="cacute" unicode="&#x107;" horiz-adv-x="461" 
d="M62 290c-8 -16 -12 -32 -12 -50v-61c0 -15 3 -30 9 -44c25 -57 89 -87 148 -87h12c23 1 46 5 68 12s46 18 61 37h-1c5 7 13 8 19 3l19 -15c6 -4 7 -12 2 -19v0c-4 -5 -9 -9 -13 -14c-24 -22 -55 -36 -86 -44c-22 -6 -45 -9 -68 -10h-13c-36 0 -73 8 -105 25
c-56 29 -98 83 -102 146v0v8v73v0c2 38 19 74 44 102c41 46 103 69 163 69c5 0 9 1 13 0h4c28 -1 56 -6 83 -16c30 -10 59 -26 80 -52v0c5 -6 4 -14 -2 -19l-19 -14c-5 -5 -13 -4 -18 2v0c-16 21 -43 32 -68 39c-19 6 -40 10 -61 10h-12c-57 0 -119 -27 -145 -81zM164 475
l54 67c4 6 9 11 17 11h77c7 0 9 -8 3 -13l-91 -68c-6 -4 -11 -8 -18 -8h-38c-7 0 -9 5 -4 11z" />
    <glyph glyph-name="ccaron" unicode="&#x10d;" horiz-adv-x="461" 
d="M62 290c-8 -16 -12 -32 -12 -50v-61c0 -15 3 -30 9 -44c25 -57 89 -87 148 -87h12c23 1 46 5 68 12s46 18 61 37h-1c5 7 13 8 19 3l19 -15c6 -4 7 -12 2 -19v0c-4 -5 -9 -9 -13 -14c-24 -22 -55 -36 -86 -44c-22 -6 -45 -9 -68 -10h-13c-36 0 -73 8 -105 25
c-56 29 -98 83 -102 146v0v8v73v0c2 38 19 74 44 102c41 46 103 69 163 69c5 0 9 1 13 0h4c28 -1 56 -6 83 -16c30 -10 59 -26 80 -52v0c5 -6 4 -14 -2 -19l-19 -14c-5 -5 -13 -4 -18 2v0c-16 21 -43 32 -68 39c-19 6 -40 10 -61 10h-12c-57 0 -119 -27 -145 -81zM324 549
c8 0 10 -8 3 -13l-64 -68c-7 -4 -14 -8 -23 -8h-12h-37h-11c-10 0 -16 4 -24 8l-64 68c-6 5 -4 13 4 13h49c8 0 13 -5 18 -11l39 -35s6 -6 8 -6c3 0 8 6 8 6l39 35c5 6 10 11 18 11h49z" />
    <glyph glyph-name="ecaron" unicode="&#x11b;" horiz-adv-x="498" 
d="M427 250c1 -13 1 -26 1 -39c0 -8 -7 -14 -15 -14h-13v-1h-350v-17c0 -15 3 -30 9 -44c25 -57 89 -87 148 -87h12c23 1 46 5 68 12s46 18 61 37h-1c5 7 13 8 19 3l19 -15c6 -4 7 -12 2 -19v0c-4 -5 -8 -9 -13 -14c-24 -22 -55 -36 -86 -44c-22 -6 -45 -9 -68 -10h-13
c-39 0 -79 10 -114 30c-54 31 -93 87 -93 151v71v0c3 49 29 94 68 125c23 18 50 31 78 39c15 4 30 6 46 7c9 1 19 0 28 0c37 0 74 -8 106 -25c55 -29 98 -83 101 -146zM366 247c8 0 11 4 9 14v0c-1 8 -4 16 -7 23c-24 58 -88 87 -148 87c-17 0 -33 0 -49 -3
c-60 -12 -118 -57 -121 -122h186v1h130zM333 549c8 0 10 -8 3 -13l-64 -68c-7 -4 -14 -8 -23 -8h-12h-37h-11c-10 0 -16 4 -24 8l-64 68c-6 5 -4 13 4 13h49c8 0 13 -5 18 -11l39 -35s6 -6 8 -6c3 0 8 6 8 6l39 35c5 6 10 11 18 11h49z" />
    <glyph glyph-name="nacute" unicode="&#x144;" horiz-adv-x="510" 
d="M426 50c8 0 14 -7 14 -14v-22c0 -8 -6 -14 -14 -14h-102c-7 0 -14 6 -14 14v22c0 7 7 14 14 14h12c8 0 14 6 14 14l1 142v1v1c0 35 -7 65 -20 90s-31 43 -54 55c-16 7 -35 11 -56 11c-22 0 -41 -4 -56 -12c-16 -7 -29 -18 -40 -32c-19 -23 -30 -54 -34 -90v-8h-1v-161
c1 -6 7 -11 14 -11h11c8 0 15 -7 15 -14v-22c0 -8 -7 -14 -15 -14h-101c-8 0 -14 6 -14 14v22c0 7 6 14 14 14h11c8 0 15 6 15 14l1 288c0 8 -6 15 -14 15h-12c-7 0 -14 6 -14 14v21c0 8 7 15 14 15h12h50c8 0 14 -7 14 -15v-21v-23c14 16 32 30 52 40c23 10 49 16 78 16
c28 0 54 -5 77 -16s42 -27 57 -46c31 -38 46 -89 46 -144v-1v0v-134h-1v-9c0 -8 6 -14 14 -14h12zM169 475l54 67c4 6 9 11 17 11h77c7 0 9 -8 3 -13l-91 -68c-6 -4 -11 -8 -18 -8h-38c-7 0 -9 5 -4 11z" />
    <glyph glyph-name="ncaron" unicode="&#x148;" horiz-adv-x="510" 
d="M426 50c8 0 14 -7 14 -14v-22c0 -8 -6 -14 -14 -14h-102c-7 0 -14 6 -14 14v22c0 7 7 14 14 14h12c8 0 14 6 14 14l1 142v1v1c0 35 -7 65 -20 90s-31 43 -54 55c-16 7 -35 11 -56 11c-22 0 -41 -4 -56 -12c-16 -7 -29 -18 -40 -32c-19 -23 -30 -54 -34 -90v-8h-1v-161
c1 -6 7 -11 14 -11h11c8 0 15 -7 15 -14v-22c0 -8 -7 -14 -15 -14h-101c-8 0 -14 6 -14 14v22c0 7 6 14 14 14h11c8 0 15 6 15 14l1 288c0 8 -6 15 -14 15h-12c-7 0 -14 6 -14 14v21c0 8 7 15 14 15h12h50c8 0 14 -7 14 -15v-21v-23c14 16 32 30 52 40c23 10 49 16 78 16
c28 0 54 -5 77 -16s42 -27 57 -46c31 -38 46 -89 46 -144v-1v0v-134h-1v-9c0 -8 6 -14 14 -14h12zM339 549c8 0 10 -8 3 -13l-64 -68c-7 -4 -14 -8 -23 -8h-12h-37h-11c-10 0 -16 4 -24 8l-64 68c-6 5 -4 13 4 13h49c8 0 13 -5 18 -11l39 -35s6 -6 8 -6c3 0 8 6 8 6l39 35
c5 6 10 11 18 11h49z" />
    <glyph glyph-name="rcaron" unicode="&#x159;" horiz-adv-x="327" 
d="M248 412c6 0 9 -6 9 -14v-22c0 -8 -3 -14 -9 -14v0v0h-1c-9 1 -18 2 -28 2c-21 0 -40 -4 -56 -12c-16 -7 -29 -18 -40 -32c-18 -23 -30 -54 -33 -90v-168v-3h1c1 -6 7 -11 14 -11h11c8 0 14 -6 14 -14v-22c0 -7 -6 -14 -14 -14h-1h-11h-29h-21h-39c-8 0 -14 7 -14 14v22
c0 8 6 14 14 14h11c6 0 11 4 13 9l1 295c0 8 -7 15 -14 15h-12c-8 0 -14 6 -14 14v21c0 8 6 15 14 15h12h28h22c7 0 14 -7 14 -15v-21v-23c14 16 31 30 52 40c23 10 49 16 77 16c10 0 20 0 29 -2zM257 549c8 0 10 -8 3 -13l-64 -68c-7 -4 -14 -8 -23 -8h-12h-37h-11
c-10 0 -16 4 -24 8l-64 68c-6 5 -4 13 4 13h49c8 0 13 -5 18 -11l39 -35s6 -6 8 -6c3 0 8 6 8 6l39 35c5 6 10 11 18 11h49z" />
    <glyph glyph-name="uring" unicode="&#x16f;" horiz-adv-x="509" 
d="M425 49c8 0 14 -6 14 -14v-21c0 -8 -6 -14 -14 -14h-11h-29h-21c-8 0 -14 6 -14 14v20v23c-15 -17 -32 -30 -53 -40c-22 -11 -49 -17 -77 -17v0c-29 0 -55 6 -77 17c-23 11 -43 27 -58 46c-31 38 -45 89 -45 143v2v144c0 8 -7 15 -15 15h-11c-8 0 -14 6 -14 14v21
c0 8 6 15 14 15h11h29h21c8 0 15 -7 15 -15v-194v0v-2c0 -34 7 -65 19 -89c13 -25 31 -44 55 -55c16 -7 34 -11 56 -12c22 1 40 5 56 12c16 8 29 19 40 33c18 22 30 54 34 90v7v160c0 8 -6 15 -14 15h-11c-8 0 -15 6 -15 14v21c0 8 7 15 15 15h11h29h21c8 0 14 -7 14 -15
v-13h1l-1 -326c0 -8 6 -14 14 -14h11zM105 563c0 56 45 101 101 101v0c56 0 101 -45 101 -101v0c0 -55 -45 -101 -101 -101v0c-56 0 -101 46 -101 101zM161 609c-12 -12 -19 -28 -19 -46v0c0 -17 7 -33 19 -45v0c11 -11 27 -19 45 -19v0c18 0 34 8 45 19v0
c12 12 19 28 19 45v0c0 18 -7 34 -19 46v0c-11 11 -27 18 -45 18v0c-18 0 -34 -7 -45 -18z" />
    <glyph glyph-name="Tcaron" unicode="&#x164;" horiz-adv-x="660" 
d="M576 696c8 0 14 -6 14 -14v-62c0 -7 -6 -14 -14 -14h-22c-7 0 -14 7 -14 14v12c0 8 -6 14 -14 14h-198c-5 -2 -8 -7 -8 -13v-569c0 -8 6 -14 14 -14h12c8 0 14 -6 14 -14v-22c0 -8 -6 -14 -14 -14h-102c-7 0 -14 6 -14 14v22c0 8 7 14 14 14h12c8 0 14 6 14 14v569
c0 6 -3 11 -8 13h-198c-8 0 -14 -6 -14 -14v-12c0 -7 -6 -14 -14 -14h-22c-8 0 -14 7 -14 14v62c0 8 6 14 14 14h562zM408 838c8 0 10 -8 3 -13l-64 -68c-7 -4 -14 -8 -23 -8h-12h-37h-11c-10 0 -16 4 -24 8l-64 68c-6 5 -4 13 4 13h49c8 0 13 -5 18 -11l39 -35s6 -6 8 -6
c3 0 8 6 8 6l39 35c5 6 10 11 18 11h49z" />
    <glyph glyph-name="Zacute" unicode="&#x179;" 
d="M506 654c-1 -2 -423 -593 -423 -593c-5 -6 -3 -11 5 -11h358c8 0 14 6 14 14v11c0 8 6 15 14 15h22c8 0 14 -7 14 -15v-61c0 -8 -6 -14 -14 -14h-482c-8 0 -14 6 -14 14v22c0 5 2 7 4 9s5 6 6 6c0 1 417 587 417 587c5 6 3 11 -5 11h-358c-8 0 -14 -7 -14 -14v-12
c0 -8 -7 -14 -14 -14h-22c-8 0 -14 6 -14 14v12v50c0 7 6 14 14 14h482c8 0 14 -7 14 -14v-22c0 -4 -1 -6 -4 -9zM204 764l54 67c4 6 9 11 17 11h77c7 0 9 -8 3 -13l-91 -68c-6 -4 -11 -8 -18 -8h-38c-7 0 -9 5 -4 11z" />
    <glyph glyph-name="Zdotaccent" unicode="&#x17b;" 
d="M506 654c-1 -2 -423 -593 -423 -593c-5 -6 -3 -11 5 -11h358c8 0 14 6 14 14v11c0 8 6 15 14 15h22c8 0 14 -7 14 -15v-61c0 -8 -6 -14 -14 -14h-482c-8 0 -14 6 -14 14v22c0 5 2 7 4 9s5 6 6 6c0 1 417 587 417 587c5 6 3 11 -5 11h-358c-8 0 -14 -7 -14 -14v-12
c0 -8 -7 -14 -14 -14h-22c-8 0 -14 6 -14 14v12v50c0 7 6 14 14 14h482c8 0 14 -7 14 -14v-22c0 -4 -1 -6 -4 -9zM302 807v-32c0 -12 -10 -21 -21 -21h-32c-11 0 -20 9 -20 21v32c0 11 9 20 20 20h32c11 0 21 -9 21 -20z" />
    <glyph glyph-name="commaaccent" horiz-adv-x="281" 
d="M127 -409v-95c0 -7 -6 -14 -14 -14h-22c-8 0 -15 7 -15 14v29c0 7 0 13 -2 14c-11 0 -20 9 -20 21v31c0 12 9 21 20 21h32c11 0 21 -9 21 -21z" />
    <glyph glyph-name="Sacute" unicode="&#x15a;" horiz-adv-x="536" 
d="M108 125c-4 -3 -5 -8 -4 -12c3 -6 6 -11 10 -15l19 -19v0c27 -22 63 -38 103 -40v1h12c45 0 87 17 116 43c30 26 48 61 48 100s-18 74 -48 100c-29 27 -71 44 -116 44v0l-20 1c-58 0 -111 21 -151 56c-40 34 -64 84 -64 139s24 104 64 140c40 34 93 56 152 56v0
c53 0 103 -18 140 -47v0l3 -3c10 -7 18 -16 26 -25c6 -3 13 -2 18 3l8 9c6 5 15 5 21 0l16 -16c6 -6 6 -16 0 -21l-75 -75c-5 -6 -15 -6 -21 0l-16 16c-5 6 -5 15 0 21l9 8c6 6 6 16 0 21l-20 21c-29 21 -67 36 -109 36v0c-47 0 -88 -17 -118 -44c-29 -26 -46 -61 -46 -100
s17 -74 46 -100c30 -26 71 -43 118 -43v0l19 -1c59 0 112 -22 151 -56c39 -36 65 -86 65 -140c0 -55 -26 -105 -65 -139c-37 -33 -86 -54 -140 -56l-1 -1h-11c-69 0 -132 29 -171 76l-5 5c-5 5 -15 5 -21 0l-8 -8c-6 -7 -15 -7 -21 0l-16 15c-6 5 -6 15 0 21l75 75
c5 5 15 5 21 0l16 -17c5 -5 5 -14 0 -21zM182 764l54 67c4 6 9 11 17 11h77c7 0 9 -8 3 -13l-91 -68c-6 -4 -11 -8 -18 -8h-38c-7 0 -9 5 -4 11z" />
    <glyph glyph-name="sacute" unicode="&#x15b;" horiz-adv-x="435" 
d="M182 187c-25 0 -49 1 -72 4c-22 3 -43 9 -62 21c-13 7 -24 18 -32 31c-11 17 -16 39 -16 66c0 18 6 36 17 51c10 15 25 27 41 37c33 20 77 31 124 31c36 0 69 -6 97 -17c29 -12 53 -29 68 -51c10 -14 17 -31 18 -49c0 -8 -6 -14 -13 -14h-24c-7 0 -12 5 -14 12
c0 7 -2 14 -7 22c-6 8 -15 16 -27 23c-23 14 -59 24 -99 24c-29 0 -56 -5 -77 -14c-22 -9 -38 -21 -46 -33c-6 -8 -8 -15 -8 -24c0 -15 3 -26 6 -34c4 -8 9 -13 16 -18c5 -3 11 -6 18 -8c10 -3 21 -6 34 -7c11 -1 23 -2 36 -2h23c25 0 49 -1 72 -4c22 -3 43 -9 62 -21
c13 -7 24 -18 32 -31c11 -17 16 -39 16 -66c0 -18 -6 -36 -17 -51c-10 -15 -25 -27 -41 -37c-33 -20 -77 -31 -124 -31c-36 0 -69 6 -97 17c-29 12 -53 29 -68 51c-10 14 -17 31 -18 49c0 8 6 14 13 14h24c7 0 12 -5 14 -12c0 -7 2 -14 7 -22c6 -8 15 -16 27 -23
c23 -14 59 -24 99 -24c29 0 56 5 77 14c22 9 38 21 46 33c6 8 8 15 8 24c0 15 -3 26 -6 34c-4 8 -9 13 -16 18c-5 3 -11 6 -18 8c-10 3 -21 6 -34 7c-11 1 -23 2 -36 2h-23zM131 475l54 67c4 6 9 11 17 11h77c7 0 9 -8 3 -13l-91 -68c-6 -4 -11 -8 -18 -8h-38
c-7 0 -9 5 -4 11z" />
    <glyph glyph-name="zdotaccent" unicode="&#x17c;" horiz-adv-x="397" 
d="M323 379c-1 -2 -240 -318 -240 -318c-5 -6 -3 -11 5 -11h175c8 0 14 6 14 14v11c0 8 6 15 14 15h22c8 0 14 -7 14 -15v-61c0 -8 -6 -14 -14 -14h-299c-8 0 -14 6 -14 14v22c0 5 2 7 4 9s5 6 6 6c0 1 234 312 234 312c5 6 3 11 -5 11h-175c-8 0 -14 -7 -14 -14v-12
c0 -8 -7 -14 -14 -14h-22c-8 0 -14 6 -14 14v12v50c0 7 6 14 14 14h299c8 0 14 -7 14 -14v-22c0 -4 -1 -6 -4 -9zM205 518v-32c0 -12 -10 -21 -21 -21h-32c-11 0 -20 9 -20 21v32c0 11 9 20 20 20h32c11 0 21 -9 21 -20z" />
    <glyph glyph-name="Nacute" unicode="&#x143;" horiz-adv-x="681" 
d="M591 647c-11 0 -20 -9 -20 -21v-555c0 -12 9 -21 20 -21s20 -10 20 -22v-7c0 -12 -9 -21 -20 -21h-41h-8h-21s-6 8 -12 17l-407 581c-7 9 -12 8 -12 -4v-523c0 -12 9 -21 20 -21s20 -10 20 -22v-7c0 -12 -9 -21 -20 -21h-41h-8h-41s-20 9 -20 21v7c0 12 9 22 20 22
s20 9 20 21v555c0 12 -9 21 -20 21s-20 10 -20 21v8c0 12 10 21 21 21h50h22c0 1 6 -7 13 -17l403 -576c6 -9 12 -7 12 4v518c0 12 -9 21 -20 21s-20 10 -20 21v8c0 12 10 21 21 21h88c11 0 21 -9 21 -21v-8c0 -11 -9 -21 -20 -21zM264 764l54 67c4 6 9 11 17 11h77
c7 0 9 -8 3 -13l-91 -68c-6 -4 -11 -8 -18 -8h-38c-7 0 -9 5 -4 11z" />
    <glyph glyph-name="Tcommaaccent" unicode="&#x162;" horiz-adv-x="660" 
d="M576 696c8 0 14 -6 14 -14v-62c0 -7 -6 -14 -14 -14h-22c-7 0 -14 7 -14 14v12c0 8 -6 14 -14 14h-198c-5 -2 -8 -7 -8 -13v-569c0 -8 6 -14 14 -14h12c8 0 14 -6 14 -14v-22c0 -8 -6 -14 -14 -14h-102c-7 0 -14 6 -14 14v22c0 8 7 14 14 14h12c8 0 14 6 14 14v569
c0 6 -3 11 -8 13h-198c-8 0 -14 -6 -14 -14v-12c0 -7 -6 -14 -14 -14h-22c-8 0 -14 7 -14 14v62c0 8 6 14 14 14h562zM316 -120v-95c0 -7 -6 -14 -14 -14h-22c-8 0 -15 7 -15 14v29c0 7 0 13 -2 14c-11 0 -20 9 -20 21v31c0 12 9 21 20 21h32c11 0 21 -9 21 -21z" />
    <glyph glyph-name="Scommaaccent" unicode="&#x218;" horiz-adv-x="536" 
d="M287 -119v-95c0 -7 -6 -14 -14 -14h-22c-8 0 -15 7 -15 14v29c0 7 0 13 -2 14c-11 0 -20 9 -20 21v31c0 12 9 21 20 21h32c11 0 21 -9 21 -21zM108 125c-4 -3 -5 -8 -4 -12c3 -6 6 -11 10 -15l19 -19v0c27 -22 63 -38 103 -40v1h12c45 0 87 17 116 43c30 26 48 61 48 100
s-18 74 -48 100c-29 27 -71 44 -116 44v0l-20 1c-58 0 -111 21 -151 56c-40 34 -64 84 -64 139s24 104 64 140c40 34 93 56 152 56v0c53 0 103 -18 140 -47v0l3 -3c10 -7 18 -16 26 -25c6 -3 13 -2 18 3l8 9c6 5 15 5 21 0l16 -16c6 -6 6 -16 0 -21l-75 -75
c-5 -6 -15 -6 -21 0l-16 16c-5 6 -5 15 0 21l9 8c6 6 6 16 0 21l-20 21c-29 21 -67 36 -109 36v0c-47 0 -88 -17 -118 -44c-29 -26 -46 -61 -46 -100s17 -74 46 -100c30 -26 71 -43 118 -43v0l19 -1c59 0 112 -22 151 -56c39 -36 65 -86 65 -140c0 -55 -26 -105 -65 -139
c-37 -33 -86 -54 -140 -56l-1 -1h-11c-69 0 -132 29 -171 76l-5 5c-5 5 -15 5 -21 0l-8 -8c-6 -7 -15 -7 -21 0l-16 15c-6 5 -6 15 0 21l75 75c5 5 15 5 21 0l16 -17c5 -5 5 -14 0 -21z" />
    <glyph glyph-name="Euro" unicode="&#x20ac;" horiz-adv-x="572" 
d="M492 35l4 11c-31 -21 -82 -41 -148 -41c-78 0 -153 35 -202 88c-36 43 -62 103 -73 181h-63v31h59v25c0 9 1 16 1 24v32h-60v32h67c13 77 44 136 82 178c51 52 116 81 198 81c56 0 96 -14 124 -28c-6 -18 -9 -31 -14 -48c-27 12 -66 24 -109 24c-58 0 -106 -20 -144 -60
c-32 -31 -54 -84 -66 -147h290v-32h-298v-31c0 -8 -1 -15 -1 -22v-28h299v-31h-293c9 -70 30 -119 61 -152c40 -43 94 -63 152 -63c49 0 92 16 118 29z" />
    <glyph glyph-name="umacron" unicode="&#x16b;" horiz-adv-x="509" 
d="M425 49c8 0 14 -6 14 -14v-21c0 -8 -6 -14 -14 -14h-11h-29h-21c-8 0 -14 6 -14 14v20v23c-15 -17 -32 -30 -53 -40c-22 -11 -49 -17 -77 -17v0c-29 0 -55 6 -77 17c-23 11 -43 27 -58 46c-31 38 -45 89 -45 143v2v144c0 8 -7 15 -15 15h-11c-8 0 -14 6 -14 14v21
c0 8 6 15 14 15h11h29h21c8 0 15 -7 15 -15v-194v0v-2c0 -34 7 -65 19 -89c13 -25 31 -44 55 -55c16 -7 34 -11 56 -12c22 1 40 5 56 12c16 8 29 19 40 33c18 22 30 54 34 90v7v160c0 8 -6 15 -14 15h-11c-8 0 -15 6 -15 14v21c0 8 7 15 15 15h11h29h21c8 0 14 -7 14 -15
v-13h1l-1 -326c0 -8 6 -14 14 -14h11zM26 505c0 7 7 14 14 14h349c8 0 14 -7 14 -14v-22c0 -8 -6 -14 -14 -14h-349c-7 0 -14 6 -14 14v22z" />
    <glyph glyph-name="Umacron" unicode="&#x16a;" horiz-adv-x="665" 
d="M581 700c8 0 14 -6 14 -14v-22c0 -8 -6 -14 -14 -14h-12c-7 0 -14 -6 -14 -14v-380h1c0 -74 -30 -141 -79 -190c-48 -48 -105 -78 -179 -78v0c-74 0 -131 30 -179 78c-47 47 -77 112 -79 183v0v387c0 8 -6 14 -14 14h-11c-8 0 -15 6 -15 14v22c0 8 7 14 15 14h101
c8 0 14 -6 14 -14v-22c0 -8 -6 -14 -14 -14h-12c-7 0 -14 -6 -14 -14v-380v0c0 -60 25 -115 64 -154c40 -40 84 -64 144 -64s104 24 144 64c38 38 62 90 64 147h-1v387c0 8 -6 14 -14 14h-11c-8 0 -15 6 -15 14v22c0 8 7 14 15 14h11h28h22h28h12zM114 794c0 7 7 14 14 14
h349c8 0 14 -7 14 -14v-22c0 -8 -6 -14 -14 -14h-349c-7 0 -14 6 -14 14v22z" />
    <glyph glyph-name="kcommaaccent" unicode="&#x137;" horiz-adv-x="443" 
d="M290 352l-119 -95c-6 -5 -6 -15 -2 -21l160 -174c5 -6 15 -11 23 -11h5c8 0 14 -7 14 -14v-22c0 -8 -6 -14 -14 -14h-102c-7 0 -14 6 -14 14v22c0 7 7 14 14 14h5c8 0 11 5 6 11l-133 140c-5 6 -13 6 -19 1l-14 -13c-6 -5 -10 -16 -10 -24v-102c0 -8 6 -14 14 -14h11
c8 0 15 -7 15 -14v-22c0 -8 -7 -14 -15 -14h-101c-8 0 -14 6 -14 14v22c0 7 6 14 14 14h11c8 0 15 6 15 14v575c0 8 -7 14 -15 14h-11c-8 0 -14 7 -14 15v21c0 8 6 14 14 14h101c8 0 15 -6 15 -14v-21c0 -8 -7 -15 -15 -15h-11c-8 0 -14 -6 -14 -14v-375c0 -8 4 -10 10 -5
l117 93c6 5 4 9 -4 9c-7 0 -14 7 -14 15v21c0 8 7 14 14 14h102c8 0 14 -6 14 -14v-21c0 -8 -6 -15 -14 -15h-1c-7 0 -18 -4 -24 -9zM238 -105v-95c0 -7 -6 -14 -14 -14h-22c-8 0 -15 7 -15 14v29c0 7 0 13 -2 14c-11 0 -20 9 -20 21v31c0 12 9 21 20 21h32
c11 0 21 -9 21 -21z" />
    <glyph glyph-name="Gcommaaccent" unicode="&#x122;" horiz-adv-x="606" 
d="M536 363v-21c0 -2 -1 -3 -1 -4v-85c0 -74 -30 -141 -78 -189c-49 -49 -116 -79 -189 -79v0c-74 0 -141 30 -190 79c-48 48 -78 115 -78 189v202c0 74 30 141 78 189s115 78 189 78c54 0 103 -15 145 -42s75 -65 97 -110v0c3 -7 0 -16 -7 -19l-19 -9c-7 -4 -15 -1 -19 6v0
c-18 37 -45 68 -79 90s-74 34 -118 34c-60 0 -114 -24 -154 -63c-39 -40 -63 -94 -63 -154v-202c0 -60 24 -115 64 -154c39 -39 93 -64 154 -64c60 0 114 25 153 64c40 39 64 94 64 154v74h-151c-8 0 -14 -6 -14 -14v-11c0 -8 -6 -14 -14 -14h-22c-8 0 -14 6 -14 14v11v29
v21c0 8 6 14 14 14h22h28h187c8 0 15 -6 15 -14zM319 -101v-95c0 -7 -6 -14 -14 -14h-22c-8 0 -15 7 -15 14v29c0 7 0 13 -2 14c-11 0 -20 9 -20 21v31c0 12 9 21 20 21h32c11 0 21 -9 21 -21z" />
    <glyph glyph-name="Lcommaaccent" unicode="&#x13b;" 
d="M496 90c8 0 14 -6 14 -14v-62c0 -8 -6 -14 -14 -14h-482c-8 0 -14 6 -14 14v22c0 8 6 14 14 14h12c8 0 14 6 14 14v569c0 8 -6 14 -14 14h-12c-8 0 -14 7 -14 15v21c0 8 6 14 14 14h102c7 0 14 -6 14 -14v-21c0 -8 -7 -15 -14 -15h-12c-8 0 -14 -6 -14 -14v-569
c0 -8 6 -14 14 -14h342c8 0 14 6 14 14v12c0 8 7 14 14 14h22zM316 -106v-95c0 -7 -6 -14 -14 -14h-22c-8 0 -15 7 -15 14v29c0 7 0 13 -2 14c-11 0 -20 9 -20 21v31c0 12 9 21 20 21h32c11 0 21 -9 21 -21z" />
    <glyph glyph-name="lcommaaccent" unicode="&#x13c;" horiz-adv-x="200" 
d="M91 739v-674c0 -8 6 -15 14 -15h11c8 0 15 -6 15 -14v-21c0 -8 -7 -15 -15 -15h-102c-8 0 -14 7 -14 15v21c0 8 6 14 14 14h12c7 0 14 7 14 15v624c0 8 -7 14 -14 14h-12c-8 0 -14 7 -14 14v22c0 8 6 14 14 14h12h28h23c7 0 14 -6 14 -14zM127 -108v-95
c0 -7 -6 -14 -14 -14h-22c-8 0 -15 7 -15 14v29c0 7 0 13 -2 14c-11 0 -20 9 -20 21v31c0 12 9 21 20 21h32c11 0 21 -9 21 -21z" />
    <glyph glyph-name="Ncommaaccent" unicode="&#x145;" horiz-adv-x="681" 
d="M591 647c-11 0 -20 -9 -20 -21v-555c0 -12 9 -21 20 -21s20 -10 20 -22v-7c0 -12 -9 -21 -20 -21h-41h-8h-21s-6 8 -12 17l-407 581c-7 9 -12 8 -12 -4v-523c0 -12 9 -21 20 -21s20 -10 20 -22v-7c0 -12 -9 -21 -20 -21h-41h-8h-41s-20 9 -20 21v7c0 12 9 22 20 22
s20 9 20 21v555c0 12 -9 21 -20 21s-20 10 -20 21v8c0 12 10 21 21 21h50h22c0 1 6 -7 13 -17l403 -576c6 -9 12 -7 12 4v518c0 12 -9 21 -20 21s-20 10 -20 21v8c0 12 10 21 21 21h88c11 0 21 -9 21 -21v-8c0 -11 -9 -21 -20 -21zM367 -100v-95c0 -7 -6 -14 -14 -14h-22
c-8 0 -15 7 -15 14v29c0 7 0 13 -2 14c-11 0 -20 9 -20 21v31c0 12 9 21 20 21h32c11 0 21 -9 21 -21z" />
    <glyph glyph-name="Rcommaaccent" unicode="&#x156;" horiz-adv-x="599" 
d="M515 50c8 0 14 -6 14 -14v-22c0 -8 -6 -14 -14 -14h-101c-8 0 -14 6 -14 14v22c0 8 6 14 14 14h9c8 0 13 6 10 14l-91 207c-3 7 -6 11 -13 11h-22l-203 -1c-7 0 -13 -4 -14 -11v-206c0 -8 6 -14 14 -14h12c7 0 14 -6 14 -14v-22c0 -8 -7 -14 -14 -14h-102
c-8 0 -14 6 -14 14v22c0 8 6 14 14 14h12c8 0 14 6 14 14v569c0 8 -6 14 -14 14h-12c-8 0 -14 7 -14 15v21c0 8 6 14 14 14h293c58 0 110 -23 147 -60c38 -38 61 -90 61 -147c0 -58 -23 -110 -61 -147c-17 -17 -37 -32 -59 -42c-5 -4 -7 -11 -5 -17l95 -220
c3 -8 11 -14 19 -14h11zM99 332h208c44 0 83 18 112 46c28 29 46 68 46 112c0 43 -18 83 -46 111c-29 29 -68 46 -112 46h-205c-7 0 -12 -6 -12 -14v-291c1 -5 4 -8 9 -10zM326 -104v-95c0 -7 -6 -14 -14 -14h-22c-8 0 -15 7 -15 14v29c0 7 0 13 -2 14c-11 0 -20 9 -20 21
v31c0 12 9 21 20 21h32c11 0 21 -9 21 -21z" />
    <glyph glyph-name="ncommaaccent" unicode="&#x146;" horiz-adv-x="510" 
d="M426 50c8 0 14 -7 14 -14v-22c0 -8 -6 -14 -14 -14h-102c-7 0 -14 6 -14 14v22c0 7 7 14 14 14h12c8 0 14 6 14 14l1 142v1v1c0 35 -7 65 -20 90s-31 43 -54 55c-16 7 -35 11 -56 11c-22 0 -41 -4 -56 -12c-16 -7 -29 -18 -40 -32c-19 -23 -30 -54 -34 -90v-8h-1v-161
c1 -6 7 -11 14 -11h11c8 0 15 -7 15 -14v-22c0 -8 -7 -14 -15 -14h-101c-8 0 -14 6 -14 14v22c0 7 6 14 14 14h11c8 0 15 6 15 14l1 288c0 8 -6 15 -14 15h-12c-7 0 -14 6 -14 14v21c0 8 7 15 14 15h12h50c8 0 14 -7 14 -15v-21v-23c14 16 32 30 52 40c23 10 49 16 78 16
c28 0 54 -5 77 -16s42 -27 57 -46c31 -38 46 -89 46 -144v-1v0v-134h-1v-9c0 -8 6 -14 14 -14h12zM281 -106v-95c0 -7 -6 -14 -14 -14h-22c-8 0 -15 7 -15 14v29c0 7 0 13 -2 14c-11 0 -20 9 -20 21v31c0 12 9 21 20 21h32c11 0 21 -9 21 -21z" />
    <glyph glyph-name="Amacron" unicode="&#x100;" horiz-adv-x="618" 
d="M522 50h12c8 0 14 -6 14 -14v-22c0 -8 -6 -14 -14 -14h-102c-7 0 -14 6 -14 14v22c0 8 7 14 14 14h12c8 0 12 6 10 14l-59 202c-2 8 -10 14 -18 14h-206c-8 0 -16 -8 -19 -15l-58 -201c-2 -8 2 -14 10 -14h12c7 0 14 -6 14 -14v-22c0 -8 -7 -14 -14 -14h-102
c-8 0 -14 6 -14 14v22c0 8 6 14 14 14h12c8 0 16 6 18 14l182 620c2 7 10 13 18 13h60c8 0 16 -6 19 -13l181 -620c2 -8 11 -14 18 -14zM186 330h176c8 0 13 6 11 13l-85 291c-2 7 -9 13 -14 13s-12 -6 -14 -13l-85 -291c-2 -7 3 -13 11 -13zM90 804c0 7 7 14 14 14h349
c8 0 14 -7 14 -14v-22c0 -8 -6 -14 -14 -14h-349c-7 0 -14 6 -14 14v22z" />
    <glyph glyph-name="amacron" unicode="&#x101;" horiz-adv-x="472" 
d="M388 50c8 0 14 -7 14 -14v-22c0 -8 -6 -14 -14 -14h-62c-7 0 -14 6 -14 14v44c-14 -16 -32 -30 -52 -39c-22 -11 -48 -17 -75 -17v0h-14c-20 0 -38 0 -55 2c-18 1 -34 4 -49 10c-10 3 -19 8 -28 15c-11 9 -21 21 -27 35c-8 19 -12 41 -12 67c0 23 3 42 9 58
c6 17 16 31 29 41c9 7 18 12 28 15c14 5 28 7 43 8c20 2 41 2 65 2h11h129v46v2v0v1v4c0 5 0 13 -2 20c-2 8 -6 16 -10 22c-4 4 -8 8 -13 11c-8 4 -18 7 -34 7h-105c-19 0 -36 -1 -49 -5c-14 -3 -25 -9 -34 -17c-5 -5 -11 -12 -15 -22v0c-3 -7 -11 -10 -18 -7l-21 10
c-7 3 -10 11 -7 18v0c7 15 16 27 27 38c11 10 23 17 36 22c26 11 53 13 81 13h105c25 0 47 -6 63 -16c17 -11 28 -25 34 -39c5 -10 7 -19 9 -27c2 -11 3 -21 3 -28v-9v-94h-1l-1 -141c0 -8 7 -14 14 -14h12zM312 187l1 7l-1 11h-127h-11c-20 0 -37 0 -53 -1
c-15 -1 -27 -3 -37 -6c-6 -2 -11 -4 -14 -7c-5 -3 -9 -7 -12 -14c-5 -9 -8 -24 -8 -46c0 -18 2 -32 6 -42c3 -9 7 -15 13 -20c3 -3 8 -5 14 -8c7 -3 17 -5 29 -7c17 -2 36 -2 59 -2h4h7c22 0 41 4 57 12c15 7 29 18 40 32c18 23 30 54 33 91zM-3 515c0 7 7 14 14 14h349
c8 0 14 -7 14 -14v-22c0 -8 -6 -14 -14 -14h-349c-7 0 -14 6 -14 14v22z" />
    <glyph glyph-name="zacute" unicode="&#x17a;" horiz-adv-x="397" 
d="M323 379c-1 -2 -240 -318 -240 -318c-5 -6 -3 -11 5 -11h175c8 0 14 6 14 14v11c0 8 6 15 14 15h22c8 0 14 -7 14 -15v-61c0 -8 -6 -14 -14 -14h-299c-8 0 -14 6 -14 14v22c0 5 2 7 4 9s5 6 6 6c0 1 234 312 234 312c5 6 3 11 -5 11h-175c-8 0 -14 -7 -14 -14v-12
c0 -8 -7 -14 -14 -14h-22c-8 0 -14 6 -14 14v12v50c0 7 6 14 14 14h299c8 0 14 -7 14 -14v-22c0 -4 -1 -6 -4 -9zM112 475l54 67c4 6 9 11 17 11h77c7 0 9 -8 3 -13l-91 -68c-6 -4 -11 -8 -18 -8h-38c-7 0 -9 5 -4 11z" />
    <glyph glyph-name="Emacron" unicode="&#x112;" 
d="M14 696l482 1c8 0 14 -6 14 -14v-21v-29v-11c0 -8 -6 -14 -14 -14h-22c-7 0 -14 6 -14 14v11c0 8 -6 14 -14 14l-342 -1c-8 0 -14 -6 -14 -14v-245c0 -8 6 -15 14 -15h255c8 0 15 7 15 15v11c0 8 6 14 14 14h21c8 0 15 -6 15 -14v-11v-29v-21v-29v-11
c0 -8 -7 -15 -15 -15h-21c-8 0 -14 7 -14 15v11c0 8 -7 14 -15 14h-255c-8 0 -14 -6 -14 -14v-244c0 -8 6 -14 14 -14h342c8 0 14 6 14 14v12c0 8 7 14 14 14h22c8 0 14 -6 14 -14v-12v-28v-22c0 -8 -6 -14 -14 -14h-482c-8 0 -14 6 -14 14v20c0 8 6 15 14 15l12 1
c8 0 14 6 14 14v568c0 8 -6 14 -14 15h-12c-8 0 -14 7 -14 15v20c0 8 6 14 14 14zM79 804c0 7 7 14 14 14h349c8 0 14 -7 14 -14v-22c0 -8 -6 -14 -14 -14h-349c-7 0 -14 6 -14 14v22z" />
    <glyph glyph-name="emacron" unicode="&#x113;" horiz-adv-x="498" 
d="M427 250c1 -13 1 -26 1 -39c0 -8 -7 -14 -15 -14h-13v-1h-350v-17c0 -15 3 -30 9 -44c25 -57 89 -87 148 -87h12c23 1 46 5 68 12s46 18 61 37h-1c5 7 13 8 19 3l19 -15c6 -4 7 -12 2 -19v0c-4 -5 -8 -9 -13 -14c-24 -22 -55 -36 -86 -44c-22 -6 -45 -9 -68 -10h-13
c-39 0 -79 10 -114 30c-54 31 -93 87 -93 151v71v0c3 49 29 94 68 125c23 18 50 31 78 39c15 4 30 6 46 7c9 1 19 0 28 0c37 0 74 -8 106 -25c55 -29 98 -83 101 -146zM366 247c8 0 11 4 9 14v0c-1 8 -4 16 -7 23c-24 58 -88 87 -148 87c-17 0 -33 0 -49 -3
c-60 -12 -118 -57 -121 -122h186v1h130zM28 515c0 7 7 14 14 14h349c8 0 14 -7 14 -14v-22c0 -8 -6 -14 -14 -14h-349c-7 0 -14 6 -14 14v22z" />
    <glyph glyph-name="Edotaccent" unicode="&#x116;" 
d="M14 696l482 1c8 0 14 -6 14 -14v-21v-29v-11c0 -8 -6 -14 -14 -14h-22c-7 0 -14 6 -14 14v11c0 8 -6 14 -14 14l-342 -1c-8 0 -14 -6 -14 -14v-245c0 -8 6 -15 14 -15h255c8 0 15 7 15 15v11c0 8 6 14 14 14h21c8 0 15 -6 15 -14v-11v-29v-21v-29v-11
c0 -8 -7 -15 -15 -15h-21c-8 0 -14 7 -14 15v11c0 8 -7 14 -15 14h-255c-8 0 -14 -6 -14 -14v-244c0 -8 6 -14 14 -14h342c8 0 14 6 14 14v12c0 8 7 14 14 14h22c8 0 14 -6 14 -14v-12v-28v-22c0 -8 -6 -14 -14 -14h-482c-8 0 -14 6 -14 14v20c0 8 6 15 14 15l12 1
c8 0 14 6 14 14v568c0 8 -6 14 -14 15h-12c-8 0 -14 7 -14 15v20c0 8 6 14 14 14zM316 827v-32c0 -12 -10 -21 -21 -21h-32c-11 0 -20 9 -20 21v32c0 11 9 20 20 20h32c11 0 21 -9 21 -20z" />
    <glyph glyph-name="edotaccent" unicode="&#x117;" horiz-adv-x="498" 
d="M427 250c1 -13 1 -26 1 -39c0 -8 -7 -14 -15 -14h-13v-1h-350v-17c0 -15 3 -30 9 -44c25 -57 89 -87 148 -87h12c23 1 46 5 68 12s46 18 61 37h-1c5 7 13 8 19 3l19 -15c6 -4 7 -12 2 -19v0c-4 -5 -8 -9 -13 -14c-24 -22 -55 -36 -86 -44c-22 -6 -45 -9 -68 -10h-13
c-39 0 -79 10 -114 30c-54 31 -93 87 -93 151v71v0c3 49 29 94 68 125c23 18 50 31 78 39c15 4 30 6 46 7c9 1 19 0 28 0c37 0 74 -8 106 -25c55 -29 98 -83 101 -146zM366 247c8 0 11 4 9 14v0c-1 8 -4 16 -7 23c-24 58 -88 87 -148 87c-17 0 -33 0 -49 -3
c-60 -12 -118 -57 -121 -122h186v1h130zM255 528v-32c0 -12 -10 -21 -21 -21h-32c-11 0 -20 9 -20 21v32c0 11 9 20 20 20h32c11 0 21 -9 21 -20z" />
    <glyph glyph-name="gcommaaccent" unicode="&#x123;" horiz-adv-x="518" 
d="M390 326c3 -5 6 -10 8 -15c11 -23 17 -49 17 -78v0c0 -29 -6 -55 -16 -77c-11 -23 -27 -42 -46 -58c-7 -6 -15 -11 -23 -15c6 -3 11 -6 17 -10c12 -8 22 -18 30 -30c11 -16 16 -36 17 -57v0v-1v-1v0c-1 -18 -7 -35 -17 -49c-11 -15 -25 -28 -42 -38
c-19 -11 -43 -20 -69 -25l-23 -4l-32 -2c-35 0 -68 7 -97 18c-28 12 -52 28 -68 51c-10 14 -17 32 -17 50v0v1v0v0c0 7 6 13 14 13h23c8 0 13 -6 13 -14v0c0 -7 3 -14 8 -22c6 -7 14 -16 26 -23c24 -14 59 -24 98 -24v0v0c30 0 57 6 79 15c22 8 38 21 46 32c5 8 7 15 8 22
c0 8 -2 14 -3 19c-2 6 -4 10 -8 14c-6 9 -16 16 -31 22c-10 4 -21 7 -34 9c-12 3 -25 4 -40 4h-19h-1v0c-42 0 -81 8 -114 25s-61 43 -77 78c-11 23 -17 49 -17 78c0 28 6 54 17 77c10 23 26 42 45 57c39 31 89 46 144 46h1v0c42 0 81 -9 114 -26c5 -2 9 -5 14 -8v1v-1
c4 -2 8 -5 11 -7l27 23l11 11l28 29l36 -36l-64 -64zM353 177c8 16 12 34 12 56s-4 40 -12 56c-7 16 -18 29 -32 40c-27 22 -67 35 -113 35v0h-2c-34 0 -65 -7 -90 -20s-43 -31 -54 -55c-8 -15 -12 -34 -12 -55c0 -22 4 -41 12 -57c7 -15 18 -29 32 -40
c24 -19 57 -31 96 -34v1h21c6 0 11 0 17 -1c26 3 51 9 71 20c25 12 43 31 54 54zM179 509v79c0 8 6 14 14 14h22c7 0 14 -6 14 -14v-29c0 -8 1 -20 3 -28l5 -22c2 -8 -3 -14 -11 -14h-33c-8 0 -14 6 -14 14z" />
    <glyph glyph-name="imacron" unicode="&#x12b;" horiz-adv-x="200" 
d="M90 65c0 -8 6 -15 14 -15h11c8 0 15 -6 15 -14v-21c0 -8 -7 -15 -15 -15h-101c-8 0 -14 7 -14 15v21c0 8 6 14 14 14h12c7 0 14 7 14 15v288c0 8 -7 14 -14 14h-12c-8 0 -14 7 -14 14v22c0 8 6 14 14 14h12h28h22c7 0 14 -6 14 -14v-338zM-68 525c0 7 7 14 14 14h219
c8 0 14 -7 14 -14v-22c0 -8 -6 -14 -14 -14h-219c-7 0 -14 6 -14 14v22z" />
    <glyph glyph-name="Kcommaaccent" unicode="&#x136;" horiz-adv-x="621" 
d="M512 644l-252 -239c-6 -5 -6 -15 -2 -21l251 -323c5 -6 15 -11 23 -11h5c8 0 14 -7 14 -14v-22c0 -8 -6 -14 -14 -14h-102c-7 0 -14 6 -14 14v22c0 7 7 14 14 14h5c8 0 11 5 6 11l-224 289c-5 6 -13 6 -19 1l-103 -98c-6 -5 -10 -16 -10 -24v-165c0 -8 6 -14 14 -14h11
c8 0 15 -7 15 -14v-22c0 -8 -7 -14 -15 -14h-101c-8 0 -14 6 -14 14v22c0 7 6 14 14 14h11c8 0 15 6 15 14v575c0 8 -7 14 -15 14h-11c-8 0 -14 7 -14 15v21c0 8 6 14 14 14h101c8 0 15 -6 15 -14v-21c0 -8 -7 -15 -15 -15h-11c-8 0 -14 -6 -14 -14v-312c0 -8 4 -10 10 -5
l339 322c6 5 4 9 -4 9c-7 0 -14 7 -14 15v21c0 8 7 14 14 14h102c8 0 14 -6 14 -14v-21c0 -8 -6 -15 -14 -15h-1c-7 0 -18 -4 -24 -9zM337 -100v-95c0 -7 -6 -14 -14 -14h-22c-8 0 -15 7 -15 14v29c0 7 0 13 -2 14c-11 0 -20 9 -20 21v31c0 12 9 21 20 21h32
c11 0 21 -9 21 -21z" />
    <glyph glyph-name="rcommaaccent" unicode="&#x157;" horiz-adv-x="327" 
d="M248 412c6 0 9 -6 9 -14v-22c0 -8 -3 -14 -9 -14v0v0h-1c-9 1 -18 2 -28 2c-21 0 -40 -4 -56 -12c-16 -7 -29 -18 -40 -32c-18 -23 -30 -54 -33 -90v-168v-3h1c1 -6 7 -11 14 -11h11c8 0 14 -6 14 -14v-22c0 -7 -6 -14 -14 -14h-1h-11h-29h-21h-39c-8 0 -14 7 -14 14v22
c0 8 6 14 14 14h11c6 0 11 4 13 9l1 295c0 8 -7 15 -14 15h-12c-8 0 -14 6 -14 14v21c0 8 6 15 14 15h12h28h22c7 0 14 -7 14 -15v-21v-23c14 16 31 30 52 40c23 10 49 16 77 16c10 0 20 0 29 -2zM100 -102v-95c0 -7 -6 -14 -14 -14h-22c-8 0 -15 7 -15 14v29
c0 7 0 13 -2 14c-11 0 -20 9 -20 21v31c0 12 9 21 20 21h32c11 0 21 -9 21 -21z" />
    <glyph glyph-name="uhungarumlaut" unicode="&#x171;" horiz-adv-x="509" 
d="M425 49c8 0 14 -6 14 -14v-21c0 -8 -6 -14 -14 -14h-11h-29h-21c-8 0 -14 6 -14 14v20v23c-15 -17 -32 -30 -53 -40c-22 -11 -49 -17 -77 -17v0c-29 0 -55 6 -77 17c-23 11 -43 27 -58 46c-31 38 -45 89 -45 143v2v144c0 8 -7 15 -15 15h-11c-8 0 -14 6 -14 14v21
c0 8 6 15 14 15h11h29h21c8 0 15 -7 15 -15v-194v0v-2c0 -34 7 -65 19 -89c13 -25 31 -44 55 -55c16 -7 34 -11 56 -12c22 1 40 5 56 12c16 8 29 19 40 33c18 22 30 54 34 90v7v160c0 8 -6 15 -14 15h-11c-8 0 -15 6 -15 14v21c0 8 7 15 15 15h11h29h21c8 0 14 -7 14 -15
v-13h1l-1 -326c0 -8 6 -14 14 -14h11zM104 495l54 67c4 6 9 11 17 11h77c7 0 9 -8 3 -13l-91 -68c-6 -4 -11 -8 -18 -8h-38c-7 0 -9 5 -4 11zM232 495l54 67c4 6 9 11 17 11h77c7 0 9 -8 3 -13l-91 -68c-6 -4 -11 -8 -18 -8h-38c-7 0 -9 5 -4 11z" />
    <glyph glyph-name="Uhungarumlaut" unicode="&#x170;" horiz-adv-x="665" 
d="M581 700c8 0 14 -6 14 -14v-22c0 -8 -6 -14 -14 -14h-12c-7 0 -14 -6 -14 -14v-380h1c0 -74 -30 -141 -79 -190c-48 -48 -105 -78 -179 -78v0c-74 0 -131 30 -179 78c-47 47 -77 112 -79 183v0v387c0 8 -6 14 -14 14h-11c-8 0 -15 6 -15 14v22c0 8 7 14 15 14h101
c8 0 14 -6 14 -14v-22c0 -8 -6 -14 -14 -14h-12c-7 0 -14 -6 -14 -14v-380v0c0 -60 25 -115 64 -154c40 -40 84 -64 144 -64s104 24 144 64c38 38 62 90 64 147h-1v387c0 8 -6 14 -14 14h-11c-8 0 -15 6 -15 14v22c0 8 7 14 15 14h11h28h22h28h12zM182 784l54 67
c4 6 9 11 17 11h77c7 0 9 -8 3 -13l-91 -68c-6 -4 -11 -8 -18 -8h-38c-7 0 -9 5 -4 11zM310 784l54 67c4 6 9 11 17 11h77c7 0 9 -8 3 -13l-91 -68c-6 -4 -11 -8 -18 -8h-38c-7 0 -9 5 -4 11z" />
    <glyph glyph-name="Ohungarumlaut" unicode="&#x150;" horiz-adv-x="605" 
d="M268 -15v0v0v0c73 0 141 30 189 78v0c48 49 78 116 78 190v0v202v0c0 73 -30 140 -78 189v0c-49 48 -116 78 -190 78v0c-74 0 -141 -30 -189 -78v0c-48 -49 -78 -116 -78 -190v-201v0c0 -74 30 -141 78 -190v0c49 -48 116 -78 190 -78zM113 608v0c40 40 94 64 154 64v0
c60 0 115 -24 154 -64v0c40 -39 64 -93 64 -154v-201v0c0 -61 -24 -115 -63 -154v0c-40 -40 -94 -64 -154 -64v0c-61 0 -115 24 -154 64v0c-40 39 -64 93 -64 154v202v0c0 60 24 114 63 153zM152 784l54 67c4 6 9 11 17 11h77c7 0 9 -8 3 -13l-91 -68c-6 -4 -11 -8 -18 -8
h-38c-7 0 -9 5 -4 11zM280 784l54 67c4 6 9 11 17 11h77c7 0 9 -8 3 -13l-91 -68c-6 -4 -11 -8 -18 -8h-38c-7 0 -9 5 -4 11z" />
    <glyph glyph-name="ohungarumlaut" unicode="&#x151;" horiz-adv-x="503" 
d="M433 179v-10h-1c-5 -106 -111 -171 -207 -171c-35 0 -69 2 -102 15c-125 48 -123 137 -123 237c7 102 103 171 207 171c108 0 220 -56 225 -171h1v-71zM348 98v-1c21 22 35 51 35 82v61c0 82 -86 131 -164 131h-6c-50 0 -97 -18 -128 -49h-1c-21 -22 -34 -51 -34 -82v-61
c0 -31 13 -60 34 -82l1 1c17 -35 92 -50 128 -50h6c29 0 110 13 129 50zM101 495l54 67c4 6 9 11 17 11h77c7 0 9 -8 3 -13l-91 -68c-6 -4 -11 -8 -18 -8h-38c-7 0 -9 5 -4 11zM229 495l54 67c4 6 9 11 17 11h77c7 0 9 -8 3 -13l-91 -68c-6 -4 -11 -8 -18 -8h-38
c-7 0 -9 5 -4 11z" />
    <glyph glyph-name="Omacron" unicode="&#x14c;" horiz-adv-x="605" 
d="M268 -15c-74 0 -141 30 -190 78v0c-48 49 -78 116 -78 190v0v201c0 74 30 141 78 190v0c48 48 115 78 189 78v0c74 0 141 -30 190 -78v0c48 -49 78 -116 78 -189v0v-202v0c0 -74 -30 -141 -78 -190v0c-48 -48 -116 -78 -189 -78v0v0v0zM113 608c-39 -39 -63 -93 -63 -153
v0v-202c0 -61 24 -115 64 -154v0c39 -40 93 -64 154 -64v0c60 0 114 24 154 64v0c39 39 63 93 63 154v0v201c0 61 -24 115 -64 154v0c-39 40 -94 64 -154 64v0c-60 0 -114 -24 -154 -64v0zM84 814c0 7 7 14 14 14h349c8 0 14 -7 14 -14v-22c0 -8 -6 -14 -14 -14h-349
c-7 0 -14 6 -14 14v22z" />
    <glyph glyph-name="omacron" unicode="&#x14d;" horiz-adv-x="503" 
d="M433 179v-10h-1c-5 -106 -111 -171 -207 -171c-35 0 -69 2 -102 15c-125 48 -123 137 -123 237c7 102 103 171 207 171c108 0 220 -56 225 -171h1v-71zM348 98v-1c21 22 35 51 35 82v61c0 82 -86 131 -164 131h-6c-50 0 -97 -18 -128 -49h-1c-21 -22 -34 -51 -34 -82v-61
c0 -31 13 -60 34 -82l1 1c17 -35 92 -50 128 -50h6c29 0 110 13 129 50zM23 525c0 7 7 14 14 14h349c8 0 14 -7 14 -14v-22c0 -8 -6 -14 -14 -14h-349c-7 0 -14 6 -14 14v22z" />
    <glyph glyph-name="dcroat" unicode="&#x111;" horiz-adv-x="480" 
d="M61 356c37 38 89 61 146 61h99c7 1 13 5 14 12v49h-76c-7 0 -14 6 -14 14v22c0 7 7 14 14 14h76v158c0 7 6 14 14 14h62c8 0 14 -7 14 -14v-22c0 -8 -6 -14 -14 -14h-12c-8 0 -14 -7 -14 -14v-108h76c8 0 14 -7 14 -14v-22c0 -8 -6 -14 -14 -14h-76v-461
c0 -8 -6 -15 -14 -15h-150c-58 0 -108 23 -146 61c-37 38 -60 89 -60 146c0 58 23 110 61 147zM96 98c28 -28 67 -46 110 -46h102c7 1 12 7 12 15v289c-1 6 -5 10 -10 11h-103c-43 0 -82 -17 -111 -46s-46 -68 -46 -112c0 -43 17 -82 46 -111z" />
    <glyph glyph-name="Dcroat" unicode="&#x110;" horiz-adv-x="624" 
d="M492 617c41 -49 62 -115 62 -187l-1 -162c0 -54 -12 -105 -35 -147c-23 -43 -57 -78 -102 -99c-30 -14 -63 -22 -100 -22h-302c-8 0 -14 6 -14 14v22c0 8 6 14 14 14h12c8 0 14 6 14 14v273h-30c-7 0 -14 6 -14 14v22c0 7 7 14 14 14h30v246c0 8 -6 14 -14 14h-12
c-8 0 -14 7 -14 15v21c0 8 6 14 14 14h302c37 0 71 -7 100 -21c30 -14 55 -34 76 -59zM503 268l1 162c0 46 -11 89 -29 124c-19 34 -46 61 -80 77c-23 10 -49 16 -79 16h-212c-8 0 -14 -6 -14 -14v-246h269c8 0 14 -7 14 -14v-22c0 -8 -6 -14 -14 -14h-269v-273
c0 -8 6 -14 14 -14h212c30 0 56 6 79 17s42 26 58 45c32 39 50 94 50 156z" />
    <glyph glyph-name="eogonek" unicode="&#x119;" horiz-adv-x="498" 
d="M427 250c1 -13 1 -26 1 -39c0 -8 -7 -14 -15 -14h-13v-1h-350v-17c0 -15 3 -30 9 -44c25 -57 89 -87 148 -87h12c23 1 46 5 68 12s46 18 61 37h-1c5 7 13 8 19 3l19 -15c6 -4 7 -12 2 -19v0c-4 -5 -8 -9 -13 -14c-24 -22 -55 -36 -86 -44c-22 -6 -45 -9 -68 -10h-13
c-39 0 -79 10 -114 30c-54 31 -93 87 -93 151v71v0c3 49 29 94 68 125c23 18 50 31 78 39c15 4 30 6 46 7c9 1 19 0 28 0c37 0 74 -8 106 -25c55 -29 98 -83 101 -146zM366 247c8 0 11 4 9 14v0c-1 8 -4 16 -7 23c-24 58 -88 87 -148 87c-17 0 -33 0 -49 -3
c-60 -12 -118 -57 -121 -122h186v1h130zM194 4l46 -2c-12 -17 -32 -51 -32 -81c0 -27 17 -42 40 -42c16 0 28 4 39 9l11 -39c-19 -14 -47 -20 -69 -20c-43 0 -75 25 -75 71c0 42 25 81 40 104z" />
    <glyph glyph-name="aogonek" unicode="&#x105;" horiz-adv-x="472" 
d="M388 50c8 0 14 -7 14 -14v-22c0 -8 -6 -14 -14 -14h-12c-12 -17 -30 -50 -30 -79c0 -27 17 -42 40 -42c16 0 28 4 39 9l11 -39c-19 -14 -47 -20 -69 -20c-43 0 -75 25 -75 71c0 40 22 77 37 100h-3c-7 0 -14 6 -14 14v44c-14 -16 -32 -30 -52 -39
c-22 -11 -48 -17 -75 -17h-14c-20 0 -38 0 -55 2c-18 1 -34 4 -49 10c-10 3 -19 8 -28 15c-11 9 -21 21 -27 35c-8 19 -12 41 -12 67c0 23 3 42 9 58c6 17 16 31 29 41c9 7 18 12 28 15c14 5 28 7 43 8c20 2 41 2 65 2h140v53c0 5 0 13 -2 20c-2 8 -6 16 -10 22
c-4 4 -8 8 -13 11c-8 4 -18 7 -34 7h-105c-19 0 -36 -1 -49 -5c-14 -3 -25 -9 -34 -17c-5 -5 -11 -12 -15 -22c-3 -7 -11 -10 -18 -7l-21 10c-7 3 -10 11 -7 18c7 15 16 27 27 38c11 10 23 17 36 22c26 11 53 13 81 13h105c25 0 47 -6 63 -16c17 -11 28 -25 34 -39
c5 -10 7 -19 9 -27c2 -11 3 -21 3 -28v-103h-1l-1 -141c0 -8 7 -14 14 -14h12zM312 187l1 7l-1 11h-138c-20 0 -37 0 -53 -1c-15 -1 -27 -3 -37 -6c-6 -2 -11 -4 -14 -7c-5 -3 -9 -7 -12 -14c-5 -9 -8 -24 -8 -46c0 -18 2 -32 6 -42c3 -9 7 -15 13 -20c3 -3 8 -5 14 -8
c7 -3 17 -5 29 -7c17 -2 36 -2 59 -2h11c22 0 41 4 57 12c15 7 29 18 40 32c18 23 30 54 33 91z" />
    <glyph glyph-name="Iogonek" unicode="&#x12e;" horiz-adv-x="200" 
d="M130 35v-21c0 -8 -6 -14 -14 -14h-27c-12 -17 -32 -51 -32 -81c0 -27 17 -42 40 -42c16 0 28 4 39 9l11 -39c-19 -14 -47 -20 -69 -20c-43 0 -75 25 -75 71c0 41 23 79 38 102h-26c-8 0 -15 6 -15 14v21c0 8 7 15 15 15h11c8 0 14 6 14 14v569c0 8 -6 14 -14 14h-11
c-8 0 -15 6 -15 14v22c0 8 7 14 15 14h101c8 0 14 -6 14 -14v-22c0 -8 -6 -14 -14 -14h-12c-7 0 -14 -6 -14 -14v-569c0 -8 7 -14 14 -14h12c8 0 14 -7 14 -15z" />
    <glyph glyph-name="iogonek" unicode="&#x12f;" horiz-adv-x="200" 
d="M90 403v-338c0 -8 6 -15 14 -15h11c8 0 15 -6 15 -14v-21c0 -8 -7 -15 -15 -15h-23c-12 -17 -31 -50 -31 -80c0 -27 17 -42 40 -42c16 0 28 4 39 9l11 -39c-19 -14 -47 -20 -69 -20c-43 0 -75 25 -75 71c0 40 23 78 38 101h-31c-8 0 -14 7 -14 15v21c0 8 6 14 14 14h12
c7 0 14 7 14 15v288c0 8 -7 14 -14 14h-12c-8 0 -14 7 -14 14v22c0 8 6 14 14 14h62c7 0 14 -6 14 -14zM92 521v-32c0 -12 -10 -21 -21 -21h-32c-11 0 -20 9 -20 21v32c0 11 9 20 20 20h32c11 0 21 -9 21 -20z" />
    <glyph glyph-name="Aogonek" unicode="&#x104;" horiz-adv-x="618" 
d="M522 50h12c8 0 14 -6 14 -14v-22c0 -8 -6 -14 -14 -14h-28c-12 -17 -31 -50 -31 -80c0 -27 17 -42 40 -42c16 0 28 4 39 9l11 -39c-19 -14 -47 -20 -69 -20c-43 0 -75 25 -75 71c0 40 23 78 38 101h-27c-7 0 -14 6 -14 14v22c0 8 7 14 14 14h12c8 0 12 6 10 14l-59 202
c-2 8 -10 14 -18 14h-206c-8 0 -16 -8 -19 -15l-58 -201c-2 -8 2 -14 10 -14h12c7 0 14 -6 14 -14v-22c0 -8 -7 -14 -14 -14h-102c-8 0 -14 6 -14 14v22c0 8 6 14 14 14h12c8 0 16 6 18 14l182 620c2 7 10 13 18 13h60c8 0 16 -6 19 -13l181 -620c2 -8 11 -14 18 -14z
M186 330h176c8 0 13 6 11 13l-85 291c-2 7 -9 13 -14 13s-12 -6 -14 -13l-85 -291c-2 -7 3 -13 11 -13z" />
    <glyph glyph-name="Eogonek" unicode="&#x118;" 
d="M14 696l482 1c8 0 14 -6 14 -14v-61c0 -8 -6 -14 -14 -14h-22c-7 0 -14 6 -14 14v11c0 8 -6 14 -14 14l-342 -1c-8 0 -14 -6 -14 -14v-245c0 -8 6 -15 14 -15h255c8 0 15 7 15 15v11c0 8 6 14 14 14h21c8 0 15 -6 15 -14v-101c0 -8 -7 -15 -15 -15h-21c-8 0 -14 7 -14 15
v11c0 8 -7 14 -15 14h-255c-8 0 -14 -6 -14 -14v-244c0 -8 6 -14 14 -14h342c8 0 14 6 14 14v12c0 8 7 14 14 14h22c8 0 14 -6 14 -14v-62c0 -8 -6 -14 -14 -14h-204c-12 -17 -32 -51 -32 -81c0 -27 17 -42 40 -42c16 0 28 4 39 9l11 -39c-19 -14 -47 -20 -69 -20
c-43 0 -75 25 -75 71c0 41 23 79 38 102h-230c-8 0 -14 6 -14 14v20c0 8 6 15 14 15l12 1c8 0 14 6 14 14v568c0 8 -6 14 -14 15h-12c-8 0 -14 7 -14 15v20c0 8 6 14 14 14z" />
    <glyph glyph-name="Uogonek" unicode="&#x172;" horiz-adv-x="665" 
d="M581 700c8 0 14 -6 14 -14v-22c0 -8 -6 -14 -14 -14h-12c-7 0 -14 -6 -14 -14v-380h1c0 -74 -30 -141 -79 -190c-42 -42 -92 -70 -153 -76c-12 -19 -26 -47 -26 -73c0 -27 17 -42 40 -42c16 0 28 4 39 9l11 -39c-19 -14 -47 -20 -69 -20c-43 0 -75 25 -75 71
c0 36 18 70 33 93c-64 5 -115 33 -158 77c-47 47 -77 112 -79 183v387c0 8 -6 14 -14 14h-11c-8 0 -15 6 -15 14v22c0 8 7 14 15 14h101c8 0 14 -6 14 -14v-22c0 -8 -6 -14 -14 -14h-12c-7 0 -14 -6 -14 -14v-380c0 -60 25 -115 64 -154c40 -40 84 -64 144 -64
s104 24 144 64c38 38 62 90 64 147h-1v387c0 8 -6 14 -14 14h-11c-8 0 -15 6 -15 14v22c0 8 7 14 15 14h101z" />
    <glyph glyph-name="uogonek" unicode="&#x173;" horiz-adv-x="509" 
d="M425 49c8 0 14 -6 14 -14v-21c0 -8 -6 -14 -14 -14h-9c-12 -17 -31 -50 -31 -80c0 -27 17 -42 40 -42c16 0 28 4 39 9l11 -39c-19 -14 -47 -20 -69 -20c-43 0 -75 25 -75 71c0 40 23 78 38 101h-5c-8 0 -14 6 -14 14v43c-15 -17 -32 -30 -53 -40c-22 -11 -49 -17 -77 -17
c-29 0 -55 6 -77 17c-23 11 -43 27 -58 46c-31 38 -45 89 -45 143v146c0 8 -7 15 -15 15h-11c-8 0 -14 6 -14 14v21c0 8 6 15 14 15h61c8 0 15 -7 15 -15v-196c0 -34 7 -65 19 -89c13 -25 31 -44 55 -55c16 -7 34 -11 56 -12c22 1 40 5 56 12c16 8 29 19 40 33
c18 22 30 54 34 90v167c0 8 -6 15 -14 15h-11c-8 0 -15 6 -15 14v21c0 8 7 15 15 15h61c8 0 14 -7 14 -15v-13h1l-1 -326c0 -8 6 -14 14 -14h11z" />
    <glyph glyph-name="radical" unicode="&#x221a;" horiz-adv-x="573" 
d="M270 -6h-54l-133 359l-63 -27l-16 40l116 48l103 -290c7 -17 12 -38 16 -53h1c3 14 7 36 11 54l156 642h56z" />
    <glyph glyph-name="Delta" unicode="&#x2206;" horiz-adv-x="505" 
d="M0 0v41l177 509h82l176 -508v-42h-435zM257 351c-13 41 -31 97 -41 133h-3c-7 -30 -22 -82 -36 -121l-103 -303h283z" />
    <glyph glyph-name="summation" unicode="&#x2211;" horiz-adv-x="556" 
d="M-1 2v49l233 294l-221 292v55h429v-67h-324v-4l206 -272l-217 -276v-2h364v-69h-470z" />
    <glyph glyph-name="scommaaccent" unicode="&#x219;" horiz-adv-x="435" 
d="M182 187c-25 0 -49 1 -72 4c-22 3 -43 9 -62 21c-13 7 -24 18 -32 31c-11 17 -16 39 -16 66c0 18 6 36 17 51c10 15 25 27 41 37c33 20 77 31 124 31c36 0 69 -6 97 -17c29 -12 53 -29 68 -51c10 -14 17 -31 18 -49c0 -8 -6 -14 -13 -14h-24c-7 0 -12 5 -14 12
c0 7 -2 14 -7 22c-6 8 -15 16 -27 23c-23 14 -59 24 -99 24c-29 0 -56 -5 -77 -14c-22 -9 -38 -21 -46 -33c-6 -8 -8 -15 -8 -24c0 -15 3 -26 6 -34c4 -8 9 -13 16 -18c5 -3 11 -6 18 -8c10 -3 21 -6 34 -7c11 -1 23 -2 36 -2h23c25 0 49 -1 72 -4c22 -3 43 -9 62 -21
c13 -7 24 -18 32 -31c11 -17 16 -39 16 -66c0 -18 -6 -36 -17 -51c-10 -15 -25 -27 -41 -37c-33 -20 -77 -31 -124 -31c-36 0 -69 6 -97 17c-29 12 -53 29 -68 51c-10 14 -17 31 -18 49c0 8 6 14 13 14h24c7 0 12 -5 14 -12c0 -7 2 -14 7 -22c6 -8 15 -16 27 -23
c23 -14 59 -24 99 -24c29 0 56 5 77 14c22 9 38 21 46 33c6 8 8 15 8 24c0 15 -3 26 -6 34c-4 8 -9 13 -16 18c-5 3 -11 6 -18 8c-10 3 -21 6 -34 7c-11 1 -23 2 -36 2h-23zM217 -103v-95c0 -7 -6 -14 -14 -14h-22c-8 0 -15 7 -15 14v29c0 7 0 13 -2 14c-11 0 -20 9 -20 21
v31c0 12 9 21 20 21h32c11 0 21 -9 21 -21z" />
  </font>
</defs>
</svg>
