<?xml version="1.0" standalone="no"?>
<!DOCTYPE svg PUBLIC "-//W3C//DTD SVG 1.1//EN" "http://www.w3.org/Graphics/SVG/1.1/DTD/svg11.dtd" >
<svg xmlns="http://www.w3.org/2000/svg" xmlns:xlink="http://www.w3.org/1999/xlink" version="1.1">
<metadata>
Created by FontForge 20171206 at Fri Dec 14 11:52:53 2018
 By fw_worker
Copyright 2010 Adobe Systems Incorporated. All rights reserved.
</metadata>
<defs>
<font id="Satellite" horiz-adv-x="656" >
  <font-face 
    font-family="Satellite"
    font-weight="400"
    font-stretch="normal"
    units-per-em="1000"
    panose-1="0 0 0 0 0 0 0 0 0 0"
    ascent="784"
    descent="-216"
    x-height="439"
    cap-height="790"
    bbox="-6 -224 1192 1037"
    underline-thickness="50"
    underline-position="-100"
    stemh="38"
    stemv="39"
    unicode-range="U+0020-FB06"
  />
<missing-glyph horiz-adv-x="529" 
 />
    <glyph glyph-name="f_f" unicode="ff" horiz-adv-x="512" 
d="M354 565v-105h129v-23h-129v-437h-31v437h-186v-437h-30v437h-62v23h62c0 29 -1 56 -1 83c0 29 2 57 9 82c26 95 112 163 214 165v-30c-108 -3 -192 -90 -192 -195v-105h186c0 29 -1 56 -1 83c0 29 2 57 9 82c27 95 113 163 216 165v-30c-108 -3 -193 -90 -193 -195z" />
    <glyph glyph-name="f_i" unicode="fi" horiz-adv-x="432" 
d="M355 0h-30v437h-192v-437h-30v437h-61v23h61c0 29 -1 57 -1 84c0 30 2 59 9 84c26 96 112 164 214 166v-30c-108 -4 -192 -90 -192 -196v-108h222v-460z" />
    <glyph glyph-name="f_l" unicode="fl" horiz-adv-x="441" 
d="M347 460v299c-107 -2 -190 -89 -190 -194v-105h190zM377 0h-30v437h-190v-437h-30v437h-61v23h61c0 29 -1 56 -1 83c0 29 2 57 9 82c26 97 114 165 212 165h30v-790z" />
    <glyph glyph-name="f_f_i" unicode="ffi" horiz-adv-x="627" 
d="M550 0h-30v435h-194v-435h-30v435h-187v-435h-30v435h-62v23h62c0 29 -1 56 -1 84c1 29 2 58 9 83c26 95 112 163 215 165v-30c-108 -3 -193 -90 -193 -195v-107h187c0 29 -1 56 -1 84c1 29 2 58 9 83c26 96 111 156 216 165v-30c-109 -3 -194 -90 -194 -195v-107h224
v-458z" />
    <glyph glyph-name="f_f_l" unicode="ffl" horiz-adv-x="648" 
d="M538 459v300c-109 -2 -194 -89 -194 -194v-106h194zM568 0h-30v436h-194v-436h-30v436h-187v-436h-30v436h-62v23h62c0 29 -1 56 -1 83c0 29 2 58 9 83c25 95 112 163 215 165v-30c-108 -3 -193 -90 -193 -195v-106h187c0 29 -1 56 -1 83c1 29 2 58 9 83
c26 96 115 165 216 165h30v-790z" />
    <glyph glyph-name=".notdef" horiz-adv-x="529" 
 />
    <glyph glyph-name="space" unicode=" " horiz-adv-x="300" 
 />
    <glyph glyph-name="exclam" unicode="!" horiz-adv-x="128" 
d="M75 -3c-12 0 -21 10 -21 23c0 12 10 23 22 23c13 0 24 -11 24 -23c0 -13 -11 -23 -25 -23zM94 190h-33v610h33v-610z" />
    <glyph glyph-name="quotedbl" unicode="&#x22;" horiz-adv-x="242" 
d="M92 790l-6 -119h-35l-3 119h44zM185 790l-5 -119h-35l-5 119h45z" />
    <glyph glyph-name="numbersign" unicode="#" horiz-adv-x="333" 
d="M214 587h-94l-17 -92h94zM290 613l-4 -26h-49l-16 -92h49l-5 -26h-49l-8 -49h-24l9 49h-94l-9 -49h-23l8 49h-48l4 26h49l16 92h-49l5 26h49l8 49h24l-9 -49h94l9 49h23l-8 -49h48z" />
    <glyph glyph-name="dollar" unicode="$" horiz-adv-x="427" 
d="M198 10v84c-65 5 -127 33 -167 85l24 16c34 -44 88 -68 143 -72v269c-87 21 -176 45 -176 153c0 103 83 152 176 154v71h30v-71c66 -6 125 -37 163 -94l-24 -16c-33 49 -83 75 -139 80v-255c87 -20 173 -45 173 -152c0 -100 -79 -163 -173 -168v-84h-30zM228 385v-262
c79 5 145 53 145 139c0 82 -69 105 -145 123zM198 421v249c-77 -2 -148 -38 -148 -125c0 -83 70 -105 148 -124z" />
    <glyph glyph-name="percent" unicode="%" horiz-adv-x="671" 
d="M433 174c-37 0 -70 -33 -70 -71s33 -70 70 -70c38 0 72 32 72 70c0 37 -34 71 -72 71zM237 768c-37 0 -71 -33 -71 -71c0 -37 33 -70 71 -70c37 0 71 33 71 70c0 38 -33 71 -71 71zM433 3c-54 0 -100 45 -100 100s45 100 100 100s101 -45 101 -100s-46 -100 -101 -100z
M618 798l-526 -795h-40l527 795h39zM237 598c-54 0 -100 44 -100 99s45 101 100 101c54 0 101 -46 101 -101s-46 -99 -101 -99z" />
    <glyph glyph-name="ampersand" unicode="&#x26;" horiz-adv-x="786" 
d="M598 257h-29c-5 -138 -111 -252 -253 -252c-137 0 -251 114 -251 252c0 109 71 205 182 243c-55 32 -86 84 -86 139c1 86 71 156 155 156c85 0 154 -68 156 -158h-25c0 76 -69 131 -131 131c-71 0 -128 -58 -129 -129c0 -68 55 -128 129 -129v-29
c-125 -3 -223 -102 -223 -224c0 -123 101 -224 223 -224c89 0 218 67 225 224h-146v27h203c45 0 88 18 124 53l20 -21c-42 -39 -91 -59 -144 -59z" />
    <glyph glyph-name="parenleft" unicode="(" horiz-adv-x="309" 
d="M25 361c0 168 86 314 224 400v-45c-115 -77 -188 -208 -188 -355s73 -278 188 -355v-45c-138 86 -224 232 -224 400z" />
    <glyph glyph-name="parenright" unicode=")" horiz-adv-x="309" 
d="M40 -39v45c114 77 188 208 188 355s-74 278 -188 355v45c137 -86 224 -232 224 -400s-87 -314 -224 -400z" />
    <glyph glyph-name="asterisk" unicode="*" horiz-adv-x="345" 
d="M282 666l-86 -5l63 -55l-25 -25l-53 64l-4 -86h-28l-4 86l-55 -64l-25 25l64 55l-86 5v26l86 4l-64 54l25 25l55 -64l4 87h28l4 -87l53 64l25 -25l-63 -54l86 -4v-26z" />
    <glyph glyph-name="plus" unicode="+" horiz-adv-x="327" 
d="M260 369h-95v-97h-33v97h-94v34h94v97h33v-97h95v-34z" />
    <glyph glyph-name="comma" unicode="," horiz-adv-x="182" 
d="M139 -10l-86 -64l-13 18l60 76z" />
    <glyph glyph-name="hyphen" unicode="-" horiz-adv-x="327" 
d="M36 287v21h243v-21h-243z" />
    <glyph glyph-name="period" unicode="." horiz-adv-x="139" 
d="M64 -1c-14 0 -26 12 -26 27s11 29 26 29s27 -12 27 -29c0 -15 -14 -27 -27 -27z" />
    <glyph glyph-name="slash" unicode="/" horiz-adv-x="368" 
d="M316 798l-260 -795h-31l259 795h32z" />
    <glyph glyph-name="zero" unicode="0" horiz-adv-x="674" 
d="M345 762c-136 0 -242 -163 -242 -369c0 -205 106 -369 242 -369c138 0 242 164 242 369c0 206 -104 369 -242 369zM345 -10c-152 0 -273 181 -273 403c0 221 121 403 273 403s272 -182 272 -403c0 -222 -120 -403 -272 -403z" />
    <glyph glyph-name="one" unicode="1" horiz-adv-x="211" 
d="M155 0h-27v761h-79v29h106v-790z" />
    <glyph glyph-name="two" unicode="2" horiz-adv-x="517" 
d="M461 0h-412v32l358 457c17 22 26 66 26 93c0 99 -80 179 -178 179c-96 0 -175 -78 -178 -179h-28c3 117 94 208 206 208c113 0 205 -94 206 -208c0 -33 -9 -66 -23 -95c-13 -28 -87 -123 -166 -221l-189 -233h378v-33z" />
    <glyph glyph-name="three" unicode="3" horiz-adv-x="608" 
d="M312 -10c-139 0 -252 113 -255 257h27c4 -129 106 -229 228 -229c125 0 228 102 228 227s-99 227 -228 230v30c78 0 132 63 132 132c0 72 -59 131 -132 131c-70 0 -129 -57 -132 -131h-26c3 90 73 159 158 159c86 0 158 -71 158 -157c0 -58 -29 -112 -88 -144
c115 -39 186 -137 186 -248c0 -141 -114 -257 -256 -257z" />
    <glyph glyph-name="four" unicode="4" horiz-adv-x="552" 
d="M480 409v-28h-98v-381h-28v381h-290v409h28v-381h262v381h28v-381h98z" />
    <glyph glyph-name="five" unicode="5" horiz-adv-x="568" 
d="M256 -10c-68 0 -136 28 -188 81l22 22c45 -49 105 -74 166 -74c127 0 230 104 230 232c0 126 -103 232 -230 232c-60 0 -121 -26 -166 -74l-22 19v368h389v-30h-360v-310c51 37 105 56 159 56c142 0 258 -118 258 -261c0 -144 -116 -261 -258 -261z" />
    <glyph glyph-name="six" unicode="6" horiz-adv-x="514" 
d="M257 386c-100 0 -182 -83 -182 -184s82 -183 182 -183s182 82 182 183s-81 184 -182 184zM257 -10c-115 0 -210 96 -210 212c0 42 16 80 26 119c9 32 19 66 29 95l125 380h33l-142 -435c46 38 92 54 139 54c116 0 210 -96 210 -213c0 -116 -95 -212 -210 -212z" />
    <glyph glyph-name="seven" unicode="7" horiz-adv-x="476" 
d="M418 790l-261 -790h-33c83 255 164 504 248 757h-320v33h366z" />
    <glyph glyph-name="eight" unicode="8" horiz-adv-x="566" 
d="M540 245c0 -139 -114 -255 -253 -255c-140 0 -254 116 -254 255c0 116 77 210 185 246c-52 29 -87 80 -87 141h-1c3 86 69 158 157 158s154 -72 157 -158h-1c0 -61 -33 -112 -87 -141c108 -36 184 -130 184 -246zM157 632c0 -71 59 -131 130 -131s131 60 131 131
s-60 130 -131 130c-70 0 -130 -59 -130 -130zM287 471c-124 0 -226 -100 -226 -224s102 -229 226 -229c123 0 225 104 225 227c0 125 -100 226 -225 226z" />
    <glyph glyph-name="nine" unicode="9" horiz-adv-x="531" 
d="M266 761c-98 0 -178 -80 -178 -179s80 -180 178 -180s178 81 178 180s-80 179 -178 179zM383 267c-40 -121 -74 -229 -87 -267h-33l140 426c-46 -37 -91 -53 -137 -53c-112 0 -206 94 -206 209c0 114 93 208 206 208s206 -94 206 -208c0 -50 -48 -189 -89 -315z" />
    <glyph glyph-name="colon" unicode=":" horiz-adv-x="154" 
d="M86 81c-18 0 -32 14 -32 32s13 31 31 31c17 0 30 -15 30 -31c0 -18 -13 -32 -29 -32zM85 410c-18 0 -31 13 -31 31s13 32 31 32c16 0 30 -15 30 -32c0 -18 -14 -31 -30 -31z" />
    <glyph glyph-name="semicolon" unicode=";" horiz-adv-x="164" 
d="M126 -10l-76 -64l-16 18l50 76zM85 410c-18 0 -31 13 -31 31s14 32 32 32c16 0 29 -15 29 -32c0 -18 -13 -31 -30 -31z" />
    <glyph glyph-name="less" unicode="&#x3c;" horiz-adv-x="306" 
d="M259 130l-214 146v21l214 146v-34l-179 -123l179 -122v-34z" />
    <glyph glyph-name="equal" unicode="=" horiz-adv-x="327" 
d="M279 284h-238v32h238v-32zM279 366h-238v32h238v-32z" />
    <glyph glyph-name="greater" unicode="&#x3e;" horiz-adv-x="306" 
d="M258 275l-215 -145v34l179 122l-179 122v35l215 -146v-22z" />
    <glyph glyph-name="question" unicode="?" horiz-adv-x="494" 
d="M270 -1c-16 0 -27 10 -27 24s10 27 27 27c13 0 25 -12 25 -25c0 -15 -13 -26 -25 -26zM286 378v-190h-33v222c99 1 179 79 179 175c0 98 -80 179 -177 179c-96 0 -174 -78 -175 -179h-33c1 119 94 213 208 213s210 -94 210 -209c0 -105 -76 -195 -179 -211z" />
    <glyph glyph-name="at" unicode="@" horiz-adv-x="526" 
d="M361 346c-20 -41 -52 -70 -105 -70c-62 0 -112 50 -112 112c0 61 49 112 112 112c35 0 68 -18 97 -56v56h15v-112c0 -38 20 -74 57 -93c17 30 26 62 26 93c0 106 -88 194 -195 194c-106 0 -194 -88 -194 -194c0 -107 87 -194 194 -194c56 0 100 16 138 63
c11 -6 18 -8 30 -13c-47 -58 -100 -80 -168 -80c-124 0 -224 99 -224 224c0 124 100 224 224 224s225 -100 225 -224c0 -36 -12 -86 -34 -118c-38 10 -68 34 -86 76zM347 388c0 49 -41 90 -91 90s-91 -41 -91 -90c0 -50 41 -91 91 -91s91 41 91 91z" />
    <glyph glyph-name="A" unicode="A" horiz-adv-x="638" 
d="M491 213l-162 496l-163 -496h325zM325 790h7l263 -790h-32l-61 189h-347l-61 -189h-32z" />
    <glyph glyph-name="B" unicode="B" horiz-adv-x="573" 
d="M323 378h-229v-344h229c94 0 170 77 170 172s-75 172 -170 172zM303 756h-209v-351h219c91 0 160 80 160 177c0 96 -75 174 -170 174zM323 0h-262v790h242c111 0 204 -93 204 -206c0 -78 -35 -149 -114 -189c86 -25 134 -111 134 -189c0 -113 -91 -206 -204 -206z" />
    <glyph glyph-name="C" unicode="C" horiz-adv-x="680" 
d="M655 50l-12 -5c-66 -27 -133 -55 -205 -55c-224 0 -405 180 -405 403c0 222 181 403 405 403c72 0 142 -23 206 -55l10 -7l-17 -23c-64 27 -128 55 -199 55c-206 0 -374 -166 -374 -373s168 -374 374 -374c71 0 135 28 199 55z" />
    <glyph glyph-name="D" unicode="D" horiz-adv-x="699" 
d="M252 762h-169v-734h169c201 0 365 164 365 367s-164 367 -365 367zM252 0h-197v790h197c216 0 393 -178 393 -395s-177 -395 -393 -395z" />
    <glyph glyph-name="E" unicode="E" horiz-adv-x="597" 
d="M522 0h-454v790h454v-25h-423v-354h298v-25h-298v-361h423v-25z" />
    <glyph glyph-name="F" unicode="F" horiz-adv-x="559" 
d="M526 765h-425v-356h300v-25h-300v-384h-31v790h456v-25z" />
    <glyph glyph-name="G" unicode="G" horiz-adv-x="786" 
d="M453 -10c-219 0 -400 181 -400 403c0 221 182 403 400 403c113 0 209 -44 291 -126l-23 -23c-75 75 -164 116 -266 116c-205 0 -370 -162 -370 -370c0 -206 164 -371 368 -371c95 0 188 38 257 105v194h-268v26h300v-233c-78 -79 -179 -124 -289 -124z" />
    <glyph glyph-name="H" unicode="H" horiz-adv-x="672" 
d="M587 0h-31v386h-474v-386h-31v790h31v-379h474v379h31v-790z" />
    <glyph glyph-name="I" unicode="I" horiz-adv-x="203" 
d="M114 0h-33v790h33v-790z" />
    <glyph glyph-name="J" unicode="J" horiz-adv-x="520" 
d="M255 -10c-10 0 -20 0 -31 2c-28 4 -58 15 -81 31c-38 26 -63 57 -81 102h34c26 -54 72 -91 129 -101c9 -2 21 -2 30 -2c96 0 174 80 174 178v596h32v-596c0 -115 -93 -210 -206 -210z" />
    <glyph glyph-name="K" unicode="K" horiz-adv-x="576" 
d="M520 0h-37c-115 124 -227 247 -343 374l-47 -59v-315h-31v790h31v-428l339 428h38l-312 -393z" />
    <glyph glyph-name="L" unicode="L" horiz-adv-x="576" 
d="M517 0h-456v790h31v-758h425v-32z" />
    <glyph glyph-name="M" unicode="M" horiz-adv-x="782" 
d="M693 790l-1 -790h-31v685l-288 -491l-288 491v-685h-31v791h5l314 -539l313 539z" />
    <glyph glyph-name="N" unicode="N" horiz-adv-x="681" 
d="M578 0l-486 738v-738h-29v790l31 2l480 -731v738h29v-799h-25z" />
    <glyph glyph-name="O" unicode="O" horiz-adv-x="836" 
d="M424 763c-194 0 -340 -159 -340 -370c0 -212 146 -371 340 -371s340 159 340 371c0 211 -146 370 -340 370zM424 -10c-212 0 -372 172 -372 403c0 230 160 403 372 403s373 -173 373 -403c0 -231 -161 -403 -373 -403z" />
    <glyph glyph-name="P" unicode="P" horiz-adv-x="556" 
d="M313 758h-221v-349h221c96 0 172 79 172 175s-76 174 -172 174zM313 377h-221v-377h-31v790h252c112 0 204 -93 204 -206c0 -114 -91 -207 -204 -207z" />
    <glyph glyph-name="Q" unicode="Q" horiz-adv-x="846" 
d="M419 766c-204 0 -336 -172 -336 -367s133 -367 337 -367c203 0 335 172 335 367s-133 367 -336 367zM788 0h-369c-222 0 -369 185 -369 399s147 399 369 399c221 0 369 -185 369 -399c0 -144 -66 -284 -218 -367h218v-32z" />
    <glyph glyph-name="R" unicode="R" horiz-adv-x="572" 
d="M314 759h-223v-350h223c94 0 172 76 172 173c0 98 -76 177 -172 177zM523 0h-33c-55 103 -108 215 -186 378h-213v-378h-29v790h252c111 0 202 -94 202 -206c0 -101 -76 -186 -180 -205z" />
    <glyph glyph-name="S" unicode="S" horiz-adv-x="596" 
d="M74 594c-1 -249 474 -98 474 -375c0 -146 -114 -228 -247 -228c-93 0 -189 36 -245 112l28 18c49 -66 132 -98 213 -98c115 0 219 64 219 192c0 248 -473 98 -473 375c0 145 114 209 247 209c98 0 188 -40 243 -122l-27 -18c-48 71 -126 107 -211 107
c-115 0 -220 -44 -221 -172z" />
    <glyph glyph-name="T" unicode="T" horiz-adv-x="617" 
d="M578 765h-248v-765h-32v765h-247v25h527v-25z" />
    <glyph glyph-name="U" unicode="U" horiz-adv-x="653" 
d="M324 -10c-147 0 -272 114 -272 263v543h31v-531c0 -135 109 -243 241 -243c133 0 241 108 241 243v531h32v-531c0 -151 -123 -275 -273 -275z" />
    <glyph glyph-name="V" unicode="V" 
d="M606 790l-262 -790h-21c-88 264 -173 523 -261 790h33c40 -123 83 -241 119 -361c36 -118 77 -234 120 -363l239 724h33z" />
    <glyph glyph-name="W" unicode="W" horiz-adv-x="974" 
d="M946 796l-277 -833l-182 550l-183 -550l-277 833h32l245 -733l183 549l182 -549l244 733h33z" />
    <glyph glyph-name="X" unicode="X" horiz-adv-x="667" 
d="M613 0h-37l-243 367l-243 -367h-37l261 396l-259 394h36l242 -365l241 365h38l-260 -394z" />
    <glyph glyph-name="Y" unicode="Y" 
d="M605 790l-265 -401v-389h-32v389l-265 401h37l244 -368l244 368h37z" />
    <glyph glyph-name="Z" unicode="Z" horiz-adv-x="670" 
d="M611 790l-507 -765h490v-25h-542l508 765h-490v25h541z" />
    <glyph glyph-name="bracketleft" unicode="[" horiz-adv-x="314" 
d="M278 -31h-241v796h241v-28h-213v-740h213v-28z" />
    <glyph glyph-name="backslash" unicode="\" horiz-adv-x="390" 
d="M335 3h-31l-260 795h32z" />
    <glyph glyph-name="bracketright" unicode="]" horiz-adv-x="314" 
d="M268 -31h-241v28h213v740h-213v28h241v-796z" />
    <glyph glyph-name="asciicircum" unicode="^" horiz-adv-x="452" 
d="M386 475h-34l-122 179l-123 -179h-34l146 215h22z" />
    <glyph glyph-name="underscore" unicode="_" horiz-adv-x="327" 
d="M279 -28h-238v25h238v-25z" />
    <glyph glyph-name="a" unicode="a" horiz-adv-x="576" 
d="M271 416c-108 0 -187 -90 -187 -195s79 -195 187 -195c105 0 187 88 187 195c0 106 -82 195 -187 195zM490 0h-30v110c-48 -73 -114 -114 -189 -114c-125 0 -217 102 -217 225s92 225 217 225c75 0 141 -41 189 -114v110h30v-442z" />
    <glyph glyph-name="b" unicode="b" horiz-adv-x="547" 
d="M283 420c-108 0 -173 -90 -173 -198s65 -197 173 -197s188 89 188 197s-80 198 -188 198zM283 -6c-76 0 -141 37 -175 108v-102h-30v788h30v-445c33 66 100 107 175 107c124 0 218 -103 218 -228s-94 -228 -218 -228z" />
    <glyph glyph-name="c" unicode="c" horiz-adv-x="481" 
d="M420 71l-8 -10c-38 -48 -96 -65 -156 -65c-122 0 -213 101 -213 226c0 126 91 227 213 227c60 0 119 -19 156 -65l8 -10l-22 -21l-7 9c-37 37 -84 57 -135 57c-105 0 -182 -89 -182 -197c0 -107 77 -196 182 -196c51 0 102 15 135 57l7 9z" />
    <glyph glyph-name="d" unicode="d" horiz-adv-x="562" 
d="M266 423c-110 0 -189 -91 -189 -198s79 -198 189 -198c108 0 172 92 172 198s-64 198 -172 198zM471 0h-30v106c-37 -74 -100 -110 -175 -110c-126 0 -219 103 -219 229c0 124 93 228 219 228c75 0 137 -38 175 -110v447h30v-790z" />
    <glyph glyph-name="e" unicode="e" horiz-adv-x="533" 
d="M260 410c-98 0 -173 -76 -182 -177h372c-10 102 -93 177 -190 177zM481 218l-1 -14h-402c9 -103 84 -178 182 -178c46 0 103 7 143 41l22 -22c-48 -39 -112 -49 -165 -49c-54 0 -109 19 -149 57c-46 44 -64 101 -64 164c0 124 88 224 213 224c64 0 118 -28 164 -73v-1
c38 -44 61 -93 57 -149z" />
    <glyph glyph-name="f" unicode="f" horiz-adv-x="328" 
d="M158 565v-106h126v-23h-126v-436h-30v436h-61v23h61c0 29 -1 56 -1 83c1 29 2 58 9 83c25 95 110 163 211 165v-30c-106 -3 -189 -90 -189 -195z" />
    <glyph glyph-name="g" unicode="g" horiz-adv-x="541" 
d="M271 414c-108 0 -187 -89 -187 -195c1 -106 79 -196 187 -196s171 92 171 196c-1 105 -63 195 -171 195zM254 -214c-64 0 -116 25 -164 74l22 22c41 -43 87 -65 142 -65c105 0 190 86 190 192v89c-33 -75 -100 -105 -173 -105c-124 0 -217 103 -217 226
c1 123 93 226 217 226c73 0 139 -37 173 -108v108h30v-436c0 -131 -99 -223 -220 -223z" />
    <glyph glyph-name="h" unicode="h" horiz-adv-x="460" 
d="M400 0h-29v290c0 64 -53 119 -118 119c-58 0 -148 -35 -148 -104v-305h-30v790h30v-410c31 40 99 58 148 58c86 0 147 -62 147 -148v-290zM75 790h30h-30z" />
    <glyph glyph-name="i" unicode="i" horiz-adv-x="206" 
d="M110 600c-15 0 -26 11 -26 26s11 25 26 25c14 0 25 -11 25 -25c0 -15 -12 -26 -25 -26zM124 0h-30v447h30v-447z" />
    <glyph glyph-name="j" unicode="j" horiz-adv-x="240" 
d="M121 597c-15 0 -27 10 -27 25c1 15 12 26 27 26c14 0 25 -11 25 -26c0 -14 -11 -25 -25 -25zM136 2c0 -87 -25 -224 -136 -226v30c85 0 106 132 106 196v445h30v-445z" />
    <glyph glyph-name="k" unicode="k" horiz-adv-x="473" 
d="M186 238l201 -238h-39l-183 218l-66 -65v-153h-30v790h30v-594l258 253h39z" />
    <glyph glyph-name="l" unicode="l" horiz-adv-x="194" 
d="M108 0h-30v790h30v-790z" />
    <glyph glyph-name="m" unicode="m" horiz-adv-x="726" 
d="M654 1h-29v286c0 65 -52 118 -118 118c-65 0 -126 -45 -126 -111v-294h-29v287c0 65 -46 118 -111 118s-141 -39 -141 -103v-302h-28v432h29v-59c37 42 96 61 140 61c56 0 97 -31 126 -84c30 54 85 84 140 84c81 0 147 -66 147 -147v-286z" />
    <glyph glyph-name="n" unicode="n" horiz-adv-x="473" 
d="M410 0h-29v290c0 66 -55 119 -118 119c-65 0 -148 -39 -148 -104v-305h-29v436h29v-56c33 43 106 58 148 58c79 0 147 -55 147 -148v-290z" />
    <glyph glyph-name="o" unicode="o" horiz-adv-x="506" 
d="M250 420c-107 0 -180 -91 -180 -199c0 -106 73 -195 180 -195c106 0 179 89 179 195c0 108 -73 199 -179 199zM250 -4c-124 0 -210 99 -210 225c0 124 86 229 210 229s210 -105 210 -229c0 -126 -86 -225 -210 -225z" />
    <glyph glyph-name="p" unicode="p" horiz-adv-x="566" 
d="M285 419c-106 0 -173 -88 -173 -196s64 -199 173 -199s189 89 189 197c0 109 -79 198 -189 198zM285 -7c-76 0 -132 32 -175 112v-321h-30v667h30v-109c33 70 101 108 175 108c124 0 219 -103 219 -229c0 -124 -94 -228 -219 -228z" />
    <glyph glyph-name="q" unicode="q" horiz-adv-x="575" 
d="M287 419c-107 0 -189 -88 -189 -198c0 -108 81 -197 189 -197c107 0 173 90 173 197c0 109 -67 198 -173 198zM492 -216h-30v319c-35 -70 -100 -110 -175 -110c-125 0 -219 104 -219 228c0 126 93 229 219 229c75 0 138 -32 175 -110v111h30v-667z" />
    <glyph glyph-name="r" unicode="r" horiz-adv-x="333" 
d="M94 222v-222h-30v448h30v-114c46 70 110 112 187 114v-30c-106 -3 -187 -92 -187 -196z" />
    <glyph glyph-name="s" unicode="s" horiz-adv-x="400" 
d="M198 -5c-54 0 -111 26 -143 70l25 17c27 -35 75 -57 120 -57c56 0 113 27 113 95c0 130 -258 49 -258 207c0 84 64 129 142 129c58 0 108 -28 140 -77l-25 -16c-26 38 -66 62 -114 62c-58 0 -114 -29 -114 -95c0 -130 259 -49 259 -207c0 -87 -68 -129 -145 -128z" />
    <glyph glyph-name="t" unicode="t" horiz-adv-x="317" 
d="M278 435h-125v-435h-31v435h-65v22h65v128h31v-128h125v-22z" />
    <glyph glyph-name="u" unicode="u" horiz-adv-x="440" 
d="M371 0h-29v56c-34 -48 -93 -62 -137 -62c-80 0 -139 67 -139 152v294h29v-294c0 -68 46 -123 110 -123c66 0 137 44 137 109v304h29v-436z" />
    <glyph glyph-name="v" unicode="v" horiz-adv-x="456" 
d="M398 439l-161 -439h-23l-160 439h36l136 -383l136 383h36z" />
    <glyph glyph-name="w" unicode="w" horiz-adv-x="640" 
d="M576 440l-122 -440h-25l-114 285l-113 -285h-26l-121 440h32l105 -387l123 315l125 -318l103 390h33z" />
    <glyph glyph-name="x" unicode="x" horiz-adv-x="452" 
d="M390 0h-41l-124 190l-123 -190h-38l142 220l-143 220h39l123 -190l124 190h38l-142 -220z" />
    <glyph glyph-name="y" unicode="y" horiz-adv-x="492" 
d="M100 448l155 -407l141 407h37l-231 -662h-36l73 209l-175 453h36z" />
    <glyph glyph-name="z" unicode="z" horiz-adv-x="440" 
d="M382 442l-276 -416h259v-26h-316l277 416h-260v26h316z" />
    <glyph glyph-name="asciitilde" unicode="~" horiz-adv-x="381" 
d="M241 495c-16 0 -27 2 -41 8c-19 8 -26 12 -49 12c-12 0 -29 -4 -47 -14l-20 21c27 12 48 19 67 19c30 0 43 -5 65 -15c7 -4 16 -5 25 -5c11 0 24 2 41 10l18 -23c-24 -10 -43 -13 -59 -13z" />
    <glyph glyph-name="exclamdown" unicode="&#xa1;" horiz-adv-x="128" 
d="M61 580h33v-610h-33v610zM76 773c13 0 24 -10 24 -23c0 -12 -11 -23 -24 -23c-12 0 -22 11 -22 23c0 13 10 23 22 23z" />
    <glyph glyph-name="cent" unicode="&#xa2;" horiz-adv-x="454" 
d="M391 257l22 -21l-8 -10c-35 -44 -90 -63 -147 -65v-81h-30v82c-111 11 -191 107 -191 225s80 215 191 226v77h30v-76c57 -2 112 -21 147 -65l8 -10l-22 -21l-7 9c-35 35 -79 54 -126 57v-393c48 2 91 22 126 57zM228 192v391c-94 -12 -160 -96 -160 -196
s66 -184 160 -195z" />
    <glyph glyph-name="sterling" unicode="&#xa3;" horiz-adv-x="328" 
d="M307 766c-148 -3 -195 -103 -195 -236c0 -22 2 -44 3 -66h128v-23h-127c3 -80 10 -160 10 -241c0 -49 0 -141 -44 -174h225v-22h-261v22c48 17 50 137 50 188c0 76 -5 151 -8 227h-53l1 23h51c-1 14 -1 29 -1 43c0 146 38 285 220 289z" />
    <glyph glyph-name="yen" unicode="&#xa5;" 
d="M468 240v-25h-160v-215h-33v215h-154v25h154v55h-154v25h154v29l-228 362h38l207 -327l206 327h39l-229 -362v-29h160v-25h-160v-55h160z" />
    <glyph glyph-name="quotesingle" unicode="'" horiz-adv-x="101" 
d="M73 790l-5 -119h-28l-2 119h35z" />
    <glyph glyph-name="quotedblleft" unicode="&#x201c;" horiz-adv-x="242" 
d="M82 671l-39 119h45l29 -119h-35zM175 671l-38 119h44l29 -119h-35z" />
    <glyph glyph-name="guillemotleft" unicode="&#xab;" horiz-adv-x="306" 
d="M149 130l-114 146v21l114 146v-34l-79 -123l79 -122v-34zM259 130l-114 146v21l114 146v-34l-79 -123l79 -122v-34z" />
    <glyph glyph-name="guilsinglleft" unicode="&#x2039;" horiz-adv-x="198" 
d="M149 130l-114 146v21l114 146v-34l-79 -123l79 -122v-34z" />
    <glyph glyph-name="guilsinglright" unicode="&#x203a;" horiz-adv-x="192" 
d="M155 276l-114 -146v34l79 122l-79 123v34l114 -146v-21z" />
    <glyph glyph-name="endash" unicode="&#x2013;" horiz-adv-x="473" 
d="M86 287v21h330v-21h-330z" />
    <glyph glyph-name="dagger" unicode="&#x2020;" horiz-adv-x="194" 
d="M88 382h-86v20h86v408h20v-408h94v-20h-94v-412h-20v412z" />
    <glyph glyph-name="daggerdbl" unicode="&#x2021;" horiz-adv-x="194" 
d="M88 282h-86v20h86v80h-86v20h86v408h20v-408h94v-20h-94v-80h94v-20h-94v-312h-20v312z" />
    <glyph glyph-name="bullet" unicode="&#x2022;" horiz-adv-x="139" 
d="M71 371c-17 0 -32 15 -32 33c0 19 13 36 32 36c18 0 33 -15 33 -36c0 -18 -16 -33 -33 -33z" />
    <glyph glyph-name="quotedblright" unicode="&#x201d;" horiz-adv-x="242" 
d="M130 790l-72 -119h-35l63 119h44zM223 790l-71 -119h-35l61 119h45z" />
    <glyph glyph-name="guillemotright" unicode="&#xbb;" horiz-adv-x="306" 
d="M155 276l-114 -146v34l79 122l-79 123v34l114 -146v-21zM265 276l-114 -146v34l79 122l-79 123v34l114 -146v-21z" />
    <glyph glyph-name="questiondown" unicode="&#xbf;" horiz-adv-x="494" 
d="M230 771c16 0 27 -11 27 -26c0 -13 -13 -25 -27 -25c-13 0 -25 11 -25 23c0 16 11 28 25 28zM214 392v190h33v-222c-100 -1 -179 -80 -179 -177s82 -177 177 -177c96 0 174 78 175 179h33c-1 -119 -94 -213 -208 -213c-115 0 -210 95 -210 211c0 104 78 193 179 209z" />
    <glyph glyph-name="grave" unicode="`" horiz-adv-x="182" 
d="M127 716l-14 -13l-63 58l41 25z" />
    <glyph glyph-name="emdash" unicode="&#x2014;" horiz-adv-x="726" 
d="M76 287v21h580v-21h-580z" />
    <glyph glyph-name="AE" unicode="&#xc6;" horiz-adv-x="850" 
d="M146 213h222v494zM368 0v189h-233l-81 -189h-32l346 790h454v-25h-423v-354h298v-25h-298v-361h423v-25h-454z" />
    <glyph glyph-name="Oslash" unicode="&#xd8;" horiz-adv-x="840" 
d="M424 -10c-70 0 -135 19 -190 52l-28 -49h-31l37 64c-98 71 -160 192 -160 336c0 230 160 403 372 403c68 0 132 -18 185 -50l25 42h32l-34 -57c101 -71 165 -193 165 -338c0 -231 -160 -403 -373 -403zM424 763c-194 0 -340 -159 -340 -370c0 -131 56 -242 144 -307
l365 631c-49 30 -107 46 -169 46zM617 702l-367 -632c51 -31 110 -48 174 -48c194 0 340 159 340 371c0 132 -57 244 -147 309z" />
    <glyph glyph-name="OE" unicode="&#x152;" horiz-adv-x="1236" 
d="M396 -10c-212 0 -372 172 -372 403c0 230 160 403 372 403c156 0 286 -94 342 -236v230h454v-25h-423v-354h298v-25h-298v-361h423v-25h-454v226c-57 -142 -185 -236 -342 -236zM396 763c-194 0 -340 -159 -340 -370c0 -212 146 -371 340 -371s340 159 340 371
c0 211 -146 370 -340 370z" />
    <glyph glyph-name="ae" unicode="&#xe6;" horiz-adv-x="911" 
d="M881 204h-401c9 -99 78 -178 181 -178c50 0 104 8 144 41l22 -22c-46 -37 -107 -49 -165 -49c-90 0 -169 49 -199 135c-42 -79 -108 -135 -202 -135c-125 0 -217 102 -217 225s91 225 217 225c81 0 146 -48 189 -114v110h30v-101c39 65 107 100 182 100
c64 0 118 -29 163 -73v-1c34 -38 57 -86 58 -137c0 -9 -1 -18 -2 -26zM661 410c-102 0 -170 -80 -181 -177h371c-10 99 -89 177 -190 177zM261 416c-108 0 -187 -90 -187 -195s79 -195 187 -195c105 0 187 88 187 195c0 106 -82 195 -187 195z" />
    <glyph glyph-name="oslash" unicode="&#xf8;" horiz-adv-x="506" 
d="M374 458h32l-30 -51c53 -42 84 -111 84 -186c0 -126 -87 -225 -210 -225c-39 0 -73 9 -102 26l-12 -19h-31l20 34c-53 40 -85 107 -85 184c0 124 86 229 210 229c39 0 73 -10 103 -28zM141 64l196 332c-25 15 -54 24 -87 24c-107 0 -180 -91 -180 -199
c0 -64 27 -121 71 -157zM359 380l-196 -331c25 -15 54 -23 87 -23c106 0 179 89 179 195c0 64 -25 123 -70 159z" />
    <glyph glyph-name="oe" unicode="&#x153;" horiz-adv-x="891" 
d="M861 217l-1 -15h-402c9 -101 84 -177 182 -177c46 0 103 8 143 41l22 -21c-48 -39 -112 -49 -165 -49c-90 0 -177 55 -202 144c-28 -85 -102 -144 -198 -144c-124 0 -210 99 -210 225c0 124 86 229 210 229c99 0 173 -66 200 -156c28 84 103 144 200 144
c64 0 118 -27 164 -72v-1c34 -39 57 -87 57 -136v-12zM640 408c-98 0 -173 -77 -182 -176h372c-10 101 -93 176 -190 176zM240 420c-107 0 -180 -91 -180 -199c0 -106 73 -195 180 -195c106 0 179 89 179 195c0 108 -73 199 -179 199z" />
    <glyph glyph-name="trademark" unicode="&#x2122;" horiz-adv-x="557" 
d="M233 723h-71v-211h-22v211h-72v19h165v-19zM460 742v-230h-21v181l-81 -132l-80 132v-181h-22v230h16l86 -141l86 141h16z" />
    <glyph glyph-name="Thorn" unicode="&#xde;" horiz-adv-x="503" 
d="M83 119v-119h-31v790h31v-118h110c151 0 273 -126 273 -277s-121 -276 -273 -276h-110zM83 642v-494h110c136 0 245 112 245 247s-109 247 -245 247h-110z" />
    <glyph glyph-name="degree" unicode="&#xb0;" horiz-adv-x="267" 
d="M136 740c-28 0 -52 -24 -52 -51s24 -51 52 -51s52 24 52 51s-24 51 -52 51zM136 610c-43 0 -80 36 -80 79c0 44 37 80 80 80s80 -36 80 -80c0 -43 -37 -79 -80 -79z" />
    <glyph glyph-name="thorn" unicode="&#xfe;" horiz-adv-x="566" 
d="M285 419c-107 0 -173 -89 -173 -198c0 -107 66 -197 173 -197c109 0 189 89 189 197c-1 109 -80 198 -189 198zM285 -7c-76 0 -132 32 -175 112v-321h-30v907h30v-349c33 70 101 108 175 108c125 0 219 -103 219 -229c0 -124 -94 -228 -219 -228z" />
    <glyph glyph-name="registered" unicode="&#xae;" horiz-adv-x="369" 
d="M183 679h-22v-43c4 -1 8 -1 12 -1c15 0 32 1 32 22c0 12 -10 22 -22 22zM229 555h-21l-31 61h-16v-61h-19v143h41c22 0 40 -18 40 -41c0 -17 -11 -32 -26 -38zM179 741c-63 0 -114 -52 -114 -115c0 -62 51 -114 114 -114c62 0 115 52 115 114c0 63 -53 115 -115 115z
M179 489c-76 0 -138 61 -138 137s62 139 138 139c79 0 138 -60 138 -139c0 -76 -62 -137 -138 -137z" />
    <glyph glyph-name="minus" unicode="&#x2212;" horiz-adv-x="327" 
d="M276 286h-233v20h233v-20z" />
    <glyph glyph-name="multiply" unicode="&#xd7;" horiz-adv-x="306" 
d="M255 168h-37l-76 118l-75 -118h-36l94 147l-94 146h36l75 -118l76 118h36l-93 -146z" />
    <glyph glyph-name="copyright" unicode="&#xa9;" horiz-adv-x="369" 
d="M236 584l-8 -5c-13 -13 -30 -20 -49 -20c-39 0 -70 32 -70 70c0 39 31 71 70 71c19 0 36 -7 50 -20l6 -7l-14 -12l-5 5c-11 11 -23 15 -37 15c-29 0 -52 -23 -52 -52c0 -28 23 -52 52 -52c14 0 26 5 37 16l5 5zM180 741c-62 0 -111 -51 -111 -112s49 -111 111 -111
c61 0 111 50 111 111s-50 112 -111 112zM180 496c-75 0 -134 59 -134 133c0 75 59 135 134 135c74 0 134 -60 134 -135c0 -74 -60 -133 -134 -133z" />
    <glyph glyph-name="Aacute" unicode="&#xc1;" horiz-adv-x="638" 
d="M491 213l-162 496l-163 -496h325zM325 790h7l264 -790h-32l-62 189h-347l-60 -189h-32zM388 890l-79 -67l-15 15l51 80z" />
    <glyph glyph-name="Acircumflex" unicode="&#xc2;" horiz-adv-x="638" 
d="M491 213l-162 496l-163 -496h325zM325 790h8l262 -790h-32l-61 189h-347l-61 -189h-32zM443 780h-28l-86 88l-86 -88h-28l105 117h19z" />
    <glyph glyph-name="Adieresis" unicode="&#xc4;" horiz-adv-x="649" 
d="M211 832c-12 0 -24 11 -24 26s11 26 25 26s26 -11 26 -26c0 -14 -12 -26 -27 -26zM450 832c-13 0 -25 12 -25 26c0 15 11 26 26 26c14 0 26 -11 26 -26c0 -14 -12 -26 -27 -26zM491 213l-162 496l-163 -496h325zM325 790h8l262 -790h-32l-61 189h-347l-61 -189h-32z" />
    <glyph glyph-name="Agrave" unicode="&#xc0;" horiz-adv-x="638" 
d="M491 213l-162 496l-163 -496h325zM325 790h7l264 -790h-32l-62 189h-347l-60 -189h-32zM362 838l-15 -15l-81 67l42 28z" />
    <glyph glyph-name="Aring" unicode="&#xc5;" horiz-adv-x="644" 
d="M333 1017c-32 0 -59 -26 -59 -58s27 -59 59 -59s59 27 59 59s-27 58 -59 58zM333 881c-42 0 -79 35 -79 78s37 78 79 78s79 -35 79 -78s-37 -78 -79 -78zM491 213l-162 496l-163 -496h325zM326 790h7l262 -790h-32l-61 189h-347l-61 -189h-32z" />
    <glyph glyph-name="Atilde" unicode="&#xc3;" horiz-adv-x="638" 
d="M491 213l-162 496l-163 -496h325zM326 790h7l262 -790h-32l-61 189h-347l-61 -189h-32zM400 808c-39 0 -71 30 -111 30c-24 0 -53 -12 -73 -25l-3 27c23 12 50 25 76 25c45 0 87 -29 111 -29c22 0 41 7 59 20v-31c-18 -7 -38 -17 -59 -17z" />
    <glyph glyph-name="Ccedilla" unicode="&#xc7;" horiz-adv-x="696" 
d="M389 -148l-1 18c30 0 58 8 58 27c0 24 -29 30 -47 30h-5l37 63c-221 4 -398 182 -398 403c0 223 182 403 405 403c55 0 174 -27 216 -62l-17 -23c-63 27 -129 55 -199 55c-206 0 -374 -166 -374 -373c0 -206 168 -374 374 -374c70 0 136 28 199 55l18 -24
c-68 -28 -136 -58 -210 -60l-18 -51c15 -1 42 -9 46 -41c0 -20 -22 -46 -84 -46z" />
    <glyph glyph-name="Eacute" unicode="&#xc9;" horiz-adv-x="621" 
d="M533 0h-454v791h454v-25h-423v-355h298v-24h-298v-362h423v-25zM360 881l-82 -67l-15 15l53 80z" />
    <glyph glyph-name="Ecircumflex" unicode="&#xca;" horiz-adv-x="597" 
d="M522 0h-454v790h454v-25h-423v-354h298v-25h-298v-361h423v-25zM423 810h-28l-86 88l-86 -88h-28l105 117h19z" />
    <glyph glyph-name="Edieresis" unicode="&#xcb;" horiz-adv-x="597" 
d="M522 0h-454v790h454v-25h-423v-354h298v-25h-298v-361h423v-25zM181 832c-12 0 -24 11 -24 26s11 26 25 26s26 -11 26 -26c0 -14 -12 -26 -27 -26zM420 832c-13 0 -25 12 -25 26c0 15 11 26 26 26c14 0 26 -11 26 -26c0 -14 -12 -26 -27 -26z" />
    <glyph glyph-name="Egrave" unicode="&#xc8;" horiz-adv-x="597" 
d="M523 0h-455v790h454v-25h-423v-354h298v-25h-298v-361h423zM332 838l-15 -15l-81 67l42 28z" />
    <glyph glyph-name="Ntilde" unicode="&#xd1;" horiz-adv-x="674" 
d="M578 0l-486 738v-738h-29v790l32 2l479 -731v738h29v-799h-25zM420 808c-39 0 -71 30 -111 30c-24 0 -53 -12 -73 -25l-3 27c23 12 50 25 76 25c45 0 87 -29 111 -29c22 0 41 7 59 20v-31c-18 -7 -38 -17 -59 -17z" />
    <glyph glyph-name="Oacute" unicode="&#xd3;" horiz-adv-x="836" 
d="M424 763c-194 0 -340 -159 -340 -370c0 -212 147 -371 340 -371s340 158 340 369c0 212 -145 372 -340 372zM424 -10c-211 0 -372 171 -372 401c0 231 158 405 372 405c212 0 373 -173 373 -403c0 -231 -162 -403 -373 -403zM479 890l-81 -67l-15 15l53 80z" />
    <glyph glyph-name="Ocircumflex" unicode="&#xd4;" horiz-adv-x="836" 
d="M424 763c-194 0 -340 -159 -340 -370c0 -212 146 -371 340 -371s340 159 340 371c0 211 -146 370 -340 370zM424 -10c-212 0 -372 172 -372 403c0 230 160 403 372 403s373 -173 373 -403c0 -231 -161 -403 -373 -403zM533 810h-28l-86 88l-86 -88h-28l105 117h19z" />
    <glyph glyph-name="Odieresis" unicode="&#xd6;" horiz-adv-x="837" 
d="M418 756c-194 0 -340 -159 -340 -372c0 -211 146 -370 340 -370s340 159 340 370c0 213 -146 372 -340 372zM418 -19c-212 0 -372 174 -372 403c0 231 158 404 371 404c211 0 373 -173 373 -404c0 -229 -160 -403 -372 -403zM300 809c-18 0 -29 11 -29 26
c0 14 12 27 28 27c14 0 25 -13 25 -27c0 -15 -12 -26 -24 -26zM541 809c-12 0 -25 11 -25 26c0 14 11 27 25 27c16 0 27 -13 27 -27c0 -15 -11 -26 -27 -26z" />
    <glyph glyph-name="Ograve" unicode="&#xd2;" horiz-adv-x="836" 
d="M424 763c-194 0 -340 -159 -340 -370c0 -212 147 -371 340 -371s340 158 340 369c0 212 -145 372 -340 372zM424 -10c-211 0 -372 171 -372 401c0 231 158 405 372 405c212 0 373 -173 373 -403c0 -231 -162 -403 -373 -403zM451 838l-15 -15l-79 67l42 28z" />
    <glyph glyph-name="Otilde" unicode="&#xd5;" horiz-adv-x="836" 
d="M424 763c-194 0 -340 -159 -340 -370c0 -212 147 -371 340 -371s340 158 340 369c0 212 -145 372 -340 372zM424 -10c-211 0 -372 171 -372 401c0 231 158 405 372 405c212 0 373 -173 373 -403c0 -231 -162 -403 -373 -403zM481 818c-40 0 -71 30 -111 30
c-24 0 -55 -12 -75 -25l-2 27c23 12 51 25 77 25c45 0 86 -29 111 -29c22 0 41 7 58 20v-31c-19 -7 -38 -17 -58 -17z" />
    <glyph glyph-name="Uacute" unicode="&#xda;" horiz-adv-x="653" 
d="M324 -10c-147 0 -272 114 -272 263v543h31v-531c0 -135 109 -243 241 -243c133 0 241 108 241 243v531h32v-531c0 -151 -123 -275 -273 -275zM389 890l-81 -67l-15 15l53 80z" />
    <glyph glyph-name="Ucircumflex" unicode="&#xdb;" horiz-adv-x="653" 
d="M324 -10c-147 0 -272 114 -272 263v543h31v-531c0 -135 109 -243 241 -243c133 0 241 108 241 243v531h32v-531c0 -151 -123 -275 -273 -275zM453 810h-28l-86 88l-86 -88h-28l105 117h19z" />
    <glyph glyph-name="Udieresis" unicode="&#xdc;" horiz-adv-x="659" 
d="M338 -18c-147 0 -272 114 -272 263v542h31v-530c0 -135 108 -243 241 -243s241 108 241 243v530h31v-530c0 -151 -122 -275 -272 -275zM218 783c-14 0 -26 11 -26 26s12 26 26 26c15 0 27 -11 27 -26c0 -14 -12 -26 -27 -26zM461 783c-15 0 -26 12 -26 26
c0 15 11 26 26 26c14 0 27 -11 27 -26s-15 -26 -27 -26z" />
    <glyph glyph-name="Ugrave" unicode="&#xd9;" horiz-adv-x="653" 
d="M324 -10c-147 0 -272 114 -272 263v543h31v-531c0 -135 109 -243 241 -243c133 0 241 108 241 243v531h32v-531c0 -151 -123 -275 -273 -275zM361 838l-15 -15l-79 67l42 28z" />
    <glyph glyph-name="Yacute" unicode="&#xdd;" 
d="M605 790l-264 -401v-389h-33v389l-265 401h37l244 -368l244 368h37zM388 890l-79 -67l-15 15l47 80z" />
    <glyph glyph-name="Ydieresis" unicode="&#x178;" 
d="M605 790l-265 -401v-389h-32v389l-265 401h37l244 -368l244 368h37zM201 832c-12 0 -24 11 -24 26s11 26 25 26s26 -11 26 -26c0 -14 -12 -26 -27 -26zM440 832c-13 0 -25 12 -25 26c0 15 11 26 26 26c14 0 26 -11 26 -26c0 -14 -12 -26 -27 -26z" />
    <glyph glyph-name="Zcaron" unicode="&#x17d;" horiz-adv-x="670" 
d="M611 790l-507 -765h490v-25h-542l508 765h-490v25h541zM227 932h28l86 -88l86 88h28l-105 -117h-19z" />
    <glyph glyph-name="aacute" unicode="&#xe1;" horiz-adv-x="565" 
d="M271 418c-108 0 -187 -90 -187 -196s79 -195 187 -195c105 0 187 88 187 195s-82 196 -187 196zM490 0h-30v111c-48 -74 -114 -115 -189 -115c-125 0 -217 103 -217 226c0 124 92 227 217 227c75 0 141 -42 189 -115v111h30v-445zM348 590l-79 -67l-15 15l52 80z" />
    <glyph glyph-name="acircumflex" unicode="&#xe2;" horiz-adv-x="576" 
d="M271 419c-108 0 -187 -90 -187 -196s79 -196 187 -196c105 0 187 88 187 196c0 107 -82 196 -187 196zM490 0h-30v111c-48 -74 -114 -115 -189 -115c-125 0 -217 103 -217 227c0 123 92 226 217 226c75 0 141 -41 189 -114v110h30v-445zM392 494h-28l-86 88l-86 -88h-28
l105 117h19z" />
    <glyph glyph-name="adieresis" unicode="&#xe4;" horiz-adv-x="559" 
d="M271 418c-108 0 -187 -90 -187 -196s79 -196 187 -196c105 0 187 89 187 196s-82 196 -187 196zM490 0h-30v111c-48 -74 -114 -115 -189 -115c-125 0 -217 103 -217 226c0 124 93 226 217 226c75 0 141 -41 189 -114v110h30v-444zM165 534c-12 0 -25 11 -25 25
c0 15 13 26 25 26c15 0 26 -11 26 -26c0 -14 -11 -25 -26 -25zM403 534c-13 0 -27 11 -27 25c0 15 15 26 27 26c14 0 26 -11 26 -26c0 -14 -12 -25 -26 -25z" />
    <glyph glyph-name="agrave" unicode="&#xe0;" horiz-adv-x="560" 
d="M271 418c-108 0 -187 -90 -187 -196s79 -195 187 -195c105 0 187 88 187 195s-82 196 -187 196zM490 0h-30v111c-48 -74 -114 -115 -189 -115c-125 0 -217 103 -217 226c0 124 92 227 217 227c75 0 141 -42 189 -115v111h30v-445zM292 538l-15 -15l-81 67l43 28z" />
    <glyph glyph-name="aring" unicode="&#xe5;" horiz-adv-x="560" 
d="M271 419c-108 0 -187 -90 -187 -196s79 -196 187 -196c105 0 187 88 187 196c0 107 -82 196 -187 196zM292 743c-32 0 -59 -26 -59 -58s27 -58 59 -58s59 26 59 58s-27 58 -59 58zM490 0h-30v111c-48 -74 -114 -115 -189 -115c-125 0 -217 103 -217 227s92 227 217 227
c75 0 141 -41 189 -115v111h30v-446zM292 607c-42 0 -79 36 -79 78c0 43 37 79 79 79c41 0 78 -36 78 -79c0 -42 -37 -78 -78 -78z" />
    <glyph glyph-name="atilde" unicode="&#xe3;" horiz-adv-x="540" 
d="M271 418c-108 0 -187 -90 -187 -196s79 -196 187 -196c105 0 187 88 187 196c0 107 -82 196 -187 196zM490 0h-30v110c-48 -73 -114 -114 -189 -114c-125 0 -217 103 -217 226s92 226 217 226c75 0 141 -41 189 -114v110h30v-444zM388 533h-237v29h237v-29z" />
    <glyph glyph-name="ccedilla" unicode="&#xe7;" horiz-adv-x="473" 
d="M249 -4h15l-17 -47c15 -1 46 -9 46 -41c0 -27 -38 -45 -72 -45l-1 14c31 0 58 12 58 31c0 24 -29 29 -47 29h-5zM398 92l22 -21l-8 -10c-37 -47 -96 -65 -156 -65c-122 0 -213 101 -213 226c0 126 91 227 213 227c60 0 118 -18 156 -65l8 -10l-22 -21l-7 9
c-37 37 -84 57 -135 57c-105 0 -182 -89 -182 -197c0 -107 77 -196 182 -196c51 0 98 20 135 57z" />
    <glyph glyph-name="eacute" unicode="&#xe9;" horiz-adv-x="539" 
d="M261 410c-98 0 -174 -76 -183 -177h372c-10 102 -92 177 -189 177zM482 218l-2 -14h-402c9 -103 84 -178 182 -178c46 0 104 7 143 41l22 -22c-48 -39 -112 -49 -165 -49c-54 0 -109 19 -149 57c-47 44 -64 101 -64 164c0 124 87 224 213 224c64 0 118 -28 164 -73v-1
c33 -37 59 -83 59 -131c0 -6 0 -12 -1 -18zM348 590l-80 -67l-14 15l52 80z" />
    <glyph glyph-name="ecircumflex" unicode="&#xea;" horiz-adv-x="533" 
d="M260 411c-98 0 -173 -77 -182 -177h372c-10 102 -93 177 -190 177zM481 218l-1 -14h-402c9 -103 84 -178 182 -178c46 0 103 7 143 41l22 -22c-48 -39 -112 -49 -165 -49c-123 0 -213 97 -213 222c0 123 88 224 213 224c64 0 118 -28 164 -73v-1c34 -39 57 -87 57 -138
v-12zM372 494h-28l-86 88l-86 -88h-28l105 117h19z" />
    <glyph glyph-name="edieresis" unicode="&#xeb;" horiz-adv-x="561" 
d="M260 410c-98 0 -173 -77 -182 -177h372c-10 102 -93 177 -190 177zM481 218l-1 -15h-402c9 -102 84 -178 182 -178c46 0 103 8 143 42l22 -22c-48 -39 -112 -49 -165 -49c-54 0 -109 19 -149 57c-46 44 -64 101 -64 164c0 124 88 223 213 223c64 0 118 -27 164 -72v-1
c34 -39 57 -87 57 -137v-12zM157 534c-12 0 -25 11 -25 25c0 15 13 26 25 26c15 0 26 -11 26 -26c0 -14 -11 -25 -26 -25zM395 534c-14 0 -27 11 -27 25c0 15 13 26 27 26s26 -11 26 -26c0 -14 -12 -25 -26 -25z" />
    <glyph glyph-name="egrave" unicode="&#xe8;" horiz-adv-x="542" 
d="M261 410c-98 0 -174 -76 -183 -177h372c-10 102 -92 177 -189 177zM482 218l-2 -14h-402c9 -103 84 -178 182 -178c46 0 104 7 143 41l22 -22c-48 -39 -112 -49 -165 -49c-54 0 -109 19 -149 57c-47 44 -64 101 -64 164c0 124 87 224 213 224c64 0 118 -28 164 -73v-1
c33 -37 59 -83 59 -131c0 -6 0 -12 -1 -18zM292 538l-15 -15l-81 67l43 28z" />
    <glyph glyph-name="iacute" unicode="&#xed;" horiz-adv-x="188" 
d="M124 0h-33v447h33v-447zM159 590l-80 -67l-15 15l52 80z" />
    <glyph glyph-name="icircumflex" unicode="&#xee;" horiz-adv-x="228" 
d="M124 0h-33v447h33v-447zM222 494h-28l-86 88l-86 -88h-28l105 117h19z" />
    <glyph glyph-name="idieresis" unicode="&#xef;" horiz-adv-x="228" 
d="M25 534c-13 0 -25 11 -25 25c0 15 12 26 25 26c15 0 27 -11 27 -26c0 -14 -12 -25 -27 -25zM183 534c-14 0 -26 11 -26 25c0 15 12 26 26 26s27 -11 27 -26c0 -14 -13 -25 -27 -25zM124 0h-33v447h33v-447z" />
    <glyph glyph-name="igrave" unicode="&#xec;" horiz-adv-x="185" 
d="M132 538l-15 -15l-80 67l42 28zM124 0h-33v447h33v-447z" />
    <glyph glyph-name="ntilde" unicode="&#xf1;" horiz-adv-x="456" 
d="M380 0h-29v292c0 65 -45 118 -108 118c-65 0 -138 -38 -138 -104v-306h-29v438h29v-59c37 41 94 61 138 61c79 0 137 -67 137 -148v-292zM300 508c-39 0 -71 30 -111 30c-24 0 -53 -12 -73 -25l-3 27c23 12 50 25 76 25c45 0 87 -29 111 -29c22 0 41 7 59 20v-31
c-18 -7 -38 -17 -59 -17z" />
    <glyph glyph-name="oacute" unicode="&#xf3;" horiz-adv-x="508" 
d="M250 422c-107 0 -180 -92 -180 -200c0 -107 73 -195 180 -195c106 0 179 88 179 195c0 108 -73 200 -179 200zM250 -4c-124 0 -210 100 -210 226c0 125 86 231 210 231s210 -106 210 -231c0 -126 -86 -226 -210 -226zM332 590l-80 -67l-14 15l52 80z" />
    <glyph glyph-name="ocircumflex" unicode="&#xf4;" horiz-adv-x="518" 
d="M250 423c-106 0 -180 -92 -180 -200s73 -196 180 -196c106 0 179 88 179 196s-72 200 -179 200zM250 -4c-123 0 -210 99 -210 225s84 232 210 232c124 0 210 -105 210 -230c0 -127 -87 -227 -210 -227zM372 494h-28l-86 88l-86 -88h-28l105 117h19z" />
    <glyph glyph-name="odieresis" unicode="&#xf6;" horiz-adv-x="517" 
d="M250 422c-106 0 -180 -92 -180 -200c0 -107 73 -196 180 -196c106 0 179 89 179 196c0 108 -72 200 -179 200zM250 -4c-123 0 -210 100 -210 226c0 125 86 230 210 230s210 -105 210 -230c0 -126 -85 -226 -210 -226zM126 534c-12 0 -26 11 -26 25c0 15 14 26 27 26
s24 -11 24 -26c0 -14 -11 -25 -25 -25zM363 534c-14 0 -25 11 -25 25c0 15 12 26 25 26c15 0 26 -11 26 -26c0 -14 -11 -25 -26 -25z" />
    <glyph glyph-name="ograve" unicode="&#xf2;" horiz-adv-x="497" 
d="M250 422c-107 0 -180 -92 -180 -200c0 -107 73 -195 180 -195c106 0 179 88 179 195c0 108 -73 200 -179 200zM250 -4c-124 0 -210 100 -210 226c0 125 86 231 210 231s210 -106 210 -231c0 -126 -86 -226 -210 -226zM284 538l-15 -15l-81 67l43 28z" />
    <glyph glyph-name="otilde" unicode="&#xf5;" horiz-adv-x="505" 
d="M250 422c-106 0 -180 -91 -180 -198c0 -108 71 -198 180 -198c106 0 179 89 179 196c0 108 -74 200 -179 200zM250 -4c-123 0 -210 100 -210 226c0 125 86 230 210 230s210 -105 210 -230c0 -126 -85 -226 -210 -226zM371 539h-237v29h237v-29z" />
    <glyph glyph-name="uacute" unicode="&#xfa;" horiz-adv-x="443" 
d="M371 0h-29v56c-34 -48 -93 -62 -137 -62c-80 0 -139 68 -139 153v296h29v-296c0 -68 46 -123 110 -123c66 0 137 43 137 109v306h29v-439zM293 590l-78 -67l-16 15l53 80z" />
    <glyph glyph-name="ucircumflex" unicode="&#xfb;" horiz-adv-x="435" 
d="M371 0h-29v56c-34 -48 -93 -62 -137 -62c-80 0 -139 68 -139 153v297h29v-297c0 -68 46 -123 110 -123c66 0 137 43 137 109v307h29v-440zM332 494h-28l-86 88l-86 -88h-28l105 117h19z" />
    <glyph glyph-name="udieresis" unicode="&#xfc;" horiz-adv-x="434" 
d="M371 0h-29v56c-34 -48 -93 -62 -137 -62c-80 0 -139 68 -139 152v296h29v-296c0 -67 46 -123 110 -123c66 0 137 44 137 110v305h29v-438zM105 534c-12 0 -26 11 -26 25c0 15 13 26 26 26s25 -11 25 -26c0 -14 -11 -25 -25 -25zM340 534c-13 0 -25 11 -25 25
c0 15 11 26 25 26c13 0 25 -11 25 -26c0 -14 -11 -25 -25 -25z" />
    <glyph glyph-name="ugrave" unicode="&#xf9;" horiz-adv-x="448" 
d="M371 0h-29v56c-34 -48 -93 -62 -137 -62c-80 0 -139 68 -139 153v296h29v-296c0 -68 46 -123 110 -123c66 0 137 43 137 109v306h29v-439zM253 538l-14 -15l-81 67l43 28z" />
    <glyph glyph-name="yacute" unicode="&#xfd;" horiz-adv-x="492" 
d="M100 448l155 -407l141 407h37l-231 -662h-36l73 209l-175 453h36zM318 590l-81 -67l-13 15l52 80z" />
    <glyph glyph-name="ydieresis" unicode="&#xff;" horiz-adv-x="492" 
d="M100 448l155 -407l141 407h37l-231 -662h-36l73 209l-175 453h36zM137 534c-13 0 -25 11 -25 25c0 15 12 26 25 26c14 0 27 -11 27 -26c0 -14 -12 -25 -27 -25zM375 534c-15 0 -26 11 -26 25c0 15 10 26 26 26c13 0 27 -11 27 -26c0 -14 -13 -25 -27 -25z" />
    <glyph glyph-name="zcaron" unicode="&#x17e;" horiz-adv-x="440" 
d="M382 442l-276 -416h259v-26h-316l277 416h-260v26h316zM107 612h28l86 -88l86 88h28l-106 -117h-19z" />
    <glyph glyph-name="euro" unicode="&#x20ac;" horiz-adv-x="640" 
d="M134 327h-108l10 21h94c-3 15 -4 30 -4 45c0 11 1 23 2 34h-72l10 21h65c27 132 143 227 277 227c43 0 121 -19 155 -46l-17 -23c-43 18 -89 39 -137 39c-118 0 -220 -82 -246 -197h236l-10 -21h-230c-1 -11 -2 -23 -2 -34c0 -15 1 -30 4 -45h208l-10 -21h-193
c30 -110 128 -186 242 -186c48 0 95 20 138 39l18 -25c-50 -21 -100 -44 -155 -44c-131 0 -245 89 -275 216z" />
    <glyph glyph-name="Ygrave" unicode="&#x1ef2;" 
d="M605 790l-264 -401v-389h-33v389l-265 401h37l244 -368l244 368h37zM362 838l-15 -15l-81 67l42 28z" />
    <glyph glyph-name="ygrave" unicode="&#x1ef3;" horiz-adv-x="492" 
d="M100 448l155 -407l141 407h37l-231 -662h-36l73 209l-175 453h36zM272 538l-15 -15l-81 67l43 28z" />
    <glyph glyph-name="arrowleft" unicode="&#x2190;" horiz-adv-x="506" 
d="M465 369h-345l141 -102v-39l-223 158l223 159v-39l-141 -103h345v-34z" />
    <glyph glyph-name="arrowup" unicode="&#x2191;" horiz-adv-x="414" 
d="M362 399h-39l-102 141v-345h-34v345l-103 -141h-39l159 223z" />
    <glyph glyph-name="arrowright" unicode="&#x2192;" horiz-adv-x="506" 
d="M462 386l-223 -158v39l141 102h-345v34h345l-141 103v39z" />
    <glyph glyph-name="arrowdown" unicode="&#x2193;" horiz-adv-x="414" 
d="M362 401l-158 -223l-159 223h39l103 -141v345h34v-345l102 141h39z" />
    <glyph glyph-name="arrowboth" unicode="&#x2194;" horiz-adv-x="800" 
d="M762 386l-224 -158v39l141 102h-558l141 -102v-39l-224 158l224 159v-39l-141 -103h558l-141 103v39z" />
    <glyph glyph-name="arrowupdn" unicode="&#x2195;" horiz-adv-x="437" 
d="M372 262l-158 -224l-159 224h39l103 -141v558l-103 -141h-39l159 224l158 -224h-39l-102 141v-558l102 141h39z" />
    <glyph glyph-name="uni2196" unicode="&#x2196;" horiz-adv-x="414" 
d="M369 254l-25 -24l-243 242l27 -171l-28 -28l-44 270l269 -46l-28 -28l-171 28z" />
    <glyph glyph-name="uni2197" unicode="&#x2197;" horiz-adv-x="414" 
d="M363 544l-46 -269l-28 28l28 171l-243 -243l-24 25l242 243l-171 -27l-28 28z" />
    <glyph glyph-name="uni2198" unicode="&#x2198;" horiz-adv-x="414" 
d="M369 546l-243 -243l171 28l28 -28l-269 -46l44 270l28 -28l-27 -171l243 242z" />
    <glyph glyph-name="uni2199" unicode="&#x2199;" horiz-adv-x="414" 
d="M363 256l-270 44l28 28l171 -27l-242 243l24 25l243 -243l-28 171l28 28z" />
    <glyph glyph-name="s_t" unicode="&#xfb06;" horiz-adv-x="662" 
d="M338 379l-25 -16c-27 40 -68 62 -116 62c-58 0 -112 -32 -112 -95c0 -133 258 -46 258 -210c0 -81 -65 -125 -140 -125c-56 0 -113 24 -148 70l26 17c28 -38 77 -57 123 -57c57 0 109 32 109 95c0 132 -257 46 -257 210c0 81 65 126 140 126c42 0 81 -14 112 -42
c-2 12 -2 25 -2 37c0 80 64 127 140 127c20 0 40 -1 61 -2v-129h113v-22h-113v-425h-32v425h-66v22h66v113h-35c-59 0 -114 -43 -114 -105c0 -17 5 -62 12 -76z" />
    <glyph glyph-name="_248" horiz-adv-x="517" 
d="M113 726v1c43 43 94 69 153 69c112 0 205 -95 206 -208c0 -82 -49 -157 -132 -196c85 -32 133 -116 133 -194c0 -50 -19 -101 -54 -139v-1c-43 -43 -94 -68 -153 -68c-112 0 -205 95 -206 208c0 81 50 156 133 195c-85 32 -133 116 -133 195c0 50 19 100 53 138zM266 767
c-98 0 -178 -80 -178 -179c1 -110 78 -181 184 -181c97 0 173 84 173 181c-1 99 -81 179 -179 179zM266 379c-98 0 -178 -82 -178 -181s80 -180 178 -180s179 81 179 180c-1 104 -76 181 -179 181z" />
    <glyph glyph-name="_240" horiz-adv-x="228" 
 />
    <glyph glyph-name="c_t" horiz-adv-x="716" 
d="M376 412c-1 9 -1 18 -1 28v11c0 81 66 127 141 127c20 0 40 -1 61 -2v-129h113v-22h-113v-425h-32v425h-66v22h66v113h-35c-59 0 -114 -44 -114 -105c0 -20 5 -65 16 -81l-29 -12c-37 36 -84 57 -135 57c-108 0 -182 -93 -182 -197s74 -196 182 -196c49 0 114 24 142 66
l22 -21c-42 -55 -96 -75 -164 -75c-125 0 -213 105 -213 226c0 122 87 227 213 227c44 0 93 -11 128 -37z" />
    <glyph glyph-name="_230" horiz-adv-x="561" 
 />
  </font>
</defs>
</svg>
